<ttFont>
<head>
    <!-- Most of this table will be recalculated by the compiler -->
    <tableVersion value="1.0"/>
    <fontRevision value="2.2"/>
    <checkSumAdjustment value="0xa00772a4"/>
    <magicNumber value="0x5f0f3cf5"/>
    <flags value="00000000 00000101"/>
    <unitsPerEm value="1000"/>
    <created value="Mon Jun 22 21:16:48 2020"/>
    <modified value="Mon Jun 22 22:24:25 2020"/>
    <xMin value="-204"/>
    <yMin value="-276"/>
    <xMax value="1433"/>
    <yMax value="1079"/>
    <macStyle value="00000000 00000010"/>
    <lowestRecPPEM value="9"/>
    <fontDirectionHint value="2"/>
    <indexToLocFormat value="0"/>
    <glyphDataFormat value="0"/>
  </head>
    <TTGlyph name=".notdef" xMin="0" yMin="-200" xMax="500" yMax="800">
      <contour>
        <pt x="0" y="-200" on="1"/>
        <pt x="0" y="800" on="1"/>
        <pt x="500" y="800" on="1"/>
        <pt x="500" y="-200" on="1"/>
      </contour>
      <contour>
        <pt x="250" y="360" on="1"/>
        <pt x="429" y="750" on="1"/>
        <pt x="71" y="750" on="1"/>
      </contour>
      <contour>
        <pt x="50" y="-76" on="1"/>
        <pt x="222" y="300" on="1"/>
        <pt x="50" y="676" on="1"/>
      </contour>
      <contour>
        <pt x="450" y="-76" on="1"/>
        <pt x="450" y="676" on="1"/>
        <pt x="278" y="300" on="1"/>
      </contour>
      <contour>
        <pt x="71" y="-150" on="1"/>
        <pt x="429" y="-150" on="1"/>
        <pt x="250" y="240" on="1"/>
      </contour>
    </TTGlyph>
    <TTGlyph name="A" xMin="-47" yMin="0" xMax="617" yMax="653">
      <contour>
        <pt x="-47" y="0" on="1"/>
        <pt x="-37" y="40" on="1"/>
        <pt x="32" y="40" on="1"/>
        <pt x="411" y="653" on="1"/>
        <pt x="461" y="653" on="1"/>
        <pt x="538" y="40" on="1"/>
        <pt x="617" y="40" on="1"/>
        <pt x="607" y="0" on="1"/>
        <pt x="357" y="0" on="1"/>
        <pt x="367" y="40" on="1"/>
        <pt x="469" y="40" on="1"/>
        <pt x="445" y="238" on="1"/>
        <pt x="206" y="238" on="1"/>
        <pt x="87" y="40" on="1"/>
        <pt x="179" y="40" on="1"/>
        <pt x="169" y="0" on="1"/>
      </contour>
      <contour>
        <pt x="229" y="276" on="1"/>
        <pt x="440" y="276" on="1"/>
        <pt x="406" y="566" on="1"/>
        <pt x="404" y="566" on="1"/>
      </contour>
    </TTGlyph>
    <TTGlyph name="AE" xMin="-72" yMin="0" xMax="960" yMax="648">
      <contour>
        <pt x="-72" y="0" on="1"/>
        <pt x="-62" y="40" on="1"/>
        <pt x="15" y="40" on="1"/>
        <pt x="473" y="608" on="1"/>
        <pt x="371" y="608" on="1"/>
        <pt x="381" y="648" on="1"/>
        <pt x="960" y="648" on="1"/>
        <pt x="911" y="452" on="1"/>
        <pt x="877" y="452" on="1"/>
        <pt x="883" y="507" on="0"/>
        <pt x="887" y="570" on="0"/>
        <pt x="878" y="601" on="0"/>
        <pt x="856" y="608" on="0"/>
        <pt x="835" y="608" on="1"/>
        <pt x="603" y="608" on="1"/>
        <pt x="539" y="351" on="1"/>
        <pt x="651" y="351" on="1"/>
        <pt x="687" y="351" on="0"/>
        <pt x="715" y="384" on="0"/>
        <pt x="740" y="450" on="1"/>
        <pt x="771" y="450" on="1"/>
        <pt x="712" y="212" on="1"/>
        <pt x="681" y="212" on="1"/>
        <pt x="685" y="247" on="0"/>
        <pt x="689" y="289" on="0"/>
        <pt x="682" y="309" on="0"/>
        <pt x="663" y="315" on="0"/>
        <pt x="645" y="315" on="1"/>
        <pt x="531" y="315" on="1"/>
        <pt x="462" y="40" on="1"/>
        <pt x="685" y="40" on="1"/>
        <pt x="710" y="40" on="0"/>
        <pt x="744" y="51" on="0"/>
        <pt x="773" y="88" on="0"/>
        <pt x="805" y="158" on="0"/>
        <pt x="827" y="216" on="1"/>
        <pt x="861" y="216" on="1"/>
        <pt x="807" y="0" on="1"/>
        <pt x="273" y="0" on="1"/>
        <pt x="283" y="40" on="1"/>
        <pt x="392" y="40" on="1"/>
        <pt x="443" y="248" on="1"/>
        <pt x="237" y="248" on="1"/>
        <pt x="70" y="40" on="1"/>
        <pt x="163" y="40" on="1"/>
        <pt x="153" y="0" on="1"/>
      </contour>
      <contour>
        <pt x="268" y="286" on="1"/>
        <pt x="453" y="286" on="1"/>
        <pt x="534" y="611" on="1"/>
        <pt x="530" y="611" on="1"/>
      </contour>
    </TTGlyph>
    <TTGlyph name="AEacute" xMin="-72" yMin="0" xMax="960" yMax="930">
      <component glyphName="AE" x="0" y="0" flags="0x204"/>
      <component glyphName="acute" x="456" y="213" flags="0x4"/>
    </TTGlyph>
    <TTGlyph name="Aacute" xMin="-47" yMin="0" xMax="617" yMax="930">
      <component glyphName="A" x="0" y="0" flags="0x204"/>
      <component glyphName="acute" x="296" y="213" flags="0x4"/>
    </TTGlyph>
    <TTGlyph name="Abreve" xMin="-47" yMin="0" xMax="617" yMax="886">
      <component glyphName="A" x="0" y="0" flags="0x204"/>
      <component glyphName="breve" x="212" y="213" flags="0x4"/>
    </TTGlyph>
    <TTGlyph name="Acircumflex" xMin="-47" yMin="0" xMax="617" yMax="916">
      <component glyphName="A" x="0" y="0" flags="0x204"/>
      <component glyphName="circumflex" x="219" y="213" flags="0x4"/>
    </TTGlyph>
    <TTGlyph name="Adieresis" xMin="-47" yMin="0" xMax="617" yMax="859">
      <component glyphName="A" x="0" y="0" flags="0x204"/>
      <component glyphName="dieresis" x="210" y="213" flags="0x4"/>
    </TTGlyph>
    <TTGlyph name="Agrave" xMin="-47" yMin="0" xMax="617" yMax="930">
      <component glyphName="A" x="0" y="0" flags="0x204"/>
      <component glyphName="grave" x="216" y="213" flags="0x4"/>
    </TTGlyph>
    <TTGlyph name="Amacron" xMin="-47" yMin="0" xMax="617" yMax="808">
      <component glyphName="A" x="0" y="0" flags="0x204"/>
      <component glyphName="macron" x="221" y="213" flags="0x4"/>
    </TTGlyph>
    <TTGlyph name="Aogonek" xMin="-47" yMin="-233" xMax="617" yMax="653">
      <contour>
        <pt x="-47" y="0" on="1"/>
        <pt x="-37" y="40" on="1"/>
        <pt x="32" y="40" on="1"/>
        <pt x="411" y="653" on="1"/>
        <pt x="461" y="653" on="1"/>
        <pt x="538" y="40" on="1"/>
        <pt x="617" y="40" on="1"/>
        <pt x="607" y="0" on="1"/>
        <pt x="523" y="0" on="1"/>
        <pt x="503" y="-16" on="1"/>
        <pt x="443" y="-63" on="0"/>
        <pt x="402" y="-123" on="0"/>
        <pt x="402" y="-150" on="1"/>
        <pt x="402" y="-170" on="0"/>
        <pt x="426" y="-195" on="0"/>
        <pt x="448" y="-195" on="1"/>
        <pt x="464" y="-195" on="0"/>
        <pt x="493" y="-184" on="0"/>
        <pt x="503" y="-178" on="1"/>
        <pt x="515" y="-201" on="1"/>
        <pt x="497" y="-216" on="0"/>
        <pt x="454" y="-233" on="0"/>
        <pt x="430" y="-233" on="1"/>
        <pt x="400" y="-233" on="0"/>
        <pt x="349" y="-196" on="0"/>
        <pt x="349" y="-157" on="1"/>
        <pt x="349" y="-120" on="0"/>
        <pt x="407" y="-52" on="0"/>
        <pt x="468" y="-11" on="1"/>
        <pt x="484" y="0" on="1"/>
        <pt x="357" y="0" on="1"/>
        <pt x="367" y="40" on="1"/>
        <pt x="469" y="40" on="1"/>
        <pt x="445" y="238" on="1"/>
        <pt x="206" y="238" on="1"/>
        <pt x="87" y="40" on="1"/>
        <pt x="179" y="40" on="1"/>
        <pt x="169" y="0" on="1"/>
      </contour>
      <contour>
        <pt x="229" y="276" on="1"/>
        <pt x="440" y="276" on="1"/>
        <pt x="406" y="566" on="1"/>
        <pt x="404" y="566" on="1"/>
      </contour>
    </TTGlyph>
    <TTGlyph name="Aring" xMin="-47" yMin="0" xMax="617" yMax="841">
      <contour>
        <pt x="-47" y="0" on="1"/>
        <pt x="-37" y="40" on="1"/>
        <pt x="32" y="40" on="1"/>
        <pt x="407" y="647" on="1"/>
        <pt x="384" y="656" on="0"/>
        <pt x="354" y="696" on="0"/>
        <pt x="354" y="727" on="1"/>
        <pt x="354" y="748" on="0"/>
        <pt x="370" y="788" on="0"/>
        <pt x="400" y="821" on="0"/>
        <pt x="443" y="841" on="0"/>
        <pt x="471" y="841" on="1"/>
        <pt x="507" y="841" on="0"/>
        <pt x="563" y="798" on="0"/>
        <pt x="563" y="755" on="1"/>
        <pt x="563" y="717" on="0"/>
        <pt x="510" y="648" on="0"/>
        <pt x="462" y="642" on="1"/>
        <pt x="538" y="40" on="1"/>
        <pt x="617" y="40" on="1"/>
        <pt x="607" y="0" on="1"/>
        <pt x="357" y="0" on="1"/>
        <pt x="367" y="40" on="1"/>
        <pt x="469" y="40" on="1"/>
        <pt x="445" y="238" on="1"/>
        <pt x="206" y="238" on="1"/>
        <pt x="87" y="40" on="1"/>
        <pt x="179" y="40" on="1"/>
        <pt x="169" y="0" on="1"/>
      </contour>
      <contour>
        <pt x="448" y="671" on="1"/>
        <pt x="479" y="671" on="0"/>
        <pt x="520" y="723" on="0"/>
        <pt x="520" y="758" on="1"/>
        <pt x="520" y="781" on="0"/>
        <pt x="494" y="811" on="0"/>
        <pt x="469" y="811" on="1"/>
        <pt x="438" y="811" on="0"/>
        <pt x="397" y="759" on="0"/>
        <pt x="397" y="724" on="1"/>
        <pt x="397" y="701" on="0"/>
        <pt x="423" y="671" on="0"/>
      </contour>
      <contour>
        <pt x="229" y="276" on="1"/>
        <pt x="440" y="276" on="1"/>
        <pt x="406" y="566" on="1"/>
        <pt x="404" y="566" on="1"/>
      </contour>
    </TTGlyph>
    <TTGlyph name="Aringacute" xMin="-47" yMin="0" xMax="652" yMax="1079">
      <component glyphName="Aring" x="0" y="0" flags="0x204"/>
      <component glyphName="acute" x="334" y="362" flags="0x4"/>
    </TTGlyph>
    <TTGlyph name="Atilde" xMin="-47" yMin="0" xMax="628" yMax="867">
      <component glyphName="A" x="0" y="0" flags="0x204"/>
      <component glyphName="tilde" x="216" y="213" flags="0x4"/>
    </TTGlyph>
    <TTGlyph name="B" xMin="-20" yMin="0" xMax="612" yMax="648">
      <contour>
        <pt x="-20" y="0" on="1"/>
        <pt x="-10" y="40" on="1"/>
        <pt x="99" y="40" on="1"/>
        <pt x="240" y="608" on="1"/>
        <pt x="129" y="608" on="1"/>
        <pt x="139" y="648" on="1"/>
        <pt x="399" y="648" on="1"/>
        <pt x="521" y="648" on="0"/>
        <pt x="612" y="567" on="0"/>
        <pt x="612" y="514" on="1"/>
        <pt x="612" y="493" on="0"/>
        <pt x="597" y="438" on="0"/>
        <pt x="553" y="387" on="0"/>
        <pt x="472" y="346" on="0"/>
        <pt x="407" y="340" on="1"/>
        <pt x="407" y="338" on="1"/>
        <pt x="488" y="322" on="0"/>
        <pt x="563" y="250" on="0"/>
        <pt x="563" y="199" on="1"/>
        <pt x="563" y="165" on="0"/>
        <pt x="540" y="103" on="0"/>
        <pt x="515" y="78" on="1"/>
        <pt x="480" y="43" on="0"/>
        <pt x="347" y="0" on="0"/>
        <pt x="244" y="0" on="1"/>
      </contour>
      <contour>
        <pt x="248" y="360" on="1"/>
        <pt x="339" y="360" on="1"/>
        <pt x="423" y="360" on="0"/>
        <pt x="534" y="443" on="0"/>
        <pt x="534" y="519" on="1"/>
        <pt x="534" y="559" on="0"/>
        <pt x="476" y="608" on="0"/>
        <pt x="401" y="608" on="1"/>
        <pt x="310" y="608" on="1"/>
      </contour>
      <contour>
        <pt x="169" y="40" on="1"/>
        <pt x="251" y="40" on="1"/>
        <pt x="385" y="40" on="0"/>
        <pt x="486" y="137" on="0"/>
        <pt x="486" y="207" on="1"/>
        <pt x="486" y="258" on="0"/>
        <pt x="404" y="321" on="0"/>
        <pt x="326" y="321" on="1"/>
        <pt x="239" y="321" on="1"/>
      </contour>
    </TTGlyph>
    <TTGlyph name="C" xMin="72" yMin="-15" xMax="685" yMax="663">
      <contour>
        <pt x="313" y="-15" on="1"/>
        <pt x="253" y="-15" on="0"/>
        <pt x="162" y="26" on="0"/>
        <pt x="102" y="96" on="0"/>
        <pt x="72" y="190" on="0"/>
        <pt x="72" y="241" on="1"/>
        <pt x="72" y="323" on="0"/>
        <pt x="128" y="476" on="0"/>
        <pt x="223" y="593" on="0"/>
        <pt x="353" y="663" on="0"/>
        <pt x="426" y="663" on="1"/>
        <pt x="483" y="663" on="0"/>
        <pt x="574" y="622" on="0"/>
        <pt x="605" y="580" on="1"/>
        <pt x="644" y="660" on="1"/>
        <pt x="685" y="660" on="1"/>
        <pt x="629" y="428" on="1"/>
        <pt x="594" y="428" on="1"/>
        <pt x="592" y="530" on="0"/>
        <pt x="497" y="619" on="0"/>
        <pt x="424" y="619" on="1"/>
        <pt x="363" y="619" on="0"/>
        <pt x="260" y="556" on="0"/>
        <pt x="186" y="452" on="0"/>
        <pt x="145" y="316" on="0"/>
        <pt x="145" y="244" on="1"/>
        <pt x="145" y="143" on="0"/>
        <pt x="241" y="31" on="0"/>
        <pt x="327" y="31" on="1"/>
        <pt x="373" y="31" on="0"/>
        <pt x="446" y="68" on="0"/>
        <pt x="503" y="127" on="0"/>
        <pt x="547" y="203" on="0"/>
        <pt x="565" y="241" on="1"/>
        <pt x="603" y="225" on="1"/>
        <pt x="582" y="177" on="0"/>
        <pt x="528" y="89" on="0"/>
        <pt x="458" y="24" on="0"/>
        <pt x="369" y="-15" on="0"/>
      </contour>
    </TTGlyph>
    <TTGlyph name="Cacute" xMin="72" yMin="-15" xMax="685" yMax="930">
      <component glyphName="C" x="0" y="0" flags="0x204"/>
      <component glyphName="acute" x="292" y="213" flags="0x4"/>
    </TTGlyph>
    <TTGlyph name="Ccaron" xMin="72" yMin="-15" xMax="685" yMax="925">
      <component glyphName="C" x="0" y="0" flags="0x204"/>
      <component glyphName="caron" x="218" y="213" flags="0x4"/>
    </TTGlyph>
    <TTGlyph name="Ccedilla" xMin="72" yMin="-233" xMax="685" yMax="663">
      <contour>
        <pt x="260" y="-233" on="1"/>
        <pt x="232" y="-233" on="0"/>
        <pt x="178" y="-213" on="0"/>
        <pt x="155" y="-192" on="1"/>
        <pt x="176" y="-165" on="1"/>
        <pt x="194" y="-180" on="0"/>
        <pt x="233" y="-199" on="0"/>
        <pt x="258" y="-199" on="1"/>
        <pt x="281" y="-199" on="0"/>
        <pt x="318" y="-172" on="0"/>
        <pt x="318" y="-146" on="1"/>
        <pt x="318" y="-129" on="0"/>
        <pt x="296" y="-110" on="0"/>
        <pt x="265" y="-103" on="0"/>
        <pt x="231" y="-104" on="0"/>
        <pt x="219" y="-105" on="1"/>
        <pt x="210" y="-87" on="1"/>
        <pt x="300" y="-15" on="1"/>
        <pt x="243" y="-13" on="0"/>
        <pt x="157" y="30" on="0"/>
        <pt x="101" y="100" on="0"/>
        <pt x="72" y="191" on="0"/>
        <pt x="72" y="241" on="1"/>
        <pt x="72" y="323" on="0"/>
        <pt x="128" y="476" on="0"/>
        <pt x="223" y="593" on="0"/>
        <pt x="353" y="663" on="0"/>
        <pt x="426" y="663" on="1"/>
        <pt x="483" y="663" on="0"/>
        <pt x="574" y="622" on="0"/>
        <pt x="605" y="580" on="1"/>
        <pt x="644" y="660" on="1"/>
        <pt x="685" y="660" on="1"/>
        <pt x="629" y="428" on="1"/>
        <pt x="594" y="428" on="1"/>
        <pt x="592" y="530" on="0"/>
        <pt x="497" y="619" on="0"/>
        <pt x="424" y="619" on="1"/>
        <pt x="363" y="619" on="0"/>
        <pt x="260" y="556" on="0"/>
        <pt x="186" y="452" on="0"/>
        <pt x="145" y="316" on="0"/>
        <pt x="145" y="244" on="1"/>
        <pt x="145" y="143" on="0"/>
        <pt x="241" y="31" on="0"/>
        <pt x="327" y="31" on="1"/>
        <pt x="373" y="31" on="0"/>
        <pt x="446" y="68" on="0"/>
        <pt x="503" y="127" on="0"/>
        <pt x="547" y="203" on="0"/>
        <pt x="565" y="241" on="1"/>
        <pt x="603" y="225" on="1"/>
        <pt x="584" y="181" on="0"/>
        <pt x="536" y="100" on="0"/>
        <pt x="474" y="36" on="0"/>
        <pt x="397" y="-7" on="0"/>
        <pt x="349" y="-13" on="1"/>
        <pt x="277" y="-69" on="1"/>
        <pt x="277" y="-72" on="1"/>
        <pt x="318" y="-76" on="0"/>
        <pt x="366" y="-113" on="0"/>
        <pt x="366" y="-143" on="1"/>
        <pt x="366" y="-184" on="0"/>
        <pt x="301" y="-233" on="0"/>
      </contour>
    </TTGlyph>
    <TTGlyph name="Cdotaccent" xMin="72" yMin="-15" xMax="685" yMax="836">
      <component glyphName="C" x="0" y="0" flags="0x204"/>
      <component glyphName="dotaccent" x="283" y="213" flags="0x4"/>
    </TTGlyph>
    <TTGlyph name="D" xMin="-20" yMin="0" xMax="665" yMax="648">
      <contour>
        <pt x="-20" y="0" on="1"/>
        <pt x="-10" y="40" on="1"/>
        <pt x="99" y="40" on="1"/>
        <pt x="240" y="608" on="1"/>
        <pt x="130" y="608" on="1"/>
        <pt x="140" y="648" on="1"/>
        <pt x="374" y="648" on="1"/>
        <pt x="450" y="648" on="0"/>
        <pt x="561" y="611" on="0"/>
        <pt x="632" y="546" on="0"/>
        <pt x="665" y="455" on="0"/>
        <pt x="665" y="401" on="1"/>
        <pt x="665" y="323" on="0"/>
        <pt x="604" y="171" on="0"/>
        <pt x="544" y="113" on="1"/>
        <pt x="493" y="62" on="0"/>
        <pt x="343" y="0" on="0"/>
        <pt x="218" y="0" on="1"/>
      </contour>
      <contour>
        <pt x="168" y="40" on="1"/>
        <pt x="208" y="40" on="1"/>
        <pt x="295" y="40" on="0"/>
        <pt x="428" y="79" on="0"/>
        <pt x="476" y="127" on="1"/>
        <pt x="531" y="182" on="0"/>
        <pt x="591" y="335" on="0"/>
        <pt x="591" y="419" on="1"/>
        <pt x="591" y="509" on="0"/>
        <pt x="484" y="608" on="0"/>
        <pt x="365" y="608" on="1"/>
        <pt x="310" y="608" on="1"/>
      </contour>
    </TTGlyph>
    <TTGlyph name="Dcaron" xMin="-20" yMin="0" xMax="665" yMax="925">
      <component glyphName="D" x="0" y="0" flags="0x204"/>
      <component glyphName="caron" x="218" y="213" flags="0x4"/>
    </TTGlyph>
    <TTGlyph name="Dcroat" xMin="-20" yMin="0" xMax="665" yMax="648">
      <component glyphName="Eth" x="0" y="0" flags="0x204"/>
    </TTGlyph>
    <TTGlyph name="E" xMin="-20" yMin="0" xMax="667" yMax="648">
      <contour>
        <pt x="-20" y="0" on="1"/>
        <pt x="-10" y="40" on="1"/>
        <pt x="99" y="40" on="1"/>
        <pt x="240" y="608" on="1"/>
        <pt x="129" y="608" on="1"/>
        <pt x="139" y="648" on="1"/>
        <pt x="667" y="648" on="1"/>
        <pt x="618" y="452" on="1"/>
        <pt x="584" y="452" on="1"/>
        <pt x="590" y="507" on="0"/>
        <pt x="594" y="570" on="0"/>
        <pt x="585" y="601" on="0"/>
        <pt x="563" y="608" on="0"/>
        <pt x="542" y="608" on="1"/>
        <pt x="310" y="608" on="1"/>
        <pt x="246" y="351" on="1"/>
        <pt x="358" y="351" on="1"/>
        <pt x="394" y="351" on="0"/>
        <pt x="422" y="384" on="0"/>
        <pt x="447" y="450" on="1"/>
        <pt x="478" y="450" on="1"/>
        <pt x="419" y="212" on="1"/>
        <pt x="388" y="212" on="1"/>
        <pt x="392" y="247" on="0"/>
        <pt x="396" y="289" on="0"/>
        <pt x="389" y="309" on="0"/>
        <pt x="370" y="315" on="0"/>
        <pt x="352" y="315" on="1"/>
        <pt x="238" y="315" on="1"/>
        <pt x="169" y="40" on="1"/>
        <pt x="392" y="40" on="1"/>
        <pt x="417" y="40" on="0"/>
        <pt x="451" y="51" on="0"/>
        <pt x="480" y="88" on="0"/>
        <pt x="512" y="158" on="0"/>
        <pt x="534" y="216" on="1"/>
        <pt x="568" y="216" on="1"/>
        <pt x="514" y="0" on="1"/>
      </contour>
    </TTGlyph>
    <TTGlyph name="Eacute" xMin="-20" yMin="0" xMax="667" yMax="930">
      <component glyphName="E" x="0" y="0" flags="0x204"/>
      <component glyphName="acute" x="301" y="213" flags="0x4"/>
    </TTGlyph>
    <TTGlyph name="Ebreve" xMin="-20" yMin="0" xMax="667" yMax="886">
      <component glyphName="E" x="0" y="0" flags="0x204"/>
      <component glyphName="breve" x="217" y="213" flags="0x4"/>
    </TTGlyph>
    <TTGlyph name="Ecaron" xMin="-20" yMin="0" xMax="667" yMax="925">
      <component glyphName="E" x="0" y="0" flags="0x204"/>
      <component glyphName="caron" x="228" y="213" flags="0x4"/>
    </TTGlyph>
    <TTGlyph name="Ecircumflex" xMin="-20" yMin="0" xMax="667" yMax="916">
      <component glyphName="E" x="0" y="0" flags="0x204"/>
      <component glyphName="circumflex" x="224" y="213" flags="0x4"/>
    </TTGlyph>
    <TTGlyph name="Edieresis" xMin="-20" yMin="0" xMax="667" yMax="859">
      <component glyphName="E" x="0" y="0" flags="0x204"/>
      <component glyphName="dieresis" x="215" y="213" flags="0x4"/>
    </TTGlyph>
    <TTGlyph name="Edotaccent" xMin="-20" yMin="0" xMax="667" yMax="836">
      <component glyphName="E" x="0" y="0" flags="0x204"/>
      <component glyphName="dotaccent" x="292" y="213" flags="0x4"/>
    </TTGlyph>
    <TTGlyph name="Egrave" xMin="-20" yMin="0" xMax="667" yMax="930">
      <component glyphName="E" x="0" y="0" flags="0x204"/>
      <component glyphName="grave" x="221" y="213" flags="0x4"/>
    </TTGlyph>
    <TTGlyph name="Emacron" xMin="-20" yMin="0" xMax="667" yMax="808">
      <component glyphName="E" x="0" y="0" flags="0x204"/>
      <component glyphName="macron" x="226" y="213" flags="0x4"/>
    </TTGlyph>
    <TTGlyph name="Eogonek" xMin="-20" yMin="-233" xMax="667" yMax="648">
      <contour>
        <pt x="-20" y="0" on="1"/>
        <pt x="-10" y="40" on="1"/>
        <pt x="99" y="40" on="1"/>
        <pt x="240" y="608" on="1"/>
        <pt x="129" y="608" on="1"/>
        <pt x="139" y="648" on="1"/>
        <pt x="667" y="648" on="1"/>
        <pt x="618" y="452" on="1"/>
        <pt x="584" y="452" on="1"/>
        <pt x="590" y="507" on="0"/>
        <pt x="594" y="570" on="0"/>
        <pt x="585" y="601" on="0"/>
        <pt x="563" y="608" on="0"/>
        <pt x="542" y="608" on="1"/>
        <pt x="310" y="608" on="1"/>
        <pt x="246" y="351" on="1"/>
        <pt x="358" y="351" on="1"/>
        <pt x="394" y="351" on="0"/>
        <pt x="422" y="384" on="0"/>
        <pt x="447" y="450" on="1"/>
        <pt x="478" y="450" on="1"/>
        <pt x="419" y="212" on="1"/>
        <pt x="388" y="212" on="1"/>
        <pt x="392" y="247" on="0"/>
        <pt x="396" y="289" on="0"/>
        <pt x="389" y="309" on="0"/>
        <pt x="370" y="315" on="0"/>
        <pt x="352" y="315" on="1"/>
        <pt x="238" y="315" on="1"/>
        <pt x="169" y="40" on="1"/>
        <pt x="392" y="40" on="1"/>
        <pt x="417" y="40" on="0"/>
        <pt x="451" y="51" on="0"/>
        <pt x="480" y="88" on="0"/>
        <pt x="512" y="158" on="0"/>
        <pt x="534" y="216" on="1"/>
        <pt x="568" y="216" on="1"/>
        <pt x="514" y="0" on="1"/>
        <pt x="485" y="0" on="1"/>
        <pt x="465" y="-16" on="1"/>
        <pt x="405" y="-63" on="0"/>
        <pt x="364" y="-123" on="0"/>
        <pt x="364" y="-150" on="1"/>
        <pt x="364" y="-170" on="0"/>
        <pt x="388" y="-195" on="0"/>
        <pt x="410" y="-195" on="1"/>
        <pt x="426" y="-195" on="0"/>
        <pt x="455" y="-184" on="0"/>
        <pt x="465" y="-178" on="1"/>
        <pt x="477" y="-201" on="1"/>
        <pt x="459" y="-216" on="0"/>
        <pt x="416" y="-233" on="0"/>
        <pt x="392" y="-233" on="1"/>
        <pt x="362" y="-233" on="0"/>
        <pt x="311" y="-196" on="0"/>
        <pt x="311" y="-157" on="1"/>
        <pt x="311" y="-120" on="0"/>
        <pt x="369" y="-52" on="0"/>
        <pt x="430" y="-11" on="1"/>
        <pt x="446" y="0" on="1"/>
      </contour>
    </TTGlyph>
    <TTGlyph name="Eth" xMin="-20" yMin="0" xMax="665" yMax="648">
      <contour>
        <pt x="-20" y="0" on="1"/>
        <pt x="-10" y="40" on="1"/>
        <pt x="99" y="40" on="1"/>
        <pt x="169" y="320" on="1"/>
        <pt x="59" y="320" on="1"/>
        <pt x="69" y="360" on="1"/>
        <pt x="178" y="360" on="1"/>
        <pt x="240" y="608" on="1"/>
        <pt x="130" y="608" on="1"/>
        <pt x="140" y="648" on="1"/>
        <pt x="374" y="648" on="1"/>
        <pt x="450" y="648" on="0"/>
        <pt x="561" y="611" on="0"/>
        <pt x="632" y="546" on="0"/>
        <pt x="665" y="455" on="0"/>
        <pt x="665" y="401" on="1"/>
        <pt x="665" y="323" on="0"/>
        <pt x="604" y="171" on="0"/>
        <pt x="544" y="113" on="1"/>
        <pt x="493" y="62" on="0"/>
        <pt x="343" y="0" on="0"/>
        <pt x="218" y="0" on="1"/>
      </contour>
      <contour>
        <pt x="168" y="40" on="1"/>
        <pt x="208" y="40" on="1"/>
        <pt x="295" y="40" on="0"/>
        <pt x="428" y="79" on="0"/>
        <pt x="476" y="127" on="1"/>
        <pt x="531" y="182" on="0"/>
        <pt x="591" y="335" on="0"/>
        <pt x="591" y="419" on="1"/>
        <pt x="591" y="509" on="0"/>
        <pt x="484" y="608" on="0"/>
        <pt x="365" y="608" on="1"/>
        <pt x="310" y="608" on="1"/>
        <pt x="248" y="360" on="1"/>
        <pt x="391" y="360" on="1"/>
        <pt x="381" y="320" on="1"/>
        <pt x="238" y="320" on="1"/>
      </contour>
    </TTGlyph>
    <TTGlyph name="Euro" xMin="45" yMin="-16" xMax="643" yMax="638">
      <contour>
        <pt x="45" y="224" on="1"/>
        <pt x="54" y="263" on="1"/>
        <pt x="140" y="263" on="1"/>
        <pt x="142" y="285" on="0"/>
        <pt x="150" y="330" on="0"/>
        <pt x="155" y="351" on="1"/>
        <pt x="75" y="351" on="1"/>
        <pt x="84" y="390" on="1"/>
        <pt x="168" y="390" on="1"/>
        <pt x="187" y="443" on="0"/>
        <pt x="248" y="534" on="0"/>
        <pt x="325" y="600" on="0"/>
        <pt x="418" y="638" on="0"/>
        <pt x="468" y="638" on="1"/>
        <pt x="507" y="638" on="0"/>
        <pt x="572" y="615" on="0"/>
        <pt x="617" y="577" on="0"/>
        <pt x="643" y="528" on="0"/>
        <pt x="643" y="502" on="1"/>
        <pt x="643" y="469" on="0"/>
        <pt x="609" y="425" on="0"/>
        <pt x="582" y="425" on="1"/>
        <pt x="560" y="425" on="0"/>
        <pt x="534" y="452" on="0"/>
        <pt x="534" y="472" on="1"/>
        <pt x="534" y="491" on="0"/>
        <pt x="557" y="527" on="0"/>
        <pt x="581" y="538" on="1"/>
        <pt x="561" y="572" on="0"/>
        <pt x="494" y="596" on="0"/>
        <pt x="468" y="596" on="1"/>
        <pt x="424" y="596" on="0"/>
        <pt x="350" y="563" on="0"/>
        <pt x="291" y="507" on="0"/>
        <pt x="247" y="431" on="0"/>
        <pt x="233" y="390" on="1"/>
        <pt x="442" y="390" on="1"/>
        <pt x="433" y="351" on="1"/>
        <pt x="222" y="351" on="1"/>
        <pt x="216" y="329" on="0"/>
        <pt x="209" y="285" on="0"/>
        <pt x="208" y="263" on="1"/>
        <pt x="412" y="263" on="1"/>
        <pt x="403" y="224" on="1"/>
        <pt x="207" y="224" on="1"/>
        <pt x="210" y="137" on="0"/>
        <pt x="292" y="36" on="0"/>
        <pt x="364" y="36" on="1"/>
        <pt x="420" y="36" on="0"/>
        <pt x="513" y="113" on="0"/>
        <pt x="540" y="180" on="1"/>
        <pt x="577" y="169" on="1"/>
        <pt x="563" y="131" on="0"/>
        <pt x="519" y="63" on="0"/>
        <pt x="461" y="13" on="0"/>
        <pt x="389" y="-16" on="0"/>
        <pt x="348" y="-16" on="1"/>
        <pt x="296" y="-16" on="0"/>
        <pt x="217" y="22" on="0"/>
        <pt x="165" y="86" on="0"/>
        <pt x="139" y="174" on="0"/>
        <pt x="139" y="224" on="1"/>
      </contour>
    </TTGlyph>
    <TTGlyph name="Euro.osf" xMin="32" yMin="-16" xMax="629" yMax="556">
      <contour>
        <pt x="32" y="189" on="1"/>
        <pt x="41" y="228" on="1"/>
        <pt x="128" y="228" on="1"/>
        <pt x="129" y="247" on="0"/>
        <pt x="136" y="286" on="0"/>
        <pt x="140" y="304" on="1"/>
        <pt x="60" y="304" on="1"/>
        <pt x="69" y="343" on="1"/>
        <pt x="154" y="343" on="1"/>
        <pt x="173" y="389" on="0"/>
        <pt x="234" y="468" on="0"/>
        <pt x="310" y="524" on="0"/>
        <pt x="400" y="556" on="0"/>
        <pt x="448" y="556" on="1"/>
        <pt x="488" y="556" on="0"/>
        <pt x="555" y="534" on="0"/>
        <pt x="603" y="497" on="0"/>
        <pt x="629" y="449" on="0"/>
        <pt x="629" y="424" on="1"/>
        <pt x="629" y="391" on="0"/>
        <pt x="595" y="347" on="0"/>
        <pt x="568" y="347" on="1"/>
        <pt x="546" y="347" on="0"/>
        <pt x="520" y="374" on="0"/>
        <pt x="520" y="394" on="1"/>
        <pt x="520" y="412" on="0"/>
        <pt x="543" y="447" on="0"/>
        <pt x="567" y="458" on="1"/>
        <pt x="557" y="474" on="0"/>
        <pt x="526" y="496" on="0"/>
        <pt x="493" y="509" on="0"/>
        <pt x="461" y="514" on="0"/>
        <pt x="449" y="514" on="1"/>
        <pt x="407" y="514" on="0"/>
        <pt x="336" y="487" on="0"/>
        <pt x="279" y="440" on="0"/>
        <pt x="235" y="378" on="0"/>
        <pt x="221" y="343" on="1"/>
        <pt x="429" y="343" on="1"/>
        <pt x="420" y="304" on="1"/>
        <pt x="208" y="304" on="1"/>
        <pt x="203" y="285" on="0"/>
        <pt x="196" y="247" on="0"/>
        <pt x="195" y="228" on="1"/>
        <pt x="401" y="228" on="1"/>
        <pt x="392" y="189" on="1"/>
        <pt x="196" y="189" on="1"/>
        <pt x="202" y="115" on="0"/>
        <pt x="286" y="36" on="0"/>
        <pt x="355" y="36" on="1"/>
        <pt x="418" y="36" on="0"/>
        <pt x="510" y="110" on="0"/>
        <pt x="536" y="173" on="1"/>
        <pt x="573" y="162" on="1"/>
        <pt x="560" y="126" on="0"/>
        <pt x="516" y="61" on="0"/>
        <pt x="458" y="12" on="0"/>
        <pt x="385" y="-16" on="0"/>
        <pt x="342" y="-16" on="1"/>
        <pt x="291" y="-16" on="0"/>
        <pt x="213" y="17" on="0"/>
        <pt x="160" y="73" on="0"/>
        <pt x="130" y="148" on="0"/>
        <pt x="128" y="189" on="1"/>
      </contour>
    </TTGlyph>
    <TTGlyph name="Euro.tab" xMin="19" yMin="-16" xMax="567" yMax="638">
      <contour>
        <pt x="19" y="224" on="1"/>
        <pt x="28" y="263" on="1"/>
        <pt x="103" y="263" on="1"/>
        <pt x="104" y="285" on="0"/>
        <pt x="112" y="330" on="0"/>
        <pt x="117" y="351" on="1"/>
        <pt x="49" y="351" on="1"/>
        <pt x="58" y="390" on="1"/>
        <pt x="129" y="390" on="1"/>
        <pt x="147" y="442" on="0"/>
        <pt x="204" y="533" on="0"/>
        <pt x="276" y="600" on="0"/>
        <pt x="362" y="638" on="0"/>
        <pt x="409" y="638" on="1"/>
        <pt x="444" y="638" on="0"/>
        <pt x="503" y="615" on="0"/>
        <pt x="544" y="577" on="0"/>
        <pt x="567" y="528" on="0"/>
        <pt x="567" y="502" on="1"/>
        <pt x="567" y="469" on="0"/>
        <pt x="533" y="425" on="0"/>
        <pt x="506" y="425" on="1"/>
        <pt x="484" y="425" on="0"/>
        <pt x="458" y="452" on="0"/>
        <pt x="458" y="472" on="1"/>
        <pt x="458" y="491" on="0"/>
        <pt x="481" y="527" on="0"/>
        <pt x="505" y="538" on="1"/>
        <pt x="487" y="572" on="0"/>
        <pt x="429" y="596" on="0"/>
        <pt x="407" y="596" on="1"/>
        <pt x="368" y="596" on="0"/>
        <pt x="301" y="563" on="0"/>
        <pt x="248" y="507" on="0"/>
        <pt x="207" y="431" on="0"/>
        <pt x="194" y="390" on="1"/>
        <pt x="380" y="390" on="1"/>
        <pt x="371" y="351" on="1"/>
        <pt x="183" y="351" on="1"/>
        <pt x="178" y="329" on="0"/>
        <pt x="171" y="285" on="0"/>
        <pt x="170" y="263" on="1"/>
        <pt x="350" y="263" on="1"/>
        <pt x="341" y="224" on="1"/>
        <pt x="169" y="224" on="1"/>
        <pt x="171" y="136" on="0"/>
        <pt x="245" y="36" on="0"/>
        <pt x="311" y="36" on="1"/>
        <pt x="362" y="36" on="0"/>
        <pt x="440" y="103" on="0"/>
        <pt x="464" y="162" on="1"/>
        <pt x="501" y="151" on="1"/>
        <pt x="476" y="82" on="0"/>
        <pt x="372" y="-16" on="0"/>
        <pt x="295" y="-16" on="1"/>
        <pt x="247" y="-16" on="0"/>
        <pt x="174" y="21" on="0"/>
        <pt x="126" y="85" on="0"/>
        <pt x="101" y="173" on="0"/>
        <pt x="101" y="224" on="1"/>
      </contour>
    </TTGlyph>
    <TTGlyph name="F" xMin="-20" yMin="0" xMax="679" yMax="648">
      <contour>
        <pt x="-20" y="0" on="1"/>
        <pt x="-10" y="40" on="1"/>
        <pt x="99" y="40" on="1"/>
        <pt x="240" y="608" on="1"/>
        <pt x="129" y="608" on="1"/>
        <pt x="139" y="648" on="1"/>
        <pt x="679" y="648" on="1"/>
        <pt x="629" y="448" on="1"/>
        <pt x="595" y="448" on="1"/>
        <pt x="600" y="504" on="0"/>
        <pt x="602" y="569" on="0"/>
        <pt x="593" y="600" on="0"/>
        <pt x="570" y="608" on="0"/>
        <pt x="551" y="608" on="1"/>
        <pt x="310" y="608" on="1"/>
        <pt x="243" y="339" on="1"/>
        <pt x="349" y="339" on="1"/>
        <pt x="368" y="339" on="0"/>
        <pt x="392" y="345" on="0"/>
        <pt x="411" y="366" on="0"/>
        <pt x="430" y="407" on="0"/>
        <pt x="443" y="441" on="1"/>
        <pt x="474" y="441" on="1"/>
        <pt x="413" y="195" on="1"/>
        <pt x="382" y="195" on="1"/>
        <pt x="387" y="232" on="0"/>
        <pt x="391" y="276" on="0"/>
        <pt x="384" y="297" on="0"/>
        <pt x="365" y="303" on="0"/>
        <pt x="348" y="303" on="1"/>
        <pt x="235" y="303" on="1"/>
        <pt x="169" y="40" on="1"/>
        <pt x="290" y="40" on="1"/>
        <pt x="280" y="0" on="1"/>
      </contour>
    </TTGlyph>
    <TTGlyph name="G" xMin="72" yMin="-16" xMax="697" yMax="663">
      <contour>
        <pt x="299" y="-16" on="1"/>
        <pt x="243" y="-16" on="0"/>
        <pt x="158" y="26" on="0"/>
        <pt x="101" y="96" on="0"/>
        <pt x="72" y="190" on="0"/>
        <pt x="72" y="241" on="1"/>
        <pt x="72" y="324" on="0"/>
        <pt x="127" y="477" on="0"/>
        <pt x="222" y="593" on="0"/>
        <pt x="352" y="663" on="0"/>
        <pt x="426" y="663" on="1"/>
        <pt x="483" y="663" on="0"/>
        <pt x="574" y="622" on="0"/>
        <pt x="605" y="580" on="1"/>
        <pt x="644" y="660" on="1"/>
        <pt x="685" y="660" on="1"/>
        <pt x="629" y="428" on="1"/>
        <pt x="594" y="428" on="1"/>
        <pt x="592" y="530" on="0"/>
        <pt x="497" y="619" on="0"/>
        <pt x="424" y="619" on="1"/>
        <pt x="363" y="619" on="0"/>
        <pt x="260" y="557" on="0"/>
        <pt x="186" y="451" on="0"/>
        <pt x="145" y="309" on="0"/>
        <pt x="145" y="230" on="1"/>
        <pt x="145" y="140" on="0"/>
        <pt x="231" y="31" on="0"/>
        <pt x="312" y="31" on="1"/>
        <pt x="354" y="31" on="0"/>
        <pt x="421" y="66" on="0"/>
        <pt x="472" y="125" on="0"/>
        <pt x="508" y="202" on="0"/>
        <pt x="519" y="245" on="1"/>
        <pt x="526" y="273" on="1"/>
        <pt x="403" y="273" on="1"/>
        <pt x="415" y="313" on="1"/>
        <pt x="697" y="313" on="1"/>
        <pt x="687" y="273" on="1"/>
        <pt x="596" y="273" on="1"/>
        <pt x="526" y="-7" on="1"/>
        <pt x="490" y="-7" on="1"/>
        <pt x="491" y="89" on="1"/>
        <pt x="451" y="36" on="0"/>
        <pt x="355" y="-16" on="0"/>
      </contour>
    </TTGlyph>
    <TTGlyph name="Gbreve" xMin="72" yMin="-16" xMax="697" yMax="886">
      <component glyphName="G" x="0" y="0" flags="0x204"/>
      <component glyphName="breve" x="197" y="213" flags="0x4"/>
    </TTGlyph>
    <TTGlyph name="Gdotaccent" xMin="72" yMin="-16" xMax="697" yMax="836">
      <component glyphName="G" x="0" y="0" flags="0x204"/>
      <component glyphName="dotaccent" x="272" y="213" flags="0x4"/>
    </TTGlyph>
    <TTGlyph name="H" xMin="-20" yMin="0" xMax="817" yMax="648">
      <contour>
        <pt x="-20" y="0" on="1"/>
        <pt x="-10" y="40" on="1"/>
        <pt x="99" y="40" on="1"/>
        <pt x="240" y="608" on="1"/>
        <pt x="129" y="608" on="1"/>
        <pt x="139" y="648" on="1"/>
        <pt x="416" y="648" on="1"/>
        <pt x="406" y="608" on="1"/>
        <pt x="310" y="608" on="1"/>
        <pt x="247" y="354" on="1"/>
        <pt x="565" y="354" on="1"/>
        <pt x="628" y="608" on="1"/>
        <pt x="530" y="608" on="1"/>
        <pt x="540" y="648" on="1"/>
        <pt x="817" y="648" on="1"/>
        <pt x="807" y="608" on="1"/>
        <pt x="698" y="608" on="1"/>
        <pt x="557" y="40" on="1"/>
        <pt x="668" y="40" on="1"/>
        <pt x="658" y="0" on="1"/>
        <pt x="381" y="0" on="1"/>
        <pt x="391" y="40" on="1"/>
        <pt x="487" y="40" on="1"/>
        <pt x="556" y="316" on="1"/>
        <pt x="238" y="316" on="1"/>
        <pt x="169" y="40" on="1"/>
        <pt x="267" y="40" on="1"/>
        <pt x="257" y="0" on="1"/>
      </contour>
    </TTGlyph>
    <TTGlyph name="Hbar" xMin="-20" yMin="0" xMax="817" yMax="648">
      <contour>
        <pt x="-20" y="0" on="1"/>
        <pt x="-10" y="40" on="1"/>
        <pt x="99" y="40" on="1"/>
        <pt x="203" y="458" on="1"/>
        <pt x="93" y="458" on="1"/>
        <pt x="102" y="494" on="1"/>
        <pt x="212" y="494" on="1"/>
        <pt x="240" y="608" on="1"/>
        <pt x="129" y="608" on="1"/>
        <pt x="139" y="648" on="1"/>
        <pt x="416" y="648" on="1"/>
        <pt x="406" y="608" on="1"/>
        <pt x="310" y="608" on="1"/>
        <pt x="282" y="494" on="1"/>
        <pt x="600" y="494" on="1"/>
        <pt x="628" y="608" on="1"/>
        <pt x="530" y="608" on="1"/>
        <pt x="540" y="648" on="1"/>
        <pt x="817" y="648" on="1"/>
        <pt x="807" y="608" on="1"/>
        <pt x="698" y="608" on="1"/>
        <pt x="670" y="494" on="1"/>
        <pt x="778" y="494" on="1"/>
        <pt x="769" y="458" on="1"/>
        <pt x="661" y="458" on="1"/>
        <pt x="557" y="40" on="1"/>
        <pt x="668" y="40" on="1"/>
        <pt x="658" y="0" on="1"/>
        <pt x="381" y="0" on="1"/>
        <pt x="391" y="40" on="1"/>
        <pt x="487" y="40" on="1"/>
        <pt x="553" y="306" on="1"/>
        <pt x="235" y="306" on="1"/>
        <pt x="169" y="40" on="1"/>
        <pt x="267" y="40" on="1"/>
        <pt x="257" y="0" on="1"/>
      </contour>
      <contour>
        <pt x="244" y="344" on="1"/>
        <pt x="562" y="344" on="1"/>
        <pt x="591" y="458" on="1"/>
        <pt x="273" y="458" on="1"/>
      </contour>
    </TTGlyph>
    <TTGlyph name="I" xMin="-16" yMin="0" xMax="433" yMax="648">
      <contour>
        <pt x="-16" y="0" on="1"/>
        <pt x="-6" y="40" on="1"/>
        <pt x="103" y="40" on="1"/>
        <pt x="244" y="608" on="1"/>
        <pt x="133" y="608" on="1"/>
        <pt x="143" y="648" on="1"/>
        <pt x="433" y="648" on="1"/>
        <pt x="423" y="608" on="1"/>
        <pt x="314" y="608" on="1"/>
        <pt x="173" y="40" on="1"/>
        <pt x="284" y="40" on="1"/>
        <pt x="274" y="0" on="1"/>
      </contour>
    </TTGlyph>
    <TTGlyph name="Iacute" xMin="-16" yMin="0" xMax="468" yMax="930">
      <component glyphName="I" x="0" y="0" flags="0x204"/>
      <component glyphName="acute" x="150" y="213" flags="0x4"/>
    </TTGlyph>
    <TTGlyph name="Ibreve" xMin="-16" yMin="0" xMax="464" yMax="886">
      <component glyphName="I" x="0" y="0" flags="0x204"/>
      <component glyphName="breve" x="66" y="213" flags="0x4"/>
    </TTGlyph>
    <TTGlyph name="Icircumflex" xMin="-16" yMin="0" xMax="433" yMax="916">
      <component glyphName="I" x="0" y="0" flags="0x204"/>
      <component glyphName="circumflex" x="73" y="213" flags="0x4"/>
    </TTGlyph>
    <TTGlyph name="Idieresis" xMin="-16" yMin="0" xMax="443" yMax="859">
      <component glyphName="I" x="0" y="0" flags="0x204"/>
      <component glyphName="dieresis" x="64" y="213" flags="0x4"/>
    </TTGlyph>
    <TTGlyph name="Idotaccent" xMin="-16" yMin="0" xMax="433" yMax="836">
      <component glyphName="I" x="0" y="0" flags="0x204"/>
      <component glyphName="dotaccent" x="141" y="213" flags="0x4"/>
    </TTGlyph>
    <TTGlyph name="Igrave" xMin="-16" yMin="0" xMax="433" yMax="930">
      <component glyphName="I" x="0" y="0" flags="0x204"/>
      <component glyphName="grave" x="70" y="213" flags="0x4"/>
    </TTGlyph>
    <TTGlyph name="Imacron" xMin="-16" yMin="0" xMax="454" yMax="808">
      <component glyphName="I" x="0" y="0" flags="0x204"/>
      <component glyphName="macron" x="75" y="213" flags="0x4"/>
    </TTGlyph>
    <TTGlyph name="Iogonek" xMin="-16" yMin="-233" xMax="433" yMax="648">
      <contour>
        <pt x="-16" y="0" on="1"/>
        <pt x="-6" y="40" on="1"/>
        <pt x="103" y="40" on="1"/>
        <pt x="244" y="608" on="1"/>
        <pt x="133" y="608" on="1"/>
        <pt x="143" y="648" on="1"/>
        <pt x="433" y="648" on="1"/>
        <pt x="423" y="608" on="1"/>
        <pt x="314" y="608" on="1"/>
        <pt x="173" y="40" on="1"/>
        <pt x="284" y="40" on="1"/>
        <pt x="274" y="0" on="1"/>
        <pt x="171" y="0" on="1"/>
        <pt x="151" y="-16" on="1"/>
        <pt x="91" y="-63" on="0"/>
        <pt x="50" y="-123" on="0"/>
        <pt x="50" y="-150" on="1"/>
        <pt x="50" y="-170" on="0"/>
        <pt x="74" y="-195" on="0"/>
        <pt x="96" y="-195" on="1"/>
        <pt x="112" y="-195" on="0"/>
        <pt x="141" y="-184" on="0"/>
        <pt x="151" y="-178" on="1"/>
        <pt x="163" y="-201" on="1"/>
        <pt x="145" y="-216" on="0"/>
        <pt x="102" y="-233" on="0"/>
        <pt x="78" y="-233" on="1"/>
        <pt x="48" y="-233" on="0"/>
        <pt x="-3" y="-196" on="0"/>
        <pt x="-3" y="-157" on="1"/>
        <pt x="-3" y="-120" on="0"/>
        <pt x="55" y="-52" on="0"/>
        <pt x="116" y="-11" on="1"/>
        <pt x="132" y="0" on="1"/>
      </contour>
    </TTGlyph>
    <TTGlyph name="J" xMin="6" yMin="-16" xMax="590" yMax="648">
      <contour>
        <pt x="169" y="-16" on="1"/>
        <pt x="130" y="-16" on="0"/>
        <pt x="69" y="7" on="0"/>
        <pt x="28" y="44" on="0"/>
        <pt x="6" y="91" on="0"/>
        <pt x="6" y="116" on="1"/>
        <pt x="6" y="150" on="0"/>
        <pt x="43" y="198" on="0"/>
        <pt x="76" y="198" on="1"/>
        <pt x="101" y="198" on="0"/>
        <pt x="126" y="168" on="0"/>
        <pt x="126" y="148" on="1"/>
        <pt x="126" y="126" on="0"/>
        <pt x="95" y="90" on="0"/>
        <pt x="64" y="85" on="1"/>
        <pt x="71" y="55" on="0"/>
        <pt x="131" y="24" on="0"/>
        <pt x="167" y="24" on="1"/>
        <pt x="223" y="24" on="0"/>
        <pt x="289" y="100" on="0"/>
        <pt x="307" y="172" on="1"/>
        <pt x="415" y="608" on="1"/>
        <pt x="312" y="608" on="1"/>
        <pt x="322" y="648" on="1"/>
        <pt x="590" y="648" on="1"/>
        <pt x="580" y="608" on="1"/>
        <pt x="485" y="608" on="1"/>
        <pt x="377" y="172" on="1"/>
        <pt x="355" y="85" on="0"/>
        <pt x="253" y="-16" on="0"/>
      </contour>
    </TTGlyph>
    <TTGlyph name="K" xMin="-20" yMin="0" xMax="782" yMax="648">
      <contour>
        <pt x="-20" y="0" on="1"/>
        <pt x="-10" y="40" on="1"/>
        <pt x="99" y="40" on="1"/>
        <pt x="240" y="608" on="1"/>
        <pt x="129" y="608" on="1"/>
        <pt x="139" y="648" on="1"/>
        <pt x="416" y="648" on="1"/>
        <pt x="406" y="608" on="1"/>
        <pt x="310" y="608" on="1"/>
        <pt x="231" y="287" on="1"/>
        <pt x="621" y="608" on="1"/>
        <pt x="531" y="608" on="1"/>
        <pt x="541" y="648" on="1"/>
        <pt x="782" y="648" on="1"/>
        <pt x="772" y="608" on="1"/>
        <pt x="690" y="608" on="1"/>
        <pt x="403" y="376" on="1"/>
        <pt x="562" y="40" on="1"/>
        <pt x="645" y="40" on="1"/>
        <pt x="635" y="0" on="1"/>
        <pt x="376" y="0" on="1"/>
        <pt x="386" y="40" on="1"/>
        <pt x="480" y="40" on="1"/>
        <pt x="347" y="332" on="1"/>
        <pt x="215" y="224" on="1"/>
        <pt x="169" y="40" on="1"/>
        <pt x="267" y="40" on="1"/>
        <pt x="257" y="0" on="1"/>
      </contour>
    </TTGlyph>
    <TTGlyph name="L" xMin="-20" yMin="0" xMax="549" yMax="648">
      <contour>
        <pt x="-20" y="0" on="1"/>
        <pt x="-10" y="40" on="1"/>
        <pt x="99" y="40" on="1"/>
        <pt x="240" y="608" on="1"/>
        <pt x="129" y="608" on="1"/>
        <pt x="139" y="648" on="1"/>
        <pt x="416" y="648" on="1"/>
        <pt x="406" y="608" on="1"/>
        <pt x="310" y="608" on="1"/>
        <pt x="169" y="40" on="1"/>
        <pt x="383" y="40" on="1"/>
        <pt x="408" y="40" on="0"/>
        <pt x="440" y="54" on="0"/>
        <pt x="466" y="93" on="0"/>
        <pt x="494" y="164" on="0"/>
        <pt x="515" y="220" on="1"/>
        <pt x="549" y="220" on="1"/>
        <pt x="494" y="0" on="1"/>
      </contour>
    </TTGlyph>
    <TTGlyph name="Lacute" xMin="-20" yMin="0" xMax="549" yMax="930">
      <component glyphName="L" x="0" y="0" flags="0x204"/>
      <component glyphName="acute" x="154" y="213" flags="0x4"/>
    </TTGlyph>
    <TTGlyph name="Lcaron" xMin="-20" yMin="0" xMax="557" yMax="712">
      <component glyphName="L" x="0" y="0" flags="0x204"/>
      <component glyphName="caron.alt" x="293" y="-39" flags="0x4"/>
    </TTGlyph>
    <TTGlyph name="Ldot" xMin="-20" yMin="0" xMax="549" yMax="648">
      <contour>
        <pt x="-20" y="0" on="1"/>
        <pt x="-10" y="40" on="1"/>
        <pt x="99" y="40" on="1"/>
        <pt x="240" y="608" on="1"/>
        <pt x="129" y="608" on="1"/>
        <pt x="139" y="648" on="1"/>
        <pt x="416" y="648" on="1"/>
        <pt x="406" y="608" on="1"/>
        <pt x="310" y="608" on="1"/>
        <pt x="169" y="40" on="1"/>
        <pt x="383" y="40" on="1"/>
        <pt x="408" y="40" on="0"/>
        <pt x="440" y="54" on="0"/>
        <pt x="466" y="93" on="0"/>
        <pt x="494" y="164" on="0"/>
        <pt x="515" y="220" on="1"/>
        <pt x="549" y="220" on="1"/>
        <pt x="494" y="0" on="1"/>
      </contour>
      <contour>
        <pt x="478" y="308" on="1"/>
        <pt x="464" y="308" on="0"/>
        <pt x="441" y="328" on="0"/>
        <pt x="441" y="348" on="1"/>
        <pt x="441" y="367" on="0"/>
        <pt x="466" y="405" on="0"/>
        <pt x="490" y="405" on="1"/>
        <pt x="506" y="405" on="0"/>
        <pt x="528" y="383" on="0"/>
        <pt x="528" y="364" on="1"/>
        <pt x="528" y="346" on="0"/>
        <pt x="502" y="308" on="0"/>
      </contour>
    </TTGlyph>
    <TTGlyph name="Lslash" xMin="-20" yMin="0" xMax="549" yMax="648">
      <contour>
        <pt x="-20" y="0" on="1"/>
        <pt x="-10" y="40" on="1"/>
        <pt x="99" y="40" on="1"/>
        <pt x="161" y="290" on="1"/>
        <pt x="68" y="261" on="1"/>
        <pt x="78" y="303" on="1"/>
        <pt x="171" y="331" on="1"/>
        <pt x="240" y="608" on="1"/>
        <pt x="129" y="608" on="1"/>
        <pt x="139" y="648" on="1"/>
        <pt x="416" y="648" on="1"/>
        <pt x="406" y="608" on="1"/>
        <pt x="310" y="608" on="1"/>
        <pt x="247" y="355" on="1"/>
        <pt x="439" y="413" on="1"/>
        <pt x="429" y="373" on="1"/>
        <pt x="237" y="313" on="1"/>
        <pt x="169" y="40" on="1"/>
        <pt x="383" y="40" on="1"/>
        <pt x="408" y="40" on="0"/>
        <pt x="440" y="54" on="0"/>
        <pt x="466" y="93" on="0"/>
        <pt x="494" y="164" on="0"/>
        <pt x="515" y="220" on="1"/>
        <pt x="549" y="220" on="1"/>
        <pt x="494" y="0" on="1"/>
      </contour>
    </TTGlyph>
    <TTGlyph name="M" xMin="-20" yMin="-1" xMax="968" yMax="648">
      <contour>
        <pt x="-20" y="0" on="1"/>
        <pt x="-10" y="40" on="1"/>
        <pt x="94" y="40" on="1"/>
        <pt x="235" y="608" on="1"/>
        <pt x="129" y="608" on="1"/>
        <pt x="139" y="648" on="1"/>
        <pt x="352" y="648" on="1"/>
        <pt x="416" y="120" on="1"/>
        <pt x="419" y="120" on="1"/>
        <pt x="751" y="648" on="1"/>
        <pt x="968" y="648" on="1"/>
        <pt x="958" y="608" on="1"/>
        <pt x="849" y="608" on="1"/>
        <pt x="708" y="40" on="1"/>
        <pt x="819" y="40" on="1"/>
        <pt x="809" y="0" on="1"/>
        <pt x="544" y="0" on="1"/>
        <pt x="554" y="40" on="1"/>
        <pt x="638" y="40" on="1"/>
        <pt x="779" y="608" on="1"/>
        <pt x="775" y="608" on="1"/>
        <pt x="388" y="-1" on="1"/>
        <pt x="364" y="-1" on="1"/>
        <pt x="285" y="608" on="1"/>
        <pt x="281" y="608" on="1"/>
        <pt x="140" y="40" on="1"/>
        <pt x="232" y="40" on="1"/>
        <pt x="222" y="0" on="1"/>
      </contour>
    </TTGlyph>
    <TTGlyph name="N" xMin="-20" yMin="-16" xMax="814" yMax="648">
      <contour>
        <pt x="520" y="-16" on="1"/>
        <pt x="273" y="569" on="1"/>
        <pt x="271" y="569" on="1"/>
        <pt x="140" y="40" on="1"/>
        <pt x="232" y="40" on="1"/>
        <pt x="222" y="0" on="1"/>
        <pt x="-20" y="0" on="1"/>
        <pt x="-10" y="40" on="1"/>
        <pt x="94" y="40" on="1"/>
        <pt x="235" y="608" on="1"/>
        <pt x="129" y="608" on="1"/>
        <pt x="139" y="648" on="1"/>
        <pt x="312" y="648" on="1"/>
        <pt x="538" y="117" on="1"/>
        <pt x="540" y="117" on="1"/>
        <pt x="661" y="608" on="1"/>
        <pt x="567" y="608" on="1"/>
        <pt x="577" y="648" on="1"/>
        <pt x="814" y="648" on="1"/>
        <pt x="804" y="608" on="1"/>
        <pt x="707" y="608" on="1"/>
        <pt x="552" y="-16" on="1"/>
      </contour>
    </TTGlyph>
    <TTGlyph name="Nacute" xMin="-20" yMin="-16" xMax="814" yMax="930">
      <component glyphName="N" x="0" y="0" flags="0x204"/>
      <component glyphName="acute" x="324" y="213" flags="0x4"/>
    </TTGlyph>
    <TTGlyph name="Ncaron" xMin="-20" yMin="-16" xMax="814" yMax="925">
      <component glyphName="N" x="0" y="0" flags="0x204"/>
      <component glyphName="caron" x="251" y="213" flags="0x4"/>
    </TTGlyph>
    <TTGlyph name="Ntilde" xMin="-20" yMin="-16" xMax="814" yMax="867">
      <component glyphName="N" x="0" y="0" flags="0x204"/>
      <component glyphName="tilde" x="244" y="213" flags="0x4"/>
    </TTGlyph>
    <TTGlyph name="O" xMin="74" yMin="-16" xMax="663" yMax="662">
      <contour>
        <pt x="320" y="-16" on="1"/>
        <pt x="266" y="-16" on="0"/>
        <pt x="175" y="23" on="0"/>
        <pt x="110" y="94" on="0"/>
        <pt x="74" y="195" on="0"/>
        <pt x="74" y="256" on="1"/>
        <pt x="74" y="332" on="0"/>
        <pt x="126" y="479" on="0"/>
        <pt x="217" y="592" on="0"/>
        <pt x="343" y="662" on="0"/>
        <pt x="417" y="662" on="1"/>
        <pt x="471" y="662" on="0"/>
        <pt x="562" y="623" on="0"/>
        <pt x="627" y="552" on="0"/>
        <pt x="663" y="451" on="0"/>
        <pt x="663" y="390" on="1"/>
        <pt x="663" y="314" on="0"/>
        <pt x="611" y="167" on="0"/>
        <pt x="520" y="54" on="0"/>
        <pt x="394" y="-16" on="0"/>
      </contour>
      <contour>
        <pt x="322" y="26" on="1"/>
        <pt x="392" y="26" on="0"/>
        <pt x="494" y="102" on="0"/>
        <pt x="559" y="214" on="0"/>
        <pt x="591" y="345" on="0"/>
        <pt x="591" y="400" on="1"/>
        <pt x="591" y="459" on="0"/>
        <pt x="563" y="543" on="0"/>
        <pt x="516" y="596" on="0"/>
        <pt x="451" y="620" on="0"/>
        <pt x="415" y="620" on="1"/>
        <pt x="345" y="620" on="0"/>
        <pt x="243" y="544" on="0"/>
        <pt x="178" y="432" on="0"/>
        <pt x="146" y="300" on="0"/>
        <pt x="146" y="245" on="1"/>
        <pt x="146" y="186" on="0"/>
        <pt x="174" y="102" on="0"/>
        <pt x="221" y="50" on="0"/>
        <pt x="286" y="26" on="0"/>
      </contour>
    </TTGlyph>
    <TTGlyph name="OE" xMin="71" yMin="0" xMax="995" yMax="648">
      <contour>
        <pt x="362" y="0" on="1"/>
        <pt x="286" y="0" on="0"/>
        <pt x="175" y="37" on="0"/>
        <pt x="104" y="102" on="0"/>
        <pt x="71" y="193" on="0"/>
        <pt x="71" y="247" on="1"/>
        <pt x="71" y="325" on="0"/>
        <pt x="132" y="477" on="0"/>
        <pt x="192" y="535" on="1"/>
        <pt x="243" y="586" on="0"/>
        <pt x="393" y="648" on="0"/>
        <pt x="518" y="648" on="1"/>
        <pt x="995" y="648" on="1"/>
        <pt x="946" y="452" on="1"/>
        <pt x="912" y="452" on="1"/>
        <pt x="918" y="507" on="0"/>
        <pt x="922" y="570" on="0"/>
        <pt x="913" y="601" on="0"/>
        <pt x="891" y="608" on="0"/>
        <pt x="870" y="608" on="1"/>
        <pt x="638" y="608" on="1"/>
        <pt x="574" y="351" on="1"/>
        <pt x="686" y="351" on="1"/>
        <pt x="722" y="351" on="0"/>
        <pt x="750" y="384" on="0"/>
        <pt x="775" y="450" on="1"/>
        <pt x="806" y="450" on="1"/>
        <pt x="747" y="212" on="1"/>
        <pt x="716" y="212" on="1"/>
        <pt x="720" y="247" on="0"/>
        <pt x="724" y="289" on="0"/>
        <pt x="717" y="309" on="0"/>
        <pt x="698" y="315" on="0"/>
        <pt x="680" y="315" on="1"/>
        <pt x="566" y="315" on="1"/>
        <pt x="497" y="40" on="1"/>
        <pt x="720" y="40" on="1"/>
        <pt x="745" y="40" on="0"/>
        <pt x="779" y="51" on="0"/>
        <pt x="808" y="88" on="0"/>
        <pt x="840" y="158" on="0"/>
        <pt x="862" y="216" on="1"/>
        <pt x="896" y="216" on="1"/>
        <pt x="842" y="0" on="1"/>
      </contour>
      <contour>
        <pt x="371" y="40" on="1"/>
        <pt x="426" y="40" on="1"/>
        <pt x="568" y="608" on="1"/>
        <pt x="528" y="608" on="1"/>
        <pt x="441" y="608" on="0"/>
        <pt x="308" y="569" on="0"/>
        <pt x="260" y="521" on="1"/>
        <pt x="205" y="466" on="0"/>
        <pt x="145" y="313" on="0"/>
        <pt x="145" y="229" on="1"/>
        <pt x="145" y="139" on="0"/>
        <pt x="252" y="40" on="0"/>
      </contour>
    </TTGlyph>
    <TTGlyph name="Oacute" xMin="74" yMin="-16" xMax="663" yMax="930">
      <component glyphName="O" x="0" y="0" flags="0x204"/>
      <component glyphName="acute" x="297" y="213" flags="0x4"/>
    </TTGlyph>
    <TTGlyph name="Obreve" xMin="74" yMin="-16" xMax="663" yMax="886">
      <component glyphName="O" x="0" y="0" flags="0x204"/>
      <component glyphName="breve" x="213" y="213" flags="0x4"/>
    </TTGlyph>
    <TTGlyph name="Ocircumflex" xMin="74" yMin="-16" xMax="663" yMax="916">
      <component glyphName="O" x="0" y="0" flags="0x204"/>
      <component glyphName="circumflex" x="220" y="213" flags="0x4"/>
    </TTGlyph>
    <TTGlyph name="Odieresis" xMin="74" yMin="-16" xMax="663" yMax="859">
      <component glyphName="O" x="0" y="0" flags="0x204"/>
      <component glyphName="dieresis" x="210" y="213" flags="0x4"/>
    </TTGlyph>
    <TTGlyph name="Ograve" xMin="74" yMin="-16" xMax="663" yMax="930">
      <component glyphName="O" x="0" y="0" flags="0x204"/>
      <component glyphName="grave" x="216" y="213" flags="0x4"/>
    </TTGlyph>
    <TTGlyph name="Ohungarumlaut" xMin="74" yMin="-16" xMax="689" yMax="930">
      <component glyphName="O" x="0" y="0" flags="0x204"/>
      <component glyphName="hungarumlaut" x="291" y="213" flags="0x4"/>
    </TTGlyph>
    <TTGlyph name="Omacron" xMin="74" yMin="-16" xMax="663" yMax="808">
      <component glyphName="O" x="0" y="0" flags="0x204"/>
      <component glyphName="macron" x="222" y="213" flags="0x4"/>
    </TTGlyph>
    <TTGlyph name="Oslash" xMin="14" yMin="-39" xMax="723" yMax="685">
      <contour>
        <pt x="43" y="-39" on="1"/>
        <pt x="14" y="-14" on="1"/>
        <pt x="117" y="93" on="1"/>
        <pt x="96" y="126" on="0"/>
        <pt x="74" y="208" on="0"/>
        <pt x="74" y="256" on="1"/>
        <pt x="74" y="332" on="0"/>
        <pt x="126" y="479" on="0"/>
        <pt x="217" y="592" on="0"/>
        <pt x="343" y="662" on="0"/>
        <pt x="417" y="662" on="1"/>
        <pt x="472" y="662" on="0"/>
        <pt x="565" y="621" on="0"/>
        <pt x="597" y="584" on="1"/>
        <pt x="694" y="685" on="1"/>
        <pt x="723" y="660" on="1"/>
        <pt x="620" y="553" on="1"/>
        <pt x="641" y="520" on="0"/>
        <pt x="663" y="438" on="0"/>
        <pt x="663" y="390" on="1"/>
        <pt x="663" y="314" on="0"/>
        <pt x="611" y="167" on="0"/>
        <pt x="520" y="54" on="0"/>
        <pt x="394" y="-16" on="0"/>
        <pt x="320" y="-16" on="1"/>
        <pt x="265" y="-16" on="0"/>
        <pt x="172" y="25" on="0"/>
        <pt x="140" y="62" on="1"/>
      </contour>
      <contour>
        <pt x="146" y="245" on="1"/>
        <pt x="146" y="212" on="0"/>
        <pt x="155" y="157" on="0"/>
        <pt x="163" y="135" on="1"/>
        <pt x="558" y="544" on="1"/>
        <pt x="534" y="584" on="0"/>
        <pt x="459" y="620" on="0"/>
        <pt x="415" y="620" on="1"/>
        <pt x="345" y="620" on="0"/>
        <pt x="243" y="544" on="0"/>
        <pt x="178" y="432" on="0"/>
        <pt x="146" y="300" on="0"/>
      </contour>
      <contour>
        <pt x="322" y="26" on="1"/>
        <pt x="392" y="26" on="0"/>
        <pt x="494" y="102" on="0"/>
        <pt x="559" y="214" on="0"/>
        <pt x="591" y="345" on="0"/>
        <pt x="591" y="400" on="1"/>
        <pt x="591" y="433" on="0"/>
        <pt x="582" y="488" on="0"/>
        <pt x="574" y="510" on="1"/>
        <pt x="179" y="102" on="1"/>
        <pt x="203" y="62" on="0"/>
        <pt x="278" y="26" on="0"/>
      </contour>
    </TTGlyph>
    <TTGlyph name="Oslashacute" xMin="14" yMin="-39" xMax="723" yMax="930">
      <component glyphName="Oslash" x="0" y="0" flags="0x204"/>
      <component glyphName="acute" x="297" y="213" flags="0x4"/>
    </TTGlyph>
    <TTGlyph name="Otilde" xMin="74" yMin="-16" xMax="663" yMax="867">
      <component glyphName="O" x="0" y="0" flags="0x204"/>
      <component glyphName="tilde" x="216" y="213" flags="0x4"/>
    </TTGlyph>
    <TTGlyph name="P" xMin="-20" yMin="0" xMax="615" yMax="648">
      <contour>
        <pt x="-20" y="0" on="1"/>
        <pt x="-10" y="40" on="1"/>
        <pt x="99" y="40" on="1"/>
        <pt x="240" y="608" on="1"/>
        <pt x="129" y="608" on="1"/>
        <pt x="139" y="648" on="1"/>
        <pt x="399" y="648" on="1"/>
        <pt x="521" y="648" on="0"/>
        <pt x="615" y="559" on="0"/>
        <pt x="615" y="497" on="1"/>
        <pt x="615" y="443" on="0"/>
        <pt x="571" y="358" on="0"/>
        <pt x="493" y="300" on="0"/>
        <pt x="382" y="270" on="0"/>
        <pt x="316" y="270" on="1"/>
        <pt x="226" y="270" on="1"/>
        <pt x="169" y="40" on="1"/>
        <pt x="291" y="40" on="1"/>
        <pt x="281" y="0" on="1"/>
      </contour>
      <contour>
        <pt x="236" y="310" on="1"/>
        <pt x="328" y="310" on="1"/>
        <pt x="384" y="310" on="0"/>
        <pt x="465" y="341" on="0"/>
        <pt x="516" y="393" on="0"/>
        <pt x="540" y="464" on="0"/>
        <pt x="540" y="504" on="1"/>
        <pt x="540" y="549" on="0"/>
        <pt x="484" y="608" on="0"/>
        <pt x="398" y="608" on="1"/>
        <pt x="310" y="608" on="1"/>
      </contour>
    </TTGlyph>
    <TTGlyph name="Q" xMin="74" yMin="-105" xMax="683" yMax="662">
      <contour>
        <pt x="320" y="-16" on="1"/>
        <pt x="266" y="-16" on="0"/>
        <pt x="175" y="23" on="0"/>
        <pt x="110" y="94" on="0"/>
        <pt x="74" y="195" on="0"/>
        <pt x="74" y="256" on="1"/>
        <pt x="74" y="332" on="0"/>
        <pt x="126" y="479" on="0"/>
        <pt x="217" y="592" on="0"/>
        <pt x="343" y="662" on="0"/>
        <pt x="417" y="662" on="1"/>
        <pt x="471" y="662" on="0"/>
        <pt x="562" y="623" on="0"/>
        <pt x="627" y="552" on="0"/>
        <pt x="663" y="451" on="0"/>
        <pt x="663" y="390" on="1"/>
        <pt x="663" y="337" on="0"/>
        <pt x="638" y="233" on="0"/>
        <pt x="591" y="140" on="0"/>
        <pt x="525" y="62" on="0"/>
        <pt x="484" y="35" on="1"/>
        <pt x="500" y="-12" on="0"/>
        <pt x="533" y="-51" on="0"/>
        <pt x="559" y="-51" on="1"/>
        <pt x="587" y="-51" on="0"/>
        <pt x="626" y="4" on="0"/>
        <pt x="646" y="49" on="1"/>
        <pt x="683" y="35" on="1"/>
        <pt x="673" y="8" on="0"/>
        <pt x="648" y="-43" on="0"/>
        <pt x="616" y="-82" on="0"/>
        <pt x="576" y="-105" on="0"/>
        <pt x="551" y="-105" on="1"/>
        <pt x="505" y="-105" on="0"/>
        <pt x="453" y="-45" on="0"/>
        <pt x="435" y="8" on="1"/>
        <pt x="408" y="-3" on="0"/>
        <pt x="351" y="-16" on="0"/>
      </contour>
      <contour>
        <pt x="312" y="227" on="1"/>
        <pt x="378" y="227" on="0"/>
        <pt x="447" y="140" on="0"/>
        <pt x="468" y="82" on="1"/>
        <pt x="469" y="83" on="0"/>
        <pt x="470" y="84" on="0"/>
        <pt x="474" y="88" on="1"/>
        <pt x="503" y="117" on="0"/>
        <pt x="547" y="193" on="0"/>
        <pt x="576" y="276" on="0"/>
        <pt x="591" y="362" on="0"/>
        <pt x="591" y="400" on="1"/>
        <pt x="591" y="459" on="0"/>
        <pt x="563" y="543" on="0"/>
        <pt x="516" y="596" on="0"/>
        <pt x="451" y="620" on="0"/>
        <pt x="415" y="620" on="1"/>
        <pt x="345" y="620" on="0"/>
        <pt x="243" y="544" on="0"/>
        <pt x="178" y="432" on="0"/>
        <pt x="146" y="300" on="0"/>
        <pt x="146" y="245" on="1"/>
        <pt x="146" y="192" on="0"/>
        <pt x="169" y="113" on="0"/>
        <pt x="190" y="85" on="1"/>
        <pt x="187" y="113" on="0"/>
        <pt x="202" y="164" on="0"/>
        <pt x="234" y="203" on="0"/>
        <pt x="282" y="227" on="0"/>
      </contour>
      <contour>
        <pt x="230" y="104" on="1"/>
        <pt x="230" y="74" on="0"/>
        <pt x="277" y="25" on="0"/>
        <pt x="332" y="25" on="1"/>
        <pt x="357" y="25" on="0"/>
        <pt x="402" y="37" on="0"/>
        <pt x="423" y="49" on="1"/>
        <pt x="421" y="54" on="1"/>
        <pt x="405" y="114" on="0"/>
        <pt x="352" y="187" on="0"/>
        <pt x="306" y="187" on="1"/>
        <pt x="274" y="187" on="0"/>
        <pt x="230" y="140" on="0"/>
      </contour>
    </TTGlyph>
    <TTGlyph name="R" xMin="-20" yMin="-11" xMax="634" yMax="648">
      <contour>
        <pt x="522" y="-11" on="1"/>
        <pt x="488" y="-11" on="0"/>
        <pt x="440" y="28" on="0"/>
        <pt x="440" y="72" on="1"/>
        <pt x="440" y="109" on="0"/>
        <pt x="460" y="194" on="0"/>
        <pt x="460" y="232" on="1"/>
        <pt x="460" y="261" on="0"/>
        <pt x="419" y="296" on="0"/>
        <pt x="359" y="296" on="1"/>
        <pt x="233" y="296" on="1"/>
        <pt x="169" y="40" on="1"/>
        <pt x="281" y="40" on="1"/>
        <pt x="271" y="0" on="1"/>
        <pt x="-20" y="0" on="1"/>
        <pt x="-10" y="40" on="1"/>
        <pt x="99" y="40" on="1"/>
        <pt x="240" y="608" on="1"/>
        <pt x="129" y="608" on="1"/>
        <pt x="139" y="648" on="1"/>
        <pt x="419" y="648" on="1"/>
        <pt x="480" y="648" on="0"/>
        <pt x="561" y="623" on="0"/>
        <pt x="609" y="584" on="0"/>
        <pt x="628" y="532" on="0"/>
        <pt x="628" y="505" on="1"/>
        <pt x="628" y="473" on="0"/>
        <pt x="606" y="409" on="0"/>
        <pt x="559" y="357" on="0"/>
        <pt x="484" y="321" on="0"/>
        <pt x="432" y="315" on="1"/>
        <pt x="431" y="313" on="1"/>
        <pt x="490" y="297" on="0"/>
        <pt x="528" y="243" on="0"/>
        <pt x="528" y="204" on="1"/>
        <pt x="528" y="173" on="0"/>
        <pt x="514" y="101" on="0"/>
        <pt x="514" y="76" on="1"/>
        <pt x="514" y="54" on="0"/>
        <pt x="534" y="32" on="0"/>
        <pt x="556" y="32" on="1"/>
        <pt x="569" y="32" on="0"/>
        <pt x="608" y="42" on="0"/>
        <pt x="624" y="49" on="1"/>
        <pt x="634" y="27" on="1"/>
        <pt x="610" y="11" on="0"/>
        <pt x="551" y="-11" on="0"/>
      </contour>
      <contour>
        <pt x="241" y="333" on="1"/>
        <pt x="355" y="333" on="1"/>
        <pt x="409" y="333" on="0"/>
        <pt x="482" y="358" on="0"/>
        <pt x="507" y="383" on="1"/>
        <pt x="529" y="405" on="0"/>
        <pt x="555" y="476" on="0"/>
        <pt x="555" y="511" on="1"/>
        <pt x="555" y="557" on="0"/>
        <pt x="494" y="609" on="0"/>
        <pt x="421" y="608" on="1"/>
        <pt x="310" y="608" on="1"/>
      </contour>
    </TTGlyph>
    <TTGlyph name="R_p" xMin="-17" yMin="-147" xMax="1021" yMax="622">
      <contour>
        <pt x="520" y="-11" on="1"/>
        <pt x="482" y="-11" on="0"/>
        <pt x="428" y="24" on="0"/>
        <pt x="428" y="70" on="1"/>
        <pt x="428" y="101" on="0"/>
        <pt x="449" y="182" on="0"/>
        <pt x="449" y="217" on="1"/>
        <pt x="449" y="244" on="0"/>
        <pt x="411" y="277" on="0"/>
        <pt x="352" y="277" on="1"/>
        <pt x="228" y="277" on="1"/>
        <pt x="169" y="40" on="1"/>
        <pt x="276" y="40" on="1"/>
        <pt x="266" y="0" on="1"/>
        <pt x="-17" y="0" on="1"/>
        <pt x="-7" y="40" on="1"/>
        <pt x="99" y="40" on="1"/>
        <pt x="234" y="582" on="1"/>
        <pt x="128" y="582" on="1"/>
        <pt x="138" y="622" on="1"/>
        <pt x="402" y="622" on="1"/>
        <pt x="461" y="622" on="0"/>
        <pt x="538" y="598" on="0"/>
        <pt x="584" y="560" on="0"/>
        <pt x="602" y="510" on="0"/>
        <pt x="602" y="484" on="1"/>
        <pt x="602" y="453" on="0"/>
        <pt x="580" y="392" on="0"/>
        <pt x="534" y="341" on="0"/>
        <pt x="462" y="306" on="0"/>
        <pt x="413" y="300" on="1"/>
        <pt x="412" y="298" on="1"/>
        <pt x="473" y="284" on="0"/>
        <pt x="517" y="231" on="0"/>
        <pt x="517" y="195" on="1"/>
        <pt x="517" y="168" on="0"/>
        <pt x="503" y="105" on="0"/>
        <pt x="503" y="83" on="1"/>
        <pt x="503" y="52" on="0"/>
        <pt x="531" y="35" on="0"/>
        <pt x="550" y="35" on="1"/>
        <pt x="583" y="35" on="0"/>
        <pt x="650" y="113" on="0"/>
        <pt x="670" y="189" on="1"/>
        <pt x="673" y="202" on="1"/>
        <pt x="716" y="373" on="1"/>
        <pt x="644" y="373" on="1"/>
        <pt x="654" y="413" on="1"/>
        <pt x="784" y="413" on="1"/>
        <pt x="759" y="315" on="1"/>
        <pt x="767" y="313" on="1"/>
        <pt x="801" y="365" on="0"/>
        <pt x="871" y="422" on="0"/>
        <pt x="912" y="422" on="1"/>
        <pt x="958" y="422" on="0"/>
        <pt x="1021" y="349" on="0"/>
        <pt x="1021" y="281" on="1"/>
        <pt x="1021" y="227" on="0"/>
        <pt x="984" y="123" on="0"/>
        <pt x="924" y="42" on="0"/>
        <pt x="844" y="-8" on="0"/>
        <pt x="802" y="-8" on="1"/>
        <pt x="769" y="-8" on="0"/>
        <pt x="713" y="29" on="0"/>
        <pt x="703" y="67" on="1"/>
        <pt x="660" y="-107" on="1"/>
        <pt x="754" y="-107" on="1"/>
        <pt x="744" y="-147" on="1"/>
        <pt x="514" y="-147" on="1"/>
        <pt x="524" y="-107" on="1"/>
        <pt x="596" y="-107" on="1"/>
        <pt x="641" y="73" on="1"/>
        <pt x="621" y="35" on="0"/>
        <pt x="563" y="-11" on="0"/>
      </contour>
      <contour>
        <pt x="237" y="314" on="1"/>
        <pt x="337" y="314" on="1"/>
        <pt x="388" y="314" on="0"/>
        <pt x="460" y="339" on="0"/>
        <pt x="483" y="363" on="1"/>
        <pt x="505" y="385" on="0"/>
        <pt x="529" y="453" on="0"/>
        <pt x="529" y="487" on="1"/>
        <pt x="529" y="533" on="0"/>
        <pt x="471" y="582" on="0"/>
        <pt x="401" y="582" on="1"/>
        <pt x="304" y="582" on="1"/>
      </contour>
      <contour>
        <pt x="801" y="28" on="1"/>
        <pt x="833" y="28" on="0"/>
        <pt x="890" y="77" on="0"/>
        <pt x="932" y="152" on="0"/>
        <pt x="956" y="242" on="0"/>
        <pt x="956" y="283" on="1"/>
        <pt x="956" y="330" on="0"/>
        <pt x="919" y="375" on="0"/>
        <pt x="890" y="375" on="1"/>
        <pt x="858" y="375" on="0"/>
        <pt x="798" y="322" on="0"/>
        <pt x="751" y="244" on="0"/>
        <pt x="722" y="155" on="0"/>
        <pt x="722" y="119" on="1"/>
        <pt x="722" y="85" on="0"/>
        <pt x="759" y="28" on="0"/>
      </contour>
    </TTGlyph>
    <TTGlyph name="Racute" xMin="-20" yMin="-11" xMax="634" yMax="930">
      <component glyphName="R" x="0" y="0" flags="0x204"/>
      <component glyphName="acute" x="268" y="213" flags="0x4"/>
    </TTGlyph>
    <TTGlyph name="Rcaron" xMin="-20" yMin="-11" xMax="634" yMax="925">
      <component glyphName="R" x="0" y="0" flags="0x204"/>
      <component glyphName="caron" x="195" y="213" flags="0x4"/>
    </TTGlyph>
    <TTGlyph name="S" xMin="-1" yMin="-16" xMax="586" yMax="662">
      <contour>
        <pt x="284" y="-16" on="1"/>
        <pt x="222" y="-16" on="0"/>
        <pt x="117" y="31" on="0"/>
        <pt x="80" y="78" on="1"/>
        <pt x="35" y="-13" on="1"/>
        <pt x="-1" y="-13" on="1"/>
        <pt x="54" y="211" on="1"/>
        <pt x="85" y="211" on="1"/>
        <pt x="104" y="104" on="0"/>
        <pt x="216" y="21" on="0"/>
        <pt x="288" y="21" on="1"/>
        <pt x="345" y="21" on="0"/>
        <pt x="433" y="93" on="0"/>
        <pt x="433" y="155" on="1"/>
        <pt x="433" y="205" on="0"/>
        <pt x="358" y="267" on="0"/>
        <pt x="289" y="299" on="1"/>
        <pt x="257" y="314" on="0"/>
        <pt x="197" y="347" on="0"/>
        <pt x="153" y="388" on="0"/>
        <pt x="126" y="441" on="0"/>
        <pt x="126" y="475" on="1"/>
        <pt x="126" y="513" on="0"/>
        <pt x="157" y="581" on="0"/>
        <pt x="211" y="632" on="0"/>
        <pt x="289" y="662" on="0"/>
        <pt x="335" y="662" on="1"/>
        <pt x="396" y="662" on="0"/>
        <pt x="485" y="613" on="0"/>
        <pt x="511" y="582" on="1"/>
        <pt x="551" y="659" on="1"/>
        <pt x="586" y="659" on="1"/>
        <pt x="535" y="448" on="1"/>
        <pt x="503" y="448" on="1"/>
        <pt x="494" y="503" on="0"/>
        <pt x="459" y="573" on="0"/>
        <pt x="413" y="612" on="0"/>
        <pt x="358" y="626" on="0"/>
        <pt x="330" y="626" on="1"/>
        <pt x="303" y="626" on="0"/>
        <pt x="253" y="608" on="0"/>
        <pt x="214" y="575" on="0"/>
        <pt x="191" y="527" on="0"/>
        <pt x="191" y="498" on="1"/>
        <pt x="191" y="446" on="0"/>
        <pt x="267" y="389" on="0"/>
        <pt x="324" y="361" on="1"/>
        <pt x="397" y="324" on="0"/>
        <pt x="500" y="247" on="0"/>
        <pt x="500" y="177" on="1"/>
        <pt x="500" y="136" on="0"/>
        <pt x="466" y="65" on="0"/>
        <pt x="408" y="14" on="0"/>
        <pt x="329" y="-16" on="0"/>
      </contour>
    </TTGlyph>
    <TTGlyph name="Sacute" xMin="-1" yMin="-16" xMax="586" yMax="930">
      <component glyphName="S" x="0" y="0" flags="0x204"/>
      <component glyphName="acute" x="239" y="213" flags="0x4"/>
    </TTGlyph>
    <TTGlyph name="Scaron" xMin="-1" yMin="-16" xMax="586" yMax="925">
      <component glyphName="S" x="0" y="0" flags="0x204"/>
      <component glyphName="caron" x="165" y="213" flags="0x4"/>
    </TTGlyph>
    <TTGlyph name="Scedilla" xMin="-1" yMin="-233" xMax="586" yMax="662">
      <contour>
        <pt x="202" y="-233" on="1"/>
        <pt x="174" y="-233" on="0"/>
        <pt x="120" y="-213" on="0"/>
        <pt x="97" y="-192" on="1"/>
        <pt x="118" y="-165" on="1"/>
        <pt x="136" y="-180" on="0"/>
        <pt x="175" y="-199" on="0"/>
        <pt x="200" y="-199" on="1"/>
        <pt x="223" y="-199" on="0"/>
        <pt x="260" y="-172" on="0"/>
        <pt x="260" y="-146" on="1"/>
        <pt x="260" y="-129" on="0"/>
        <pt x="238" y="-110" on="0"/>
        <pt x="207" y="-103" on="0"/>
        <pt x="173" y="-104" on="0"/>
        <pt x="161" y="-105" on="1"/>
        <pt x="152" y="-87" on="1"/>
        <pt x="244" y="-13" on="1"/>
        <pt x="195" y="-7" on="0"/>
        <pt x="111" y="38" on="0"/>
        <pt x="80" y="78" on="1"/>
        <pt x="35" y="-13" on="1"/>
        <pt x="-1" y="-13" on="1"/>
        <pt x="54" y="211" on="1"/>
        <pt x="85" y="211" on="1"/>
        <pt x="104" y="104" on="0"/>
        <pt x="216" y="21" on="0"/>
        <pt x="288" y="21" on="1"/>
        <pt x="345" y="21" on="0"/>
        <pt x="433" y="93" on="0"/>
        <pt x="433" y="155" on="1"/>
        <pt x="433" y="205" on="0"/>
        <pt x="358" y="267" on="0"/>
        <pt x="289" y="299" on="1"/>
        <pt x="257" y="314" on="0"/>
        <pt x="197" y="347" on="0"/>
        <pt x="153" y="388" on="0"/>
        <pt x="126" y="441" on="0"/>
        <pt x="126" y="475" on="1"/>
        <pt x="126" y="513" on="0"/>
        <pt x="157" y="581" on="0"/>
        <pt x="211" y="632" on="0"/>
        <pt x="289" y="662" on="0"/>
        <pt x="335" y="662" on="1"/>
        <pt x="396" y="662" on="0"/>
        <pt x="485" y="613" on="0"/>
        <pt x="511" y="582" on="1"/>
        <pt x="551" y="659" on="1"/>
        <pt x="586" y="659" on="1"/>
        <pt x="535" y="448" on="1"/>
        <pt x="503" y="448" on="1"/>
        <pt x="494" y="503" on="0"/>
        <pt x="459" y="573" on="0"/>
        <pt x="413" y="612" on="0"/>
        <pt x="358" y="626" on="0"/>
        <pt x="330" y="626" on="1"/>
        <pt x="303" y="626" on="0"/>
        <pt x="253" y="608" on="0"/>
        <pt x="214" y="575" on="0"/>
        <pt x="191" y="527" on="0"/>
        <pt x="191" y="498" on="1"/>
        <pt x="191" y="446" on="0"/>
        <pt x="267" y="389" on="0"/>
        <pt x="324" y="361" on="1"/>
        <pt x="397" y="324" on="0"/>
        <pt x="500" y="247" on="0"/>
        <pt x="500" y="177" on="1"/>
        <pt x="500" y="136" on="0"/>
        <pt x="466" y="65" on="0"/>
        <pt x="409" y="14" on="0"/>
        <pt x="331" y="-16" on="0"/>
        <pt x="287" y="-16" on="1"/>
        <pt x="219" y="-69" on="1"/>
        <pt x="219" y="-72" on="1"/>
        <pt x="260" y="-76" on="0"/>
        <pt x="308" y="-113" on="0"/>
        <pt x="308" y="-143" on="1"/>
        <pt x="308" y="-184" on="0"/>
        <pt x="243" y="-233" on="0"/>
      </contour>
    </TTGlyph>
    <TTGlyph name="T" xMin="103" yMin="0" xMax="706" yMax="648">
      <contour>
        <pt x="122" y="0" on="1"/>
        <pt x="132" y="40" on="1"/>
        <pt x="245" y="40" on="1"/>
        <pt x="387" y="608" on="1"/>
        <pt x="269" y="608" on="1"/>
        <pt x="244" y="608" on="0"/>
        <pt x="212" y="594" on="0"/>
        <pt x="185" y="555" on="0"/>
        <pt x="157" y="484" on="0"/>
        <pt x="135" y="428" on="1"/>
        <pt x="103" y="428" on="1"/>
        <pt x="158" y="648" on="1"/>
        <pt x="706" y="648" on="1"/>
        <pt x="651" y="428" on="1"/>
        <pt x="621" y="428" on="1"/>
        <pt x="627" y="484" on="0"/>
        <pt x="632" y="555" on="0"/>
        <pt x="624" y="594" on="0"/>
        <pt x="598" y="608" on="0"/>
        <pt x="573" y="608" on="1"/>
        <pt x="457" y="608" on="1"/>
        <pt x="315" y="40" on="1"/>
        <pt x="430" y="40" on="1"/>
        <pt x="420" y="0" on="1"/>
      </contour>
    </TTGlyph>
    <TTGlyph name="Tcaron" xMin="103" yMin="0" xMax="706" yMax="925">
      <component glyphName="T" x="0" y="0" flags="0x204"/>
      <component glyphName="caron" x="221" y="213" flags="0x4"/>
    </TTGlyph>
    <TTGlyph name="Thorn" xMin="-20" yMin="0" xMax="586" yMax="648">
      <contour>
        <pt x="-20" y="0" on="1"/>
        <pt x="-10" y="40" on="1"/>
        <pt x="99" y="40" on="1"/>
        <pt x="240" y="608" on="1"/>
        <pt x="129" y="608" on="1"/>
        <pt x="139" y="648" on="1"/>
        <pt x="429" y="648" on="1"/>
        <pt x="419" y="608" on="1"/>
        <pt x="310" y="608" on="1"/>
        <pt x="289" y="526" on="1"/>
        <pt x="369" y="526" on="1"/>
        <pt x="491" y="526" on="0"/>
        <pt x="586" y="439" on="0"/>
        <pt x="586" y="379" on="1"/>
        <pt x="586" y="326" on="0"/>
        <pt x="543" y="242" on="0"/>
        <pt x="465" y="186" on="0"/>
        <pt x="354" y="156" on="0"/>
        <pt x="288" y="156" on="1"/>
        <pt x="198" y="156" on="1"/>
        <pt x="169" y="40" on="1"/>
        <pt x="280" y="40" on="1"/>
        <pt x="270" y="0" on="1"/>
      </contour>
      <contour>
        <pt x="208" y="196" on="1"/>
        <pt x="300" y="196" on="1"/>
        <pt x="356" y="196" on="0"/>
        <pt x="437" y="226" on="0"/>
        <pt x="487" y="277" on="0"/>
        <pt x="511" y="347" on="0"/>
        <pt x="511" y="386" on="1"/>
        <pt x="511" y="429" on="0"/>
        <pt x="454" y="486" on="0"/>
        <pt x="368" y="486" on="1"/>
        <pt x="280" y="486" on="1"/>
      </contour>
    </TTGlyph>
    <TTGlyph name="U" xMin="111" yMin="-16" xMax="788" yMax="648">
      <contour>
        <pt x="315" y="-16" on="1"/>
        <pt x="214" y="-16" on="0"/>
        <pt x="111" y="79" on="0"/>
        <pt x="111" y="147" on="1"/>
        <pt x="111" y="167" on="0"/>
        <pt x="118" y="213" on="0"/>
        <pt x="126" y="247" on="1"/>
        <pt x="215" y="608" on="1"/>
        <pt x="119" y="608" on="1"/>
        <pt x="129" y="648" on="1"/>
        <pt x="395" y="648" on="1"/>
        <pt x="385" y="608" on="1"/>
        <pt x="285" y="608" on="1"/>
        <pt x="202" y="275" on="1"/>
        <pt x="190" y="226" on="0"/>
        <pt x="181" y="166" on="0"/>
        <pt x="181" y="148" on="1"/>
        <pt x="181" y="93" on="0"/>
        <pt x="261" y="33" on="0"/>
        <pt x="334" y="33" on="1"/>
        <pt x="371" y="33" on="0"/>
        <pt x="448" y="57" on="0"/>
        <pt x="480" y="89" on="1"/>
        <pt x="503" y="112" on="0"/>
        <pt x="537" y="178" on="0"/>
        <pt x="549" y="224" on="1"/>
        <pt x="644" y="608" on="1"/>
        <pt x="546" y="608" on="1"/>
        <pt x="556" y="648" on="1"/>
        <pt x="788" y="648" on="1"/>
        <pt x="778" y="608" on="1"/>
        <pt x="690" y="608" on="1"/>
        <pt x="590" y="204" on="1"/>
        <pt x="580" y="163" on="0"/>
        <pt x="540" y="90" on="0"/>
        <pt x="512" y="62" on="1"/>
        <pt x="472" y="22" on="0"/>
        <pt x="372" y="-16" on="0"/>
      </contour>
    </TTGlyph>
    <TTGlyph name="Uacute" xMin="111" yMin="-16" xMax="788" yMax="930">
      <component glyphName="U" x="0" y="0" flags="0x204"/>
      <component glyphName="acute" x="319" y="213" flags="0x4"/>
    </TTGlyph>
    <TTGlyph name="Ubreve" xMin="111" yMin="-16" xMax="788" yMax="886">
      <component glyphName="U" x="0" y="0" flags="0x204"/>
      <component glyphName="breve" x="235" y="213" flags="0x4"/>
    </TTGlyph>
    <TTGlyph name="Ucircumflex" xMin="111" yMin="-16" xMax="788" yMax="916">
      <component glyphName="U" x="0" y="0" flags="0x204"/>
      <component glyphName="circumflex" x="242" y="213" flags="0x4"/>
    </TTGlyph>
    <TTGlyph name="Udieresis" xMin="111" yMin="-16" xMax="788" yMax="859">
      <component glyphName="U" x="0" y="0" flags="0x204"/>
      <component glyphName="dieresis" x="233" y="213" flags="0x4"/>
    </TTGlyph>
    <TTGlyph name="Ugrave" xMin="111" yMin="-16" xMax="788" yMax="930">
      <component glyphName="U" x="0" y="0" flags="0x204"/>
      <component glyphName="grave" x="239" y="213" flags="0x4"/>
    </TTGlyph>
    <TTGlyph name="Uhungarumlaut" xMin="111" yMin="-16" xMax="788" yMax="930">
      <component glyphName="U" x="0" y="0" flags="0x204"/>
      <component glyphName="hungarumlaut" x="314" y="213" flags="0x4"/>
    </TTGlyph>
    <TTGlyph name="Umacron" xMin="111" yMin="-16" xMax="788" yMax="808">
      <component glyphName="U" x="0" y="0" flags="0x204"/>
      <component glyphName="macron" x="244" y="213" flags="0x4"/>
    </TTGlyph>
    <TTGlyph name="Uogonek" xMin="111" yMin="-233" xMax="788" yMax="648">
      <contour>
        <pt x="259" y="-233" on="1"/>
        <pt x="229" y="-233" on="0"/>
        <pt x="178" y="-196" on="0"/>
        <pt x="178" y="-157" on="1"/>
        <pt x="178" y="-120" on="0"/>
        <pt x="234" y="-53" on="0"/>
        <pt x="291" y="-15" on="1"/>
        <pt x="202" y="-9" on="0"/>
        <pt x="111" y="84" on="0"/>
        <pt x="111" y="147" on="1"/>
        <pt x="111" y="167" on="0"/>
        <pt x="118" y="213" on="0"/>
        <pt x="126" y="247" on="1"/>
        <pt x="215" y="608" on="1"/>
        <pt x="119" y="608" on="1"/>
        <pt x="129" y="648" on="1"/>
        <pt x="395" y="648" on="1"/>
        <pt x="385" y="608" on="1"/>
        <pt x="285" y="608" on="1"/>
        <pt x="202" y="275" on="1"/>
        <pt x="190" y="226" on="0"/>
        <pt x="181" y="166" on="0"/>
        <pt x="181" y="148" on="1"/>
        <pt x="181" y="93" on="0"/>
        <pt x="261" y="33" on="0"/>
        <pt x="334" y="33" on="1"/>
        <pt x="371" y="33" on="0"/>
        <pt x="448" y="57" on="0"/>
        <pt x="480" y="89" on="1"/>
        <pt x="503" y="112" on="0"/>
        <pt x="537" y="178" on="0"/>
        <pt x="549" y="224" on="1"/>
        <pt x="644" y="608" on="1"/>
        <pt x="546" y="608" on="1"/>
        <pt x="556" y="648" on="1"/>
        <pt x="788" y="648" on="1"/>
        <pt x="778" y="608" on="1"/>
        <pt x="690" y="608" on="1"/>
        <pt x="590" y="204" on="1"/>
        <pt x="580" y="163" on="0"/>
        <pt x="540" y="90" on="0"/>
        <pt x="512" y="62" on="1"/>
        <pt x="475" y="25" on="0"/>
        <pt x="384" y="-13" on="0"/>
        <pt x="333" y="-16" on="1"/>
        <pt x="332" y="-16" on="1"/>
        <pt x="272" y="-63" on="0"/>
        <pt x="231" y="-123" on="0"/>
        <pt x="231" y="-150" on="1"/>
        <pt x="231" y="-170" on="0"/>
        <pt x="255" y="-195" on="0"/>
        <pt x="277" y="-195" on="1"/>
        <pt x="293" y="-195" on="0"/>
        <pt x="322" y="-184" on="0"/>
        <pt x="332" y="-178" on="1"/>
        <pt x="344" y="-201" on="1"/>
        <pt x="326" y="-216" on="0"/>
        <pt x="283" y="-233" on="0"/>
      </contour>
    </TTGlyph>
    <TTGlyph name="Uring" xMin="111" yMin="-16" xMax="788" yMax="930">
      <component glyphName="U" x="0" y="0" flags="0x204"/>
      <component glyphName="ring" x="277" y="213" flags="0x4"/>
    </TTGlyph>
    <TTGlyph name="V" xMin="99" yMin="-4" xMax="767" yMax="648">
      <contour>
        <pt x="261" y="-4" on="1"/>
        <pt x="178" y="608" on="1"/>
        <pt x="99" y="608" on="1"/>
        <pt x="109" y="648" on="1"/>
        <pt x="359" y="648" on="1"/>
        <pt x="349" y="608" on="1"/>
        <pt x="247" y="608" on="1"/>
        <pt x="313" y="89" on="1"/>
        <pt x="315" y="89" on="1"/>
        <pt x="633" y="608" on="1"/>
        <pt x="541" y="608" on="1"/>
        <pt x="551" y="648" on="1"/>
        <pt x="767" y="648" on="1"/>
        <pt x="757" y="608" on="1"/>
        <pt x="688" y="608" on="1"/>
        <pt x="304" y="-4" on="1"/>
      </contour>
    </TTGlyph>
    <TTGlyph name="W" xMin="99" yMin="-4" xMax="1058" yMax="648">
      <contour>
        <pt x="219" y="-4" on="1"/>
        <pt x="175" y="608" on="1"/>
        <pt x="99" y="608" on="1"/>
        <pt x="109" y="648" on="1"/>
        <pt x="359" y="648" on="1"/>
        <pt x="349" y="608" on="1"/>
        <pt x="243" y="608" on="1"/>
        <pt x="275" y="97" on="1"/>
        <pt x="277" y="97" on="1"/>
        <pt x="541" y="563" on="1"/>
        <pt x="538" y="608" on="1"/>
        <pt x="464" y="608" on="1"/>
        <pt x="474" y="648" on="1"/>
        <pt x="721" y="648" on="1"/>
        <pt x="711" y="608" on="1"/>
        <pt x="605" y="608" on="1"/>
        <pt x="637" y="97" on="1"/>
        <pt x="639" y="97" on="1"/>
        <pt x="926" y="608" on="1"/>
        <pt x="834" y="608" on="1"/>
        <pt x="844" y="648" on="1"/>
        <pt x="1058" y="648" on="1"/>
        <pt x="1048" y="608" on="1"/>
        <pt x="979" y="608" on="1"/>
        <pt x="628" y="-4" on="1"/>
        <pt x="581" y="-4" on="1"/>
        <pt x="546" y="490" on="1"/>
        <pt x="266" y="-4" on="1"/>
      </contour>
    </TTGlyph>
    <TTGlyph name="Wacute" xMin="99" yMin="-4" xMax="1058" yMax="930">
      <component glyphName="W" x="0" y="0" flags="0x204"/>
      <component glyphName="acute" x="447" y="213" flags="0x4"/>
    </TTGlyph>
    <TTGlyph name="Wcircumflex" xMin="99" yMin="-4" xMax="1058" yMax="916">
      <component glyphName="W" x="0" y="0" flags="0x204"/>
      <component glyphName="circumflex" x="370" y="213" flags="0x4"/>
    </TTGlyph>
    <TTGlyph name="Wdieresis" xMin="99" yMin="-4" xMax="1058" yMax="859">
      <component glyphName="W" x="0" y="0" flags="0x204"/>
      <component glyphName="dieresis" x="361" y="213" flags="0x4"/>
    </TTGlyph>
    <TTGlyph name="Wgrave" xMin="99" yMin="-4" xMax="1058" yMax="930">
      <component glyphName="W" x="0" y="0" flags="0x204"/>
      <component glyphName="grave" x="367" y="213" flags="0x4"/>
    </TTGlyph>
    <TTGlyph name="X" xMin="-43" yMin="0" xMax="729" yMax="648">
      <contour>
        <pt x="-43" y="0" on="1"/>
        <pt x="-33" y="40" on="1"/>
        <pt x="44" y="40" on="1"/>
        <pt x="313" y="329" on="1"/>
        <pt x="201" y="608" on="1"/>
        <pt x="117" y="608" on="1"/>
        <pt x="127" y="648" on="1"/>
        <pt x="382" y="648" on="1"/>
        <pt x="372" y="608" on="1"/>
        <pt x="278" y="608" on="1"/>
        <pt x="367" y="373" on="1"/>
        <pt x="581" y="608" on="1"/>
        <pt x="489" y="608" on="1"/>
        <pt x="499" y="648" on="1"/>
        <pt x="729" y="648" on="1"/>
        <pt x="719" y="608" on="1"/>
        <pt x="643" y="608" on="1"/>
        <pt x="388" y="333" on="1"/>
        <pt x="506" y="40" on="1"/>
        <pt x="590" y="40" on="1"/>
        <pt x="580" y="0" on="1"/>
        <pt x="326" y="0" on="1"/>
        <pt x="336" y="40" on="1"/>
        <pt x="429" y="40" on="1"/>
        <pt x="333" y="288" on="1"/>
        <pt x="106" y="40" on="1"/>
        <pt x="195" y="40" on="1"/>
        <pt x="185" y="0" on="1"/>
      </contour>
    </TTGlyph>
    <TTGlyph name="Y" xMin="126" yMin="0" xMax="737" yMax="648">
      <contour>
        <pt x="131" y="0" on="1"/>
        <pt x="141" y="40" on="1"/>
        <pt x="240" y="40" on="1"/>
        <pt x="302" y="283" on="1"/>
        <pt x="208" y="608" on="1"/>
        <pt x="126" y="608" on="1"/>
        <pt x="136" y="648" on="1"/>
        <pt x="383" y="648" on="1"/>
        <pt x="373" y="608" on="1"/>
        <pt x="283" y="608" on="1"/>
        <pt x="361" y="321" on="1"/>
        <pt x="593" y="608" on="1"/>
        <pt x="510" y="608" on="1"/>
        <pt x="520" y="648" on="1"/>
        <pt x="737" y="648" on="1"/>
        <pt x="727" y="608" on="1"/>
        <pt x="650" y="608" on="1"/>
        <pt x="370" y="270" on="1"/>
        <pt x="310" y="40" on="1"/>
        <pt x="413" y="40" on="1"/>
        <pt x="403" y="0" on="1"/>
      </contour>
    </TTGlyph>
    <TTGlyph name="Yacute" xMin="126" yMin="0" xMax="737" yMax="930">
      <component glyphName="Y" x="0" y="0" flags="0x204"/>
      <component glyphName="acute" x="301" y="213" flags="0x4"/>
    </TTGlyph>
    <TTGlyph name="Ycircumflex" xMin="126" yMin="0" xMax="737" yMax="916">
      <component glyphName="Y" x="0" y="0" flags="0x204"/>
      <component glyphName="circumflex" x="224" y="213" flags="0x4"/>
    </TTGlyph>
    <TTGlyph name="Ydieresis" xMin="126" yMin="0" xMax="737" yMax="859">
      <component glyphName="Y" x="0" y="0" flags="0x204"/>
      <component glyphName="dieresis" x="215" y="213" flags="0x4"/>
    </TTGlyph>
    <TTGlyph name="Ygrave" xMin="126" yMin="0" xMax="737" yMax="930">
      <component glyphName="Y" x="0" y="0" flags="0x204"/>
      <component glyphName="grave" x="221" y="213" flags="0x4"/>
    </TTGlyph>
    <TTGlyph name="Z" xMin="-18" yMin="0" xMax="635" yMax="648">
      <contour>
        <pt x="-18" y="0" on="1"/>
        <pt x="-12" y="25" on="1"/>
        <pt x="530" y="608" on="1"/>
        <pt x="260" y="608" on="1"/>
        <pt x="245" y="608" on="0"/>
        <pt x="223" y="600" on="0"/>
        <pt x="199" y="566" on="0"/>
        <pt x="168" y="496" on="0"/>
        <pt x="144" y="436" on="1"/>
        <pt x="114" y="436" on="1"/>
        <pt x="166" y="648" on="1"/>
        <pt x="635" y="648" on="1"/>
        <pt x="628" y="623" on="1"/>
        <pt x="89" y="40" on="1"/>
        <pt x="379" y="40" on="1"/>
        <pt x="394" y="40" on="0"/>
        <pt x="416" y="50" on="0"/>
        <pt x="440" y="87" on="0"/>
        <pt x="471" y="159" on="0"/>
        <pt x="496" y="219" on="1"/>
        <pt x="526" y="219" on="1"/>
        <pt x="472" y="0" on="1"/>
      </contour>
    </TTGlyph>
    <TTGlyph name="Zacute" xMin="-18" yMin="0" xMax="635" yMax="930">
      <component glyphName="Z" x="0" y="0" flags="0x204"/>
      <component glyphName="acute" x="237" y="213" flags="0x4"/>
    </TTGlyph>
    <TTGlyph name="Zcaron" xMin="-18" yMin="0" xMax="635" yMax="925">
      <component glyphName="Z" x="0" y="0" flags="0x204"/>
      <component glyphName="caron" x="163" y="213" flags="0x4"/>
    </TTGlyph>
    <TTGlyph name="Zdotaccent" xMin="-18" yMin="0" xMax="635" yMax="836">
      <component glyphName="Z" x="0" y="0" flags="0x204"/>
      <component glyphName="dotaccent" x="228" y="213" flags="0x4"/>
    </TTGlyph>
    <TTGlyph name="a" xMin="33" yMin="-9" xMax="486" yMax="452">
      <contour>
        <pt x="148" y="-9" on="1"/>
        <pt x="99" y="-9" on="0"/>
        <pt x="33" y="68" on="0"/>
        <pt x="33" y="139" on="1"/>
        <pt x="33" y="210" on="0"/>
        <pt x="91" y="345" on="0"/>
        <pt x="136" y="390" on="1"/>
        <pt x="164" y="418" on="0"/>
        <pt x="230" y="452" on="0"/>
        <pt x="263" y="452" on="1"/>
        <pt x="297" y="452" on="0"/>
        <pt x="351" y="407" on="0"/>
        <pt x="361" y="357" on="1"/>
        <pt x="385" y="446" on="1"/>
        <pt x="447" y="446" on="1"/>
        <pt x="372" y="169" on="1"/>
        <pt x="362" y="131" on="0"/>
        <pt x="354" y="89" on="0"/>
        <pt x="354" y="73" on="1"/>
        <pt x="354" y="65" on="0"/>
        <pt x="362" y="39" on="0"/>
        <pt x="379" y="39" on="1"/>
        <pt x="401" y="39" on="0"/>
        <pt x="439" y="102" on="0"/>
        <pt x="459" y="157" on="1"/>
        <pt x="486" y="148" on="1"/>
        <pt x="452" y="55" on="0"/>
        <pt x="395" y="-9" on="0"/>
        <pt x="364" y="-9" on="1"/>
        <pt x="338" y="-9" on="0"/>
        <pt x="300" y="29" on="0"/>
        <pt x="300" y="71" on="1"/>
        <pt x="300" y="79" on="0"/>
        <pt x="302" y="96" on="0"/>
        <pt x="303" y="99" on="1"/>
        <pt x="296" y="102" on="1"/>
        <pt x="262" y="50" on="0"/>
        <pt x="189" y="-9" on="0"/>
      </contour>
      <contour>
        <pt x="168" y="38" on="1"/>
        <pt x="200" y="38" on="0"/>
        <pt x="264" y="92" on="0"/>
        <pt x="313" y="172" on="0"/>
        <pt x="344" y="266" on="0"/>
        <pt x="344" y="304" on="1"/>
        <pt x="344" y="319" on="0"/>
        <pt x="337" y="358" on="0"/>
        <pt x="319" y="392" on="0"/>
        <pt x="289" y="415" on="0"/>
        <pt x="266" y="415" on="1"/>
        <pt x="235" y="415" on="0"/>
        <pt x="174" y="364" on="0"/>
        <pt x="127" y="285" on="0"/>
        <pt x="98" y="185" on="0"/>
        <pt x="98" y="137" on="1"/>
        <pt x="98" y="87" on="0"/>
        <pt x="137" y="38" on="0"/>
      </contour>
    </TTGlyph>
    <TTGlyph name="aacute" xMin="33" yMin="-9" xMax="486" yMax="717">
      <component glyphName="a" x="0" y="0" flags="0x204"/>
      <component glyphName="acute" x="153" y="0" flags="0x4"/>
    </TTGlyph>
    <TTGlyph name="abreve" xMin="33" yMin="-9" xMax="486" yMax="673">
      <component glyphName="a" x="0" y="0" flags="0x204"/>
      <component glyphName="breve" x="69" y="0" flags="0x4"/>
    </TTGlyph>
    <TTGlyph name="acircumflex" xMin="33" yMin="-9" xMax="486" yMax="703">
      <component glyphName="a" x="0" y="0" flags="0x204"/>
      <component glyphName="circumflex" x="76" y="0" flags="0x4"/>
    </TTGlyph>
    <TTGlyph name="acute" xMin="133" yMin="523" xMax="318" yMax="717">
      <contour>
        <pt x="133" y="523" on="1"/>
        <pt x="213" y="641" on="1"/>
        <pt x="242" y="684" on="0"/>
        <pt x="272" y="717" on="0"/>
        <pt x="288" y="717" on="1"/>
        <pt x="301" y="717" on="0"/>
        <pt x="318" y="700" on="0"/>
        <pt x="318" y="687" on="1"/>
        <pt x="318" y="668" on="0"/>
        <pt x="286" y="635" on="0"/>
        <pt x="257" y="608" on="1"/>
        <pt x="165" y="523" on="1"/>
      </contour>
    </TTGlyph>
    <TTGlyph name="adieresis" xMin="33" yMin="-9" xMax="486" yMax="646">
      <component glyphName="a" x="0" y="0" flags="0x204"/>
      <component glyphName="dieresis" x="67" y="0" flags="0x4"/>
    </TTGlyph>
    <TTGlyph name="ae" xMin="11" yMin="-9" xMax="656" yMax="452">
      <contour>
        <pt x="436" y="-9" on="1"/>
        <pt x="383" y="-9" on="0"/>
        <pt x="317" y="43" on="0"/>
        <pt x="304" y="89" on="1"/>
        <pt x="279" y="56" on="0"/>
        <pt x="228" y="18" on="0"/>
        <pt x="182" y="-2" on="0"/>
        <pt x="142" y="-7" on="0"/>
        <pt x="129" y="-7" on="1"/>
        <pt x="73" y="-7" on="0"/>
        <pt x="11" y="50" on="0"/>
        <pt x="11" y="94" on="1"/>
        <pt x="11" y="134" on="0"/>
        <pt x="59" y="192" on="0"/>
        <pt x="141" y="229" on="0"/>
        <pt x="253" y="248" on="0"/>
        <pt x="316" y="251" on="1"/>
        <pt x="326" y="291" on="0"/>
        <pt x="333" y="321" on="0"/>
        <pt x="333" y="334" on="1"/>
        <pt x="333" y="373" on="0"/>
        <pt x="275" y="418" on="0"/>
        <pt x="230" y="418" on="1"/>
        <pt x="211" y="418" on="0"/>
        <pt x="171" y="408" on="0"/>
        <pt x="160" y="401" on="1"/>
        <pt x="167" y="395" on="0"/>
        <pt x="175" y="372" on="0"/>
        <pt x="175" y="362" on="1"/>
        <pt x="175" y="343" on="0"/>
        <pt x="150" y="308" on="0"/>
        <pt x="125" y="308" on="1"/>
        <pt x="108" y="308" on="0"/>
        <pt x="84" y="332" on="0"/>
        <pt x="84" y="351" on="1"/>
        <pt x="84" y="375" on="0"/>
        <pt x="110" y="412" on="0"/>
        <pt x="154" y="437" on="0"/>
        <pt x="210" y="450" on="0"/>
        <pt x="240" y="450" on="1"/>
        <pt x="291" y="450" on="0"/>
        <pt x="371" y="403" on="0"/>
        <pt x="381" y="362" on="1"/>
        <pt x="416" y="403" on="0"/>
        <pt x="506" y="452" on="0"/>
        <pt x="551" y="452" on="1"/>
        <pt x="602" y="452" on="0"/>
        <pt x="656" y="399" on="0"/>
        <pt x="656" y="364" on="1"/>
        <pt x="656" y="297" on="0"/>
        <pt x="509" y="204" on="0"/>
        <pt x="355" y="185" on="1"/>
        <pt x="354" y="178" on="0"/>
        <pt x="353" y="165" on="0"/>
        <pt x="353" y="158" on="1"/>
        <pt x="353" y="95" on="0"/>
        <pt x="405" y="30" on="0"/>
        <pt x="448" y="30" on="1"/>
        <pt x="491" y="30" on="0"/>
        <pt x="565" y="83" on="0"/>
        <pt x="600" y="132" on="1"/>
        <pt x="624" y="115" on="1"/>
        <pt x="588" y="64" on="0"/>
        <pt x="497" y="-9" on="0"/>
      </contour>
      <contour>
        <pt x="537" y="419" on="1"/>
        <pt x="506" y="419" on="0"/>
        <pt x="448" y="383" on="0"/>
        <pt x="401" y="325" on="0"/>
        <pt x="367" y="251" on="0"/>
        <pt x="359" y="214" on="1"/>
        <pt x="430" y="224" on="0"/>
        <pt x="521" y="256" on="0"/>
        <pt x="574" y="296" on="0"/>
        <pt x="595" y="340" on="0"/>
        <pt x="595" y="362" on="1"/>
        <pt x="595" y="389" on="0"/>
        <pt x="562" y="419" on="0"/>
      </contour>
      <contour>
        <pt x="152" y="33" on="1"/>
        <pt x="197" y="33" on="0"/>
        <pt x="275" y="90" on="0"/>
        <pt x="298" y="122" on="1"/>
        <pt x="297" y="129" on="0"/>
        <pt x="297" y="144" on="0"/>
        <pt x="297" y="151" on="1"/>
        <pt x="297" y="169" on="0"/>
        <pt x="302" y="206" on="0"/>
        <pt x="306" y="223" on="1"/>
        <pt x="177" y="216" on="0"/>
        <pt x="81" y="147" on="0"/>
        <pt x="81" y="104" on="1"/>
        <pt x="81" y="74" on="0"/>
        <pt x="116" y="33" on="0"/>
      </contour>
    </TTGlyph>
    <TTGlyph name="aeacute" xMin="11" yMin="-9" xMax="656" yMax="717">
      <component glyphName="ae" x="0" y="0" flags="0x204"/>
      <component glyphName="acute" x="268" y="0" flags="0x4"/>
    </TTGlyph>
    <TTGlyph name="agrave" xMin="33" yMin="-9" xMax="486" yMax="717">
      <component glyphName="a" x="0" y="0" flags="0x204"/>
      <component glyphName="grave" x="73" y="0" flags="0x4"/>
    </TTGlyph>
    <TTGlyph name="amacron" xMin="33" yMin="-9" xMax="486" yMax="595">
      <component glyphName="a" x="0" y="0" flags="0x204"/>
      <component glyphName="macron" x="78" y="0" flags="0x4"/>
    </TTGlyph>
    <TTGlyph name="ampersand" xMin="28" yMin="-16" xMax="647" yMax="620">
      <contour>
        <pt x="182" y="-16" on="1"/>
        <pt x="113" y="-16" on="0"/>
        <pt x="28" y="66" on="0"/>
        <pt x="28" y="129" on="1"/>
        <pt x="28" y="199" on="0"/>
        <pt x="134" y="300" on="0"/>
        <pt x="238" y="333" on="1"/>
        <pt x="210" y="372" on="0"/>
        <pt x="190" y="430" on="0"/>
        <pt x="190" y="461" on="1"/>
        <pt x="190" y="499" on="0"/>
        <pt x="218" y="558" on="0"/>
        <pt x="263" y="599" on="0"/>
        <pt x="323" y="620" on="0"/>
        <pt x="354" y="620" on="1"/>
        <pt x="408" y="620" on="0"/>
        <pt x="486" y="554" on="0"/>
        <pt x="486" y="500" on="1"/>
        <pt x="486" y="480" on="0"/>
        <pt x="473" y="435" on="0"/>
        <pt x="437" y="391" on="0"/>
        <pt x="373" y="348" on="0"/>
        <pt x="323" y="330" on="1"/>
        <pt x="351" y="290" on="0"/>
        <pt x="393" y="223" on="0"/>
        <pt x="410" y="183" on="1"/>
        <pt x="432" y="214" on="0"/>
        <pt x="473" y="283" on="0"/>
        <pt x="515" y="341" on="0"/>
        <pt x="563" y="379" on="0"/>
        <pt x="591" y="379" on="1"/>
        <pt x="620" y="379" on="0"/>
        <pt x="647" y="347" on="0"/>
        <pt x="647" y="327" on="1"/>
        <pt x="647" y="302" on="0"/>
        <pt x="619" y="265" on="0"/>
        <pt x="599" y="265" on="1"/>
        <pt x="574" y="265" on="0"/>
        <pt x="559" y="309" on="0"/>
        <pt x="572" y="333" on="1"/>
        <pt x="552" y="326" on="0"/>
        <pt x="516" y="288" on="0"/>
        <pt x="482" y="237" on="0"/>
        <pt x="446" y="178" on="0"/>
        <pt x="425" y="150" on="1"/>
        <pt x="447" y="93" on="0"/>
        <pt x="478" y="36" on="0"/>
        <pt x="499" y="36" on="1"/>
        <pt x="511" y="36" on="0"/>
        <pt x="552" y="65" on="0"/>
        <pt x="577" y="126" on="1"/>
        <pt x="605" y="114" on="1"/>
        <pt x="574" y="36" on="0"/>
        <pt x="513" y="-14" on="0"/>
        <pt x="482" y="-14" on="1"/>
        <pt x="445" y="-14" on="0"/>
        <pt x="399" y="33" on="0"/>
        <pt x="377" y="94" on="1"/>
        <pt x="335" y="45" on="0"/>
        <pt x="243" y="-16" on="0"/>
      </contour>
      <contour>
        <pt x="252" y="484" on="1"/>
        <pt x="252" y="467" on="0"/>
        <pt x="270" y="408" on="0"/>
        <pt x="305" y="356" on="1"/>
        <pt x="378" y="387" on="0"/>
        <pt x="427" y="465" on="0"/>
        <pt x="427" y="499" on="1"/>
        <pt x="427" y="533" on="0"/>
        <pt x="387" y="584" on="0"/>
        <pt x="346" y="584" on="1"/>
        <pt x="309" y="584" on="0"/>
        <pt x="252" y="533" on="0"/>
      </contour>
      <contour>
        <pt x="99" y="139" on="1"/>
        <pt x="99" y="91" on="0"/>
        <pt x="157" y="35" on="0"/>
        <pt x="200" y="35" on="1"/>
        <pt x="251" y="35" on="0"/>
        <pt x="329" y="87" on="0"/>
        <pt x="363" y="127" on="1"/>
        <pt x="341" y="187" on="0"/>
        <pt x="287" y="269" on="0"/>
        <pt x="257" y="309" on="1"/>
        <pt x="165" y="276" on="0"/>
        <pt x="99" y="186" on="0"/>
      </contour>
    </TTGlyph>
    <TTGlyph name="aogonek" xMin="33" yMin="-233" xMax="486" yMax="452">
      <contour>
        <pt x="306" y="-233" on="1"/>
        <pt x="276" y="-233" on="0"/>
        <pt x="225" y="-196" on="0"/>
        <pt x="225" y="-157" on="1"/>
        <pt x="225" y="-120" on="0"/>
        <pt x="284" y="-51" on="0"/>
        <pt x="349" y="-7" on="1"/>
        <pt x="328" y="-3" on="0"/>
        <pt x="300" y="35" on="0"/>
        <pt x="300" y="71" on="1"/>
        <pt x="300" y="79" on="0"/>
        <pt x="302" y="96" on="0"/>
        <pt x="303" y="99" on="1"/>
        <pt x="296" y="102" on="1"/>
        <pt x="262" y="50" on="0"/>
        <pt x="189" y="-9" on="0"/>
        <pt x="148" y="-9" on="1"/>
        <pt x="99" y="-9" on="0"/>
        <pt x="33" y="68" on="0"/>
        <pt x="33" y="139" on="1"/>
        <pt x="33" y="210" on="0"/>
        <pt x="91" y="345" on="0"/>
        <pt x="136" y="390" on="1"/>
        <pt x="164" y="418" on="0"/>
        <pt x="230" y="452" on="0"/>
        <pt x="263" y="452" on="1"/>
        <pt x="297" y="452" on="0"/>
        <pt x="351" y="407" on="0"/>
        <pt x="361" y="357" on="1"/>
        <pt x="385" y="446" on="1"/>
        <pt x="447" y="446" on="1"/>
        <pt x="372" y="169" on="1"/>
        <pt x="362" y="131" on="0"/>
        <pt x="354" y="89" on="0"/>
        <pt x="354" y="73" on="1"/>
        <pt x="354" y="65" on="0"/>
        <pt x="362" y="39" on="0"/>
        <pt x="379" y="39" on="1"/>
        <pt x="401" y="39" on="0"/>
        <pt x="439" y="102" on="0"/>
        <pt x="459" y="157" on="1"/>
        <pt x="486" y="148" on="1"/>
        <pt x="481" y="135" on="0"/>
        <pt x="466" y="95" on="0"/>
        <pt x="445" y="53" on="0"/>
        <pt x="417" y="12" on="0"/>
        <pt x="398" y="-3" on="1"/>
        <pt x="376" y="-20" on="0"/>
        <pt x="333" y="-54" on="0"/>
        <pt x="299" y="-89" on="0"/>
        <pt x="278" y="-128" on="0"/>
        <pt x="278" y="-150" on="1"/>
        <pt x="278" y="-170" on="0"/>
        <pt x="302" y="-195" on="0"/>
        <pt x="324" y="-195" on="1"/>
        <pt x="340" y="-195" on="0"/>
        <pt x="369" y="-184" on="0"/>
        <pt x="379" y="-178" on="1"/>
        <pt x="391" y="-201" on="1"/>
        <pt x="373" y="-216" on="0"/>
        <pt x="330" y="-233" on="0"/>
      </contour>
      <contour>
        <pt x="168" y="38" on="1"/>
        <pt x="200" y="38" on="0"/>
        <pt x="264" y="92" on="0"/>
        <pt x="313" y="172" on="0"/>
        <pt x="344" y="266" on="0"/>
        <pt x="344" y="304" on="1"/>
        <pt x="344" y="319" on="0"/>
        <pt x="337" y="358" on="0"/>
        <pt x="319" y="392" on="0"/>
        <pt x="289" y="415" on="0"/>
        <pt x="266" y="415" on="1"/>
        <pt x="235" y="415" on="0"/>
        <pt x="174" y="364" on="0"/>
        <pt x="127" y="285" on="0"/>
        <pt x="98" y="185" on="0"/>
        <pt x="98" y="137" on="1"/>
        <pt x="98" y="87" on="0"/>
        <pt x="137" y="38" on="0"/>
      </contour>
    </TTGlyph>
    <TTGlyph name="aring" xMin="33" yMin="-9" xMax="486" yMax="717">
      <component glyphName="a" x="0" y="0" flags="0x204"/>
      <component glyphName="ring" x="111" y="0" flags="0x4"/>
    </TTGlyph>
    <TTGlyph name="aringacute" xMin="33" yMin="-9" xMax="532" yMax="956">
      <component glyphName="a" x="0" y="0" flags="0x204"/>
      <component glyphName="ring" x="111" y="0" flags="0x4"/>
      <component glyphName="acute" x="214" y="239" flags="0x4"/>
    </TTGlyph>
    <TTGlyph name="asciicircum" xMin="62" yMin="287" xMax="444" yMax="633">
      <contour>
        <pt x="62" y="287" on="1"/>
        <pt x="324" y="633" on="1"/>
        <pt x="355" y="633" on="1"/>
        <pt x="444" y="287" on="1"/>
        <pt x="399" y="287" on="1"/>
        <pt x="328" y="575" on="1"/>
        <pt x="114" y="287" on="1"/>
      </contour>
    </TTGlyph>
    <TTGlyph name="asciicircum.osf" xMin="60" yMin="280" xMax="442" yMax="626">
      <contour>
        <pt x="60" y="280" on="1"/>
        <pt x="322" y="626" on="1"/>
        <pt x="353" y="626" on="1"/>
        <pt x="442" y="280" on="1"/>
        <pt x="397" y="280" on="1"/>
        <pt x="326" y="568" on="1"/>
        <pt x="112" y="280" on="1"/>
      </contour>
    </TTGlyph>
    <TTGlyph name="asciicircum.tab" xMin="95" yMin="287" xMax="477" yMax="633">
      <contour>
        <pt x="95" y="287" on="1"/>
        <pt x="357" y="633" on="1"/>
        <pt x="388" y="633" on="1"/>
        <pt x="477" y="287" on="1"/>
        <pt x="432" y="287" on="1"/>
        <pt x="361" y="575" on="1"/>
        <pt x="147" y="287" on="1"/>
      </contour>
    </TTGlyph>
    <TTGlyph name="asciitilde" xMin="70" yMin="201" xMax="644" yMax="421">
      <contour>
        <pt x="110" y="201" on="1"/>
        <pt x="70" y="221" on="1"/>
        <pt x="117" y="325" on="0"/>
        <pt x="201" y="418" on="0"/>
        <pt x="254" y="418" on="1"/>
        <pt x="290" y="418" on="0"/>
        <pt x="345" y="365" on="0"/>
        <pt x="392" y="303" on="0"/>
        <pt x="438" y="250" on="0"/>
        <pt x="465" y="250" on="1"/>
        <pt x="505" y="250" on="0"/>
        <pt x="570" y="346" on="0"/>
        <pt x="604" y="421" on="1"/>
        <pt x="644" y="401" on="1"/>
        <pt x="597" y="297" on="0"/>
        <pt x="513" y="204" on="0"/>
        <pt x="461" y="204" on="1"/>
        <pt x="424" y="204" on="0"/>
        <pt x="369" y="257" on="0"/>
        <pt x="322" y="319" on="0"/>
        <pt x="276" y="372" on="0"/>
        <pt x="249" y="372" on="1"/>
        <pt x="209" y="372" on="0"/>
        <pt x="144" y="276" on="0"/>
      </contour>
    </TTGlyph>
    <TTGlyph name="asciitilde.osf" xMin="61" yMin="165" xMax="635" yMax="385">
      <contour>
        <pt x="101" y="165" on="1"/>
        <pt x="61" y="185" on="1"/>
        <pt x="108" y="289" on="0"/>
        <pt x="192" y="382" on="0"/>
        <pt x="245" y="382" on="1"/>
        <pt x="281" y="382" on="0"/>
        <pt x="336" y="329" on="0"/>
        <pt x="383" y="267" on="0"/>
        <pt x="429" y="214" on="0"/>
        <pt x="456" y="214" on="1"/>
        <pt x="496" y="214" on="0"/>
        <pt x="561" y="310" on="0"/>
        <pt x="595" y="385" on="1"/>
        <pt x="635" y="365" on="1"/>
        <pt x="588" y="261" on="0"/>
        <pt x="504" y="168" on="0"/>
        <pt x="452" y="168" on="1"/>
        <pt x="415" y="168" on="0"/>
        <pt x="360" y="221" on="0"/>
        <pt x="313" y="283" on="0"/>
        <pt x="267" y="336" on="0"/>
        <pt x="240" y="336" on="1"/>
        <pt x="200" y="336" on="0"/>
        <pt x="135" y="240" on="0"/>
      </contour>
    </TTGlyph>
    <TTGlyph name="asciitilde.tab" xMin="32" yMin="201" xMax="550" yMax="421">
      <contour>
        <pt x="71" y="201" on="1"/>
        <pt x="32" y="223" on="1"/>
        <pt x="83" y="327" on="0"/>
        <pt x="171" y="418" on="0"/>
        <pt x="217" y="418" on="1"/>
        <pt x="250" y="418" on="0"/>
        <pt x="290" y="365" on="0"/>
        <pt x="319" y="303" on="0"/>
        <pt x="348" y="250" on="0"/>
        <pt x="372" y="250" on="1"/>
        <pt x="406" y="250" on="0"/>
        <pt x="477" y="346" on="0"/>
        <pt x="511" y="421" on="1"/>
        <pt x="550" y="399" on="1"/>
        <pt x="499" y="295" on="0"/>
        <pt x="412" y="204" on="0"/>
        <pt x="366" y="204" on="1"/>
        <pt x="332" y="204" on="0"/>
        <pt x="293" y="257" on="0"/>
        <pt x="263" y="319" on="0"/>
        <pt x="234" y="372" on="0"/>
        <pt x="210" y="372" on="1"/>
        <pt x="176" y="372" on="0"/>
        <pt x="105" y="276" on="0"/>
      </contour>
    </TTGlyph>
    <TTGlyph name="asterisk" xMin="152" yMin="391" xMax="453" yMax="699">
      <contour>
        <pt x="353" y="396" on="1"/>
        <pt x="340" y="391" on="0"/>
        <pt x="319" y="400" on="0"/>
        <pt x="313" y="416" on="1"/>
        <pt x="306" y="435" on="0"/>
        <pt x="300" y="504" on="0"/>
        <pt x="296" y="524" on="1"/>
        <pt x="284" y="526" on="1"/>
        <pt x="272" y="510" on="0"/>
        <pt x="232" y="452" on="0"/>
        <pt x="218" y="440" on="1"/>
        <pt x="206" y="429" on="0"/>
        <pt x="183" y="429" on="0"/>
        <pt x="173" y="441" on="1"/>
        <pt x="163" y="452" on="0"/>
        <pt x="166" y="475" on="0"/>
        <pt x="179" y="485" on="1"/>
        <pt x="186" y="491" on="0"/>
        <pt x="212" y="505" on="0"/>
        <pt x="240" y="519" on="0"/>
        <pt x="267" y="532" on="0"/>
        <pt x="276" y="536" on="1"/>
        <pt x="276" y="547" on="1"/>
        <pt x="266" y="550" on="0"/>
        <pt x="237" y="559" on="0"/>
        <pt x="208" y="568" on="0"/>
        <pt x="181" y="578" on="0"/>
        <pt x="173" y="583" on="1"/>
        <pt x="160" y="592" on="0"/>
        <pt x="152" y="614" on="0"/>
        <pt x="160" y="627" on="1"/>
        <pt x="168" y="640" on="0"/>
        <pt x="192" y="644" on="0"/>
        <pt x="206" y="634" on="1"/>
        <pt x="221" y="624" on="0"/>
        <pt x="268" y="572" on="0"/>
        <pt x="282" y="558" on="1"/>
        <pt x="293" y="561" on="1"/>
        <pt x="294" y="583" on="0"/>
        <pt x="291" y="652" on="0"/>
        <pt x="295" y="670" on="1"/>
        <pt x="299" y="686" on="0"/>
        <pt x="319" y="699" on="0"/>
        <pt x="335" y="695" on="1"/>
        <pt x="349" y="691" on="0"/>
        <pt x="357" y="670" on="0"/>
        <pt x="353" y="654" on="1"/>
        <pt x="349" y="638" on="0"/>
        <pt x="314" y="577" on="0"/>
        <pt x="305" y="559" on="1"/>
        <pt x="313" y="550" on="1"/>
        <pt x="331" y="556" on="0"/>
        <pt x="398" y="580" on="0"/>
        <pt x="417" y="581" on="1"/>
        <pt x="433" y="582" on="0"/>
        <pt x="451" y="569" on="0"/>
        <pt x="452" y="553" on="1"/>
        <pt x="453" y="538" on="0"/>
        <pt x="438" y="522" on="0"/>
        <pt x="420" y="521" on="1"/>
        <pt x="411" y="521" on="0"/>
        <pt x="383" y="525" on="0"/>
        <pt x="352" y="531" on="0"/>
        <pt x="322" y="537" on="0"/>
        <pt x="312" y="538" on="1"/>
        <pt x="307" y="527" on="1"/>
        <pt x="319" y="511" on="0"/>
        <pt x="361" y="455" on="0"/>
        <pt x="368" y="438" on="1"/>
        <pt x="374" y="422" on="0"/>
        <pt x="368" y="402" on="0"/>
      </contour>
    </TTGlyph>
    <TTGlyph name="at" xMin="58" yMin="-146" xMax="853" yMax="674">
      <contour>
        <pt x="411" y="-146" on="1"/>
        <pt x="334" y="-146" on="0"/>
        <pt x="203" y="-101" on="0"/>
        <pt x="110" y="-16" on="0"/>
        <pt x="58" y="109" on="0"/>
        <pt x="58" y="188" on="1"/>
        <pt x="58" y="291" on="0"/>
        <pt x="134" y="469" on="0"/>
        <pt x="263" y="599" on="0"/>
        <pt x="435" y="674" on="0"/>
        <pt x="530" y="674" on="1"/>
        <pt x="598" y="674" on="0"/>
        <pt x="717" y="632" on="0"/>
        <pt x="803" y="554" on="0"/>
        <pt x="853" y="441" on="0"/>
        <pt x="853" y="371" on="1"/>
        <pt x="853" y="296" on="0"/>
        <pt x="812" y="178" on="0"/>
        <pt x="748" y="98" on="0"/>
        <pt x="665" y="55" on="0"/>
        <pt x="623" y="55" on="1"/>
        <pt x="569" y="55" on="0"/>
        <pt x="517" y="116" on="0"/>
        <pt x="523" y="167" on="1"/>
        <pt x="516" y="170" on="1"/>
        <pt x="484" y="124" on="0"/>
        <pt x="415" y="73" on="0"/>
        <pt x="376" y="73" on="1"/>
        <pt x="330" y="73" on="0"/>
        <pt x="268" y="140" on="0"/>
        <pt x="268" y="200" on="1"/>
        <pt x="268" y="249" on="0"/>
        <pt x="304" y="346" on="0"/>
        <pt x="363" y="423" on="0"/>
        <pt x="440" y="470" on="0"/>
        <pt x="481" y="470" on="1"/>
        <pt x="512" y="470" on="0"/>
        <pt x="567" y="431" on="0"/>
        <pt x="576" y="388" on="1"/>
        <pt x="600" y="465" on="1"/>
        <pt x="656" y="465" on="1"/>
        <pt x="582" y="219" on="1"/>
        <pt x="562" y="152" on="0"/>
        <pt x="590" y="91" on="0"/>
        <pt x="634" y="91" on="1"/>
        <pt x="668" y="91" on="0"/>
        <pt x="733" y="131" on="0"/>
        <pt x="783" y="203" on="0"/>
        <pt x="814" y="307" on="0"/>
        <pt x="814" y="370" on="1"/>
        <pt x="814" y="432" on="0"/>
        <pt x="772" y="531" on="0"/>
        <pt x="696" y="600" on="0"/>
        <pt x="589" y="638" on="0"/>
        <pt x="525" y="638" on="1"/>
        <pt x="436" y="638" on="0"/>
        <pt x="279" y="565" on="0"/>
        <pt x="164" y="443" on="0"/>
        <pt x="97" y="278" on="0"/>
        <pt x="97" y="187" on="1"/>
        <pt x="97" y="50" on="0"/>
        <pt x="269" y="-110" on="0"/>
        <pt x="414" y="-110" on="1"/>
        <pt x="474" y="-110" on="0"/>
        <pt x="586" y="-79" on="0"/>
        <pt x="634" y="-53" on="1"/>
        <pt x="649" y="-83" on="1"/>
        <pt x="600" y="-111" on="0"/>
        <pt x="473" y="-146" on="0"/>
      </contour>
      <contour>
        <pt x="395" y="117" on="1"/>
        <pt x="425" y="117" on="0"/>
        <pt x="484" y="163" on="0"/>
        <pt x="530" y="230" on="0"/>
        <pt x="558" y="309" on="0"/>
        <pt x="558" y="341" on="1"/>
        <pt x="558" y="354" on="0"/>
        <pt x="551" y="387" on="0"/>
        <pt x="533" y="415" on="0"/>
        <pt x="505" y="434" on="0"/>
        <pt x="484" y="434" on="1"/>
        <pt x="454" y="434" on="0"/>
        <pt x="398" y="391" on="0"/>
        <pt x="355" y="325" on="0"/>
        <pt x="329" y="242" on="0"/>
        <pt x="329" y="202" on="1"/>
        <pt x="329" y="160" on="0"/>
        <pt x="366" y="117" on="0"/>
      </contour>
    </TTGlyph>
    <TTGlyph name="atilde" xMin="33" yMin="-9" xMax="486" yMax="654">
      <component glyphName="a" x="0" y="0" flags="0x204"/>
      <component glyphName="tilde" x="73" y="0" flags="0x4"/>
    </TTGlyph>
    <TTGlyph name="b" xMin="48" yMin="-9" xMax="425" yMax="687">
      <contour>
        <pt x="185" y="-9" on="1"/>
        <pt x="131" y="-9" on="0"/>
        <pt x="48" y="64" on="0"/>
        <pt x="48" y="133" on="1"/>
        <pt x="48" y="169" on="0"/>
        <pt x="66" y="251" on="0"/>
        <pt x="76" y="288" on="1"/>
        <pt x="176" y="648" on="1"/>
        <pt x="81" y="648" on="1"/>
        <pt x="91" y="687" on="1"/>
        <pt x="249" y="687" on="1"/>
        <pt x="153" y="344" on="1"/>
        <pt x="160" y="341" on="1"/>
        <pt x="194" y="393" on="0"/>
        <pt x="267" y="452" on="0"/>
        <pt x="309" y="452" on="1"/>
        <pt x="359" y="452" on="0"/>
        <pt x="425" y="375" on="0"/>
        <pt x="425" y="304" on="1"/>
        <pt x="425" y="245" on="0"/>
        <pt x="383" y="131" on="0"/>
        <pt x="315" y="44" on="0"/>
        <pt x="229" y="-9" on="0"/>
      </contour>
      <contour>
        <pt x="190" y="29" on="1"/>
        <pt x="226" y="29" on="0"/>
        <pt x="288" y="83" on="0"/>
        <pt x="334" y="164" on="0"/>
        <pt x="360" y="262" on="0"/>
        <pt x="360" y="306" on="1"/>
        <pt x="360" y="356" on="0"/>
        <pt x="320" y="405" on="0"/>
        <pt x="289" y="405" on="1"/>
        <pt x="255" y="405" on="0"/>
        <pt x="190" y="349" on="0"/>
        <pt x="140" y="267" on="0"/>
        <pt x="110" y="172" on="0"/>
        <pt x="110" y="133" on="1"/>
        <pt x="110" y="94" on="0"/>
        <pt x="145" y="29" on="0"/>
      </contour>
    </TTGlyph>
    <TTGlyph name="backslash" xMin="142" yMin="-207" xMax="346" yMax="698">
      <contour>
        <pt x="304" y="-207" on="1"/>
        <pt x="142" y="690" on="1"/>
        <pt x="184" y="698" on="1"/>
        <pt x="346" y="-199" on="1"/>
      </contour>
    </TTGlyph>
    <TTGlyph name="bar" xMin="8" yMin="-206" xMax="276" yMax="698">
      <contour>
        <pt x="52" y="-206" on="1"/>
        <pt x="8" y="-199" on="1"/>
        <pt x="232" y="698" on="1"/>
        <pt x="276" y="691" on="1"/>
      </contour>
    </TTGlyph>
    <TTGlyph name="bar.tab" xMin="22" yMin="-141" xMax="290" yMax="763">
      <component glyphName="bar" x="14" y="65" flags="0x4"/>
    </TTGlyph>
    <TTGlyph name="braceleft" xMin="27" yMin="-150" xMax="482" yMax="725">
      <contour>
        <pt x="279" y="-150" on="1"/>
        <pt x="205" y="-134" on="0"/>
        <pt x="122" y="-64" on="0"/>
        <pt x="122" y="-13" on="1"/>
        <pt x="122" y="14" on="0"/>
        <pt x="138" y="74" on="0"/>
        <pt x="156" y="130" on="0"/>
        <pt x="172" y="181" on="0"/>
        <pt x="172" y="199" on="1"/>
        <pt x="172" y="228" on="0"/>
        <pt x="117" y="266" on="0"/>
        <pt x="57" y="266" on="1"/>
        <pt x="27" y="266" on="1"/>
        <pt x="37" y="305" on="1"/>
        <pt x="67" y="305" on="1"/>
        <pt x="107" y="305" on="0"/>
        <pt x="171" y="326" on="0"/>
        <pt x="194" y="349" on="1"/>
        <pt x="222" y="377" on="0"/>
        <pt x="234" y="458" on="0"/>
        <pt x="241" y="546" on="0"/>
        <pt x="259" y="633" on="0"/>
        <pt x="293" y="667" on="1"/>
        <pt x="324" y="698" on="0"/>
        <pt x="420" y="725" on="0"/>
        <pt x="482" y="721" on="1"/>
        <pt x="473" y="687" on="1"/>
        <pt x="428" y="687" on="0"/>
        <pt x="366" y="667" on="0"/>
        <pt x="347" y="648" on="1"/>
        <pt x="320" y="621" on="0"/>
        <pt x="304" y="538" on="0"/>
        <pt x="295" y="449" on="0"/>
        <pt x="279" y="365" on="0"/>
        <pt x="251" y="337" on="1"/>
        <pt x="229" y="315" on="0"/>
        <pt x="171" y="290" on="0"/>
        <pt x="139" y="285" on="1"/>
        <pt x="139" y="284" on="1"/>
        <pt x="182" y="274" on="0"/>
        <pt x="229" y="225" on="0"/>
        <pt x="229" y="191" on="1"/>
        <pt x="229" y="170" on="0"/>
        <pt x="215" y="118" on="0"/>
        <pt x="198" y="62" on="0"/>
        <pt x="184" y="6" on="0"/>
        <pt x="184" y="-18" on="1"/>
        <pt x="184" y="-45" on="0"/>
        <pt x="223" y="-100" on="0"/>
        <pt x="288" y="-116" on="1"/>
      </contour>
    </TTGlyph>
    <TTGlyph name="braceright" xMin="-94" yMin="-154" xMax="361" yMax="721">
      <contour>
        <pt x="109" y="721" on="1"/>
        <pt x="183" y="705" on="0"/>
        <pt x="266" y="635" on="0"/>
        <pt x="266" y="584" on="1"/>
        <pt x="266" y="557" on="0"/>
        <pt x="250" y="497" on="0"/>
        <pt x="232" y="441" on="0"/>
        <pt x="216" y="390" on="0"/>
        <pt x="216" y="372" on="1"/>
        <pt x="216" y="343" on="0"/>
        <pt x="271" y="305" on="0"/>
        <pt x="331" y="305" on="1"/>
        <pt x="361" y="305" on="1"/>
        <pt x="351" y="266" on="1"/>
        <pt x="321" y="266" on="1"/>
        <pt x="281" y="266" on="0"/>
        <pt x="217" y="245" on="0"/>
        <pt x="194" y="222" on="1"/>
        <pt x="166" y="194" on="0"/>
        <pt x="154" y="113" on="0"/>
        <pt x="147" y="25" on="0"/>
        <pt x="129" y="-62" on="0"/>
        <pt x="95" y="-96" on="1"/>
        <pt x="64" y="-127" on="0"/>
        <pt x="-32" y="-154" on="0"/>
        <pt x="-94" y="-150" on="1"/>
        <pt x="-85" y="-116" on="1"/>
        <pt x="-40" y="-116" on="0"/>
        <pt x="22" y="-96" on="0"/>
        <pt x="41" y="-77" on="1"/>
        <pt x="68" y="-50" on="0"/>
        <pt x="84" y="33" on="0"/>
        <pt x="93" y="122" on="0"/>
        <pt x="109" y="206" on="0"/>
        <pt x="137" y="234" on="1"/>
        <pt x="159" y="256" on="0"/>
        <pt x="217" y="281" on="0"/>
        <pt x="249" y="286" on="1"/>
        <pt x="249" y="287" on="1"/>
        <pt x="206" y="297" on="0"/>
        <pt x="159" y="346" on="0"/>
        <pt x="159" y="380" on="1"/>
        <pt x="159" y="401" on="0"/>
        <pt x="173" y="453" on="0"/>
        <pt x="190" y="509" on="0"/>
        <pt x="204" y="565" on="0"/>
        <pt x="204" y="589" on="1"/>
        <pt x="204" y="616" on="0"/>
        <pt x="165" y="671" on="0"/>
        <pt x="100" y="687" on="1"/>
      </contour>
    </TTGlyph>
    <TTGlyph name="bracketleft" xMin="-3" yMin="-149" xMax="449" yMax="719">
      <contour>
        <pt x="-3" y="-149" on="1"/>
        <pt x="213" y="719" on="1"/>
        <pt x="449" y="719" on="1"/>
        <pt x="440" y="681" on="1"/>
        <pt x="269" y="681" on="1"/>
        <pt x="71" y="-111" on="1"/>
        <pt x="242" y="-111" on="1"/>
        <pt x="233" y="-149" on="1"/>
      </contour>
    </TTGlyph>
    <TTGlyph name="bracketright" xMin="-83" yMin="-149" xMax="369" yMax="719">
      <contour>
        <pt x="369" y="719" on="1"/>
        <pt x="153" y="-149" on="1"/>
        <pt x="-83" y="-149" on="1"/>
        <pt x="-74" y="-111" on="1"/>
        <pt x="97" y="-111" on="1"/>
        <pt x="295" y="681" on="1"/>
        <pt x="124" y="681" on="1"/>
        <pt x="133" y="719" on="1"/>
      </contour>
    </TTGlyph>
    <TTGlyph name="breve" xMin="141" yMin="530" xMax="398" yMax="673">
      <contour>
        <pt x="248" y="530" on="1"/>
        <pt x="196" y="530" on="0"/>
        <pt x="141" y="607" on="0"/>
        <pt x="154" y="673" on="1"/>
        <pt x="178" y="673" on="1"/>
        <pt x="179" y="632" on="0"/>
        <pt x="216" y="584" on="0"/>
        <pt x="255" y="584" on="1"/>
        <pt x="294" y="584" on="0"/>
        <pt x="352" y="632" on="0"/>
        <pt x="374" y="673" on="1"/>
        <pt x="398" y="673" on="1"/>
        <pt x="379" y="607" on="0"/>
        <pt x="300" y="530" on="0"/>
      </contour>
    </TTGlyph>
    <TTGlyph name="bullet" xMin="137" yMin="205" xMax="345" yMax="421">
      <contour>
        <pt x="232" y="205" on="1"/>
        <pt x="190" y="205" on="0"/>
        <pt x="137" y="259" on="0"/>
        <pt x="137" y="302" on="1"/>
        <pt x="137" y="350" on="0"/>
        <pt x="204" y="421" on="0"/>
        <pt x="250" y="421" on="1"/>
        <pt x="292" y="421" on="0"/>
        <pt x="345" y="367" on="0"/>
        <pt x="345" y="324" on="1"/>
        <pt x="345" y="276" on="0"/>
        <pt x="278" y="205" on="0"/>
      </contour>
    </TTGlyph>
    <TTGlyph name="c" xMin="31" yMin="-9" xMax="397" yMax="452">
      <contour>
        <pt x="183" y="-9" on="1"/>
        <pt x="114" y="-9" on="0"/>
        <pt x="31" y="91" on="0"/>
        <pt x="31" y="169" on="1"/>
        <pt x="31" y="220" on="0"/>
        <pt x="70" y="321" on="0"/>
        <pt x="137" y="402" on="0"/>
        <pt x="227" y="452" on="0"/>
        <pt x="277" y="452" on="1"/>
        <pt x="324" y="452" on="0"/>
        <pt x="397" y="403" on="0"/>
        <pt x="397" y="360" on="1"/>
        <pt x="397" y="335" on="0"/>
        <pt x="371" y="297" on="0"/>
        <pt x="349" y="297" on="1"/>
        <pt x="333" y="297" on="0"/>
        <pt x="308" y="318" on="0"/>
        <pt x="308" y="337" on="1"/>
        <pt x="308" y="353" on="0"/>
        <pt x="325" y="382" on="0"/>
        <pt x="340" y="393" on="1"/>
        <pt x="327" y="408" on="0"/>
        <pt x="292" y="419" on="0"/>
        <pt x="276" y="419" on="1"/>
        <pt x="235" y="419" on="0"/>
        <pt x="168" y="371" on="0"/>
        <pt x="122" y="299" on="0"/>
        <pt x="97" y="212" on="0"/>
        <pt x="97" y="173" on="1"/>
        <pt x="97" y="106" on="0"/>
        <pt x="155" y="33" on="0"/>
        <pt x="198" y="33" on="1"/>
        <pt x="230" y="33" on="0"/>
        <pt x="300" y="77" on="0"/>
        <pt x="335" y="140" on="1"/>
        <pt x="360" y="125" on="1"/>
        <pt x="329" y="66" on="0"/>
        <pt x="243" y="-9" on="0"/>
      </contour>
    </TTGlyph>
    <TTGlyph name="cacute" xMin="31" yMin="-9" xMax="442" yMax="717">
      <component glyphName="c" x="0" y="0" flags="0x204"/>
      <component glyphName="acute" x="124" y="0" flags="0x4"/>
    </TTGlyph>
    <TTGlyph name="caron" xMin="150" yMin="533" xMax="396" yMax="712">
      <contour>
        <pt x="211" y="533" on="1"/>
        <pt x="150" y="712" on="1"/>
        <pt x="178" y="712" on="1"/>
        <pt x="241" y="604" on="1"/>
        <pt x="362" y="712" on="1"/>
        <pt x="396" y="712" on="1"/>
        <pt x="245" y="533" on="1"/>
      </contour>
    </TTGlyph>
    <TTGlyph name="caron.alt" xMin="155" yMin="539" xMax="264" yMax="751">
      <contour>
        <pt x="155" y="539" on="1"/>
        <pt x="193" y="695" on="1"/>
        <pt x="201" y="729" on="0"/>
        <pt x="223" y="751" on="0"/>
        <pt x="236" y="751" on="1"/>
        <pt x="246" y="751" on="0"/>
        <pt x="264" y="736" on="0"/>
        <pt x="264" y="721" on="1"/>
        <pt x="264" y="708" on="0"/>
        <pt x="249" y="672" on="0"/>
        <pt x="236" y="647" on="1"/>
        <pt x="181" y="539" on="1"/>
      </contour>
    </TTGlyph>
    <TTGlyph name="ccaron" xMin="31" yMin="-9" xMax="447" yMax="712">
      <component glyphName="c" x="0" y="0" flags="0x204"/>
      <component glyphName="caron" x="51" y="0" flags="0x4"/>
    </TTGlyph>
    <TTGlyph name="ccedilla" xMin="29" yMin="-233" xMax="397" yMax="452">
      <contour>
        <pt x="134" y="-233" on="1"/>
        <pt x="106" y="-233" on="0"/>
        <pt x="52" y="-213" on="0"/>
        <pt x="29" y="-192" on="1"/>
        <pt x="50" y="-165" on="1"/>
        <pt x="68" y="-180" on="0"/>
        <pt x="107" y="-199" on="0"/>
        <pt x="132" y="-199" on="1"/>
        <pt x="155" y="-199" on="0"/>
        <pt x="192" y="-172" on="0"/>
        <pt x="192" y="-146" on="1"/>
        <pt x="192" y="-129" on="0"/>
        <pt x="170" y="-110" on="0"/>
        <pt x="139" y="-103" on="0"/>
        <pt x="105" y="-104" on="0"/>
        <pt x="93" y="-105" on="1"/>
        <pt x="84" y="-87" on="1"/>
        <pt x="182" y="-9" on="1"/>
        <pt x="113" y="-8" on="0"/>
        <pt x="31" y="91" on="0"/>
        <pt x="31" y="169" on="1"/>
        <pt x="31" y="220" on="0"/>
        <pt x="70" y="321" on="0"/>
        <pt x="137" y="402" on="0"/>
        <pt x="227" y="452" on="0"/>
        <pt x="277" y="452" on="1"/>
        <pt x="324" y="452" on="0"/>
        <pt x="397" y="403" on="0"/>
        <pt x="397" y="360" on="1"/>
        <pt x="397" y="335" on="0"/>
        <pt x="371" y="297" on="0"/>
        <pt x="349" y="297" on="1"/>
        <pt x="333" y="297" on="0"/>
        <pt x="308" y="318" on="0"/>
        <pt x="308" y="337" on="1"/>
        <pt x="308" y="353" on="0"/>
        <pt x="325" y="382" on="0"/>
        <pt x="340" y="393" on="1"/>
        <pt x="327" y="408" on="0"/>
        <pt x="292" y="419" on="0"/>
        <pt x="276" y="419" on="1"/>
        <pt x="235" y="419" on="0"/>
        <pt x="168" y="371" on="0"/>
        <pt x="122" y="299" on="0"/>
        <pt x="97" y="212" on="0"/>
        <pt x="97" y="173" on="1"/>
        <pt x="97" y="106" on="0"/>
        <pt x="155" y="33" on="0"/>
        <pt x="198" y="33" on="1"/>
        <pt x="230" y="33" on="0"/>
        <pt x="300" y="77" on="0"/>
        <pt x="335" y="140" on="1"/>
        <pt x="360" y="125" on="1"/>
        <pt x="337" y="82" on="0"/>
        <pt x="279" y="17" on="0"/>
        <pt x="242" y="2" on="1"/>
        <pt x="151" y="-69" on="1"/>
        <pt x="151" y="-72" on="1"/>
        <pt x="192" y="-76" on="0"/>
        <pt x="240" y="-113" on="0"/>
        <pt x="240" y="-143" on="1"/>
        <pt x="240" y="-184" on="0"/>
        <pt x="175" y="-233" on="0"/>
      </contour>
    </TTGlyph>
    <TTGlyph name="cdotaccent" xMin="31" yMin="-9" xMax="397" yMax="623">
      <component glyphName="c" x="0" y="0" flags="0x204"/>
      <component glyphName="dotaccent" x="115" y="0" flags="0x4"/>
    </TTGlyph>
    <TTGlyph name="cedilla" xMin="-88" yMin="-233" xMax="134" yMax="9">
      <contour>
        <pt x="17" y="-233" on="1"/>
        <pt x="-11" y="-233" on="0"/>
        <pt x="-65" y="-213" on="0"/>
        <pt x="-88" y="-192" on="1"/>
        <pt x="-67" y="-165" on="1"/>
        <pt x="-49" y="-180" on="0"/>
        <pt x="-10" y="-199" on="0"/>
        <pt x="15" y="-199" on="1"/>
        <pt x="38" y="-199" on="0"/>
        <pt x="75" y="-172" on="0"/>
        <pt x="75" y="-146" on="1"/>
        <pt x="75" y="-129" on="0"/>
        <pt x="53" y="-110" on="0"/>
        <pt x="22" y="-103" on="0"/>
        <pt x="-12" y="-104" on="0"/>
        <pt x="-24" y="-105" on="1"/>
        <pt x="-33" y="-87" on="1"/>
        <pt x="87" y="9" on="1"/>
        <pt x="134" y="9" on="1"/>
        <pt x="34" y="-69" on="1"/>
        <pt x="34" y="-72" on="1"/>
        <pt x="75" y="-76" on="0"/>
        <pt x="123" y="-113" on="0"/>
        <pt x="123" y="-143" on="1"/>
        <pt x="123" y="-184" on="0"/>
        <pt x="58" y="-233" on="0"/>
      </contour>
    </TTGlyph>
    <TTGlyph name="cent" xMin="36" yMin="-104" xMax="428" yMax="537">
      <contour>
        <pt x="168" y="-104" on="1"/>
        <pt x="134" y="-97" on="1"/>
        <pt x="157" y="-5" on="1"/>
        <pt x="100" y="8" on="0"/>
        <pt x="36" y="102" on="0"/>
        <pt x="36" y="169" on="1"/>
        <pt x="36" y="218" on="0"/>
        <pt x="71" y="315" on="0"/>
        <pt x="133" y="394" on="0"/>
        <pt x="221" y="447" on="0"/>
        <pt x="272" y="451" on="1"/>
        <pt x="293" y="537" on="1"/>
        <pt x="327" y="530" on="1"/>
        <pt x="308" y="451" on="1"/>
        <pt x="361" y="447" on="0"/>
        <pt x="428" y="394" on="0"/>
        <pt x="428" y="354" on="1"/>
        <pt x="428" y="329" on="0"/>
        <pt x="402" y="291" on="0"/>
        <pt x="380" y="291" on="1"/>
        <pt x="364" y="291" on="0"/>
        <pt x="339" y="312" on="0"/>
        <pt x="339" y="331" on="1"/>
        <pt x="339" y="347" on="0"/>
        <pt x="356" y="376" on="0"/>
        <pt x="371" y="387" on="1"/>
        <pt x="360" y="403" on="0"/>
        <pt x="322" y="418" on="0"/>
        <pt x="299" y="419" on="1"/>
        <pt x="203" y="33" on="1"/>
        <pt x="205" y="33" on="0"/>
        <pt x="210" y="33" on="0"/>
        <pt x="213" y="33" on="1"/>
        <pt x="251" y="33" on="0"/>
        <pt x="322" y="77" on="0"/>
        <pt x="357" y="140" on="1"/>
        <pt x="382" y="125" on="1"/>
        <pt x="351" y="66" on="0"/>
        <pt x="264" y="-9" on="0"/>
        <pt x="198" y="-9" on="1"/>
        <pt x="197" y="-9" on="0"/>
        <pt x="193" y="-9" on="0"/>
        <pt x="192" y="-9" on="1"/>
      </contour>
      <contour>
        <pt x="102" y="173" on="1"/>
        <pt x="102" y="122" on="0"/>
        <pt x="139" y="54" on="0"/>
        <pt x="170" y="41" on="1"/>
        <pt x="263" y="417" on="1"/>
        <pt x="224" y="410" on="0"/>
        <pt x="163" y="359" on="0"/>
        <pt x="123" y="289" on="0"/>
        <pt x="102" y="209" on="0"/>
      </contour>
    </TTGlyph>
    <TTGlyph name="cent.tab" xMin="93" yMin="-104" xMax="497" yMax="537">
      <contour>
        <pt x="231" y="-104" on="1"/>
        <pt x="197" y="-97" on="1"/>
        <pt x="220" y="-5" on="1"/>
        <pt x="160" y="8" on="0"/>
        <pt x="93" y="101" on="0"/>
        <pt x="93" y="169" on="1"/>
        <pt x="93" y="218" on="0"/>
        <pt x="129" y="315" on="0"/>
        <pt x="193" y="393" on="0"/>
        <pt x="282" y="446" on="0"/>
        <pt x="335" y="451" on="1"/>
        <pt x="356" y="537" on="1"/>
        <pt x="390" y="530" on="1"/>
        <pt x="371" y="451" on="1"/>
        <pt x="426" y="448" on="0"/>
        <pt x="497" y="394" on="0"/>
        <pt x="497" y="354" on="1"/>
        <pt x="497" y="329" on="0"/>
        <pt x="471" y="291" on="0"/>
        <pt x="449" y="291" on="1"/>
        <pt x="433" y="291" on="0"/>
        <pt x="408" y="312" on="0"/>
        <pt x="408" y="331" on="1"/>
        <pt x="408" y="347" on="0"/>
        <pt x="425" y="376" on="0"/>
        <pt x="440" y="387" on="1"/>
        <pt x="428" y="403" on="0"/>
        <pt x="387" y="418" on="0"/>
        <pt x="362" y="419" on="1"/>
        <pt x="266" y="33" on="1"/>
        <pt x="268" y="33" on="0"/>
        <pt x="273" y="33" on="0"/>
        <pt x="275" y="33" on="1"/>
        <pt x="315" y="33" on="0"/>
        <pt x="389" y="77" on="0"/>
        <pt x="426" y="140" on="1"/>
        <pt x="451" y="125" on="1"/>
        <pt x="419" y="66" on="0"/>
        <pt x="330" y="-9" on="0"/>
        <pt x="261" y="-9" on="1"/>
        <pt x="260" y="-9" on="0"/>
        <pt x="256" y="-9" on="0"/>
        <pt x="255" y="-9" on="1"/>
      </contour>
      <contour>
        <pt x="159" y="173" on="1"/>
        <pt x="159" y="121" on="0"/>
        <pt x="199" y="53" on="0"/>
        <pt x="233" y="40" on="1"/>
        <pt x="326" y="416" on="1"/>
        <pt x="285" y="409" on="0"/>
        <pt x="223" y="358" on="0"/>
        <pt x="181" y="289" on="0"/>
        <pt x="159" y="209" on="0"/>
      </contour>
    </TTGlyph>
    <TTGlyph name="circumflex" xMin="103" yMin="524" xMax="349" yMax="703">
      <contour>
        <pt x="103" y="524" on="1"/>
        <pt x="253" y="703" on="1"/>
        <pt x="287" y="703" on="1"/>
        <pt x="349" y="524" on="1"/>
        <pt x="321" y="524" on="1"/>
        <pt x="257" y="632" on="1"/>
        <pt x="137" y="524" on="1"/>
      </contour>
    </TTGlyph>
    <TTGlyph name="colon" xMin="7" yMin="-14" xMax="176" yMax="390">
      <contour>
        <pt x="126" y="286" on="1"/>
        <pt x="107" y="286" on="0"/>
        <pt x="82" y="314" on="0"/>
        <pt x="82" y="334" on="1"/>
        <pt x="82" y="357" on="0"/>
        <pt x="111" y="390" on="0"/>
        <pt x="132" y="390" on="1"/>
        <pt x="151" y="390" on="0"/>
        <pt x="176" y="362" on="0"/>
        <pt x="176" y="342" on="1"/>
        <pt x="176" y="319" on="0"/>
        <pt x="147" y="286" on="0"/>
      </contour>
      <contour>
        <pt x="51" y="-14" on="1"/>
        <pt x="32" y="-14" on="0"/>
        <pt x="7" y="14" on="0"/>
        <pt x="7" y="34" on="1"/>
        <pt x="7" y="57" on="0"/>
        <pt x="36" y="90" on="0"/>
        <pt x="57" y="90" on="1"/>
        <pt x="76" y="90" on="0"/>
        <pt x="101" y="62" on="0"/>
        <pt x="101" y="42" on="1"/>
        <pt x="101" y="19" on="0"/>
        <pt x="72" y="-14" on="0"/>
      </contour>
    </TTGlyph>
    <TTGlyph name="colon.fig" xMin="51" yMin="109" xMax="220" yMax="513">
      <component glyphName="colon" x="44" y="123" flags="0x4"/>
    </TTGlyph>
    <TTGlyph name="colon.tab" xMin="41" yMin="-14" xMax="210" yMax="390">
      <component glyphName="colon" x="34" y="0" flags="0x4"/>
    </TTGlyph>
    <TTGlyph name="colonmonetary" xMin="78" yMin="-144" xMax="635" yMax="766">
      <contour>
        <pt x="126" y="-144" on="1"/>
        <pt x="86" y="-134" on="1"/>
        <pt x="153" y="28" on="1"/>
        <pt x="116" y="61" on="0"/>
        <pt x="78" y="166" on="0"/>
        <pt x="78" y="228" on="1"/>
        <pt x="78" y="307" on="0"/>
        <pt x="128" y="456" on="0"/>
        <pt x="214" y="569" on="0"/>
        <pt x="332" y="638" on="0"/>
        <pt x="399" y="638" on="1"/>
        <pt x="402" y="638" on="0"/>
        <pt x="408" y="638" on="0"/>
        <pt x="410" y="638" on="1"/>
        <pt x="462" y="766" on="1"/>
        <pt x="502" y="756" on="1"/>
        <pt x="453" y="637" on="1"/>
        <pt x="450" y="632" on="1"/>
        <pt x="472" y="627" on="0"/>
        <pt x="510" y="608" on="0"/>
        <pt x="525" y="595" on="1"/>
        <pt x="595" y="766" on="1"/>
        <pt x="635" y="756" on="1"/>
        <pt x="555" y="562" on="1"/>
        <pt x="554" y="561" on="1"/>
        <pt x="563" y="548" on="0"/>
        <pt x="572" y="518" on="0"/>
        <pt x="572" y="502" on="1"/>
        <pt x="572" y="469" on="0"/>
        <pt x="538" y="425" on="0"/>
        <pt x="511" y="425" on="1"/>
        <pt x="507" y="425" on="0"/>
        <pt x="499" y="426" on="0"/>
        <pt x="495" y="427" on="1"/>
        <pt x="331" y="38" on="1"/>
        <pt x="377" y="49" on="0"/>
        <pt x="447" y="123" on="0"/>
        <pt x="469" y="180" on="1"/>
        <pt x="506" y="169" on="1"/>
        <pt x="481" y="100" on="0"/>
        <pt x="381" y="-3" on="0"/>
        <pt x="312" y="-13" on="1"/>
        <pt x="259" y="-144" on="1"/>
        <pt x="219" y="-134" on="1"/>
        <pt x="268" y="-16" on="1"/>
        <pt x="245" y="-15" on="0"/>
        <pt x="204" y="-4" on="0"/>
        <pt x="187" y="5" on="1"/>
      </contour>
      <contour>
        <pt x="146" y="227" on="1"/>
        <pt x="146" y="179" on="0"/>
        <pt x="164" y="108" on="0"/>
        <pt x="181" y="84" on="1"/>
        <pt x="395" y="596" on="1"/>
        <pt x="336" y="595" on="0"/>
        <pt x="243" y="523" on="0"/>
        <pt x="180" y="415" on="0"/>
        <pt x="146" y="286" on="0"/>
      </contour>
      <contour>
        <pt x="463" y="472" on="1"/>
        <pt x="463" y="488" on="0"/>
        <pt x="481" y="521" on="0"/>
        <pt x="500" y="532" on="1"/>
        <pt x="505" y="546" on="1"/>
        <pt x="492" y="566" on="0"/>
        <pt x="452" y="588" on="0"/>
        <pt x="433" y="592" on="1"/>
        <pt x="209" y="57" on="1"/>
        <pt x="225" y="45" on="0"/>
        <pt x="266" y="33" on="0"/>
        <pt x="291" y="33" on="1"/>
        <pt x="292" y="33" on="1"/>
        <pt x="467" y="453" on="1"/>
        <pt x="465" y="457" on="0"/>
        <pt x="463" y="467" on="0"/>
      </contour>
    </TTGlyph>
    <TTGlyph name="comma" xMin="-59" yMin="-127" xMax="102" yMax="89">
      <contour>
        <pt x="-50" y="-127" on="1"/>
        <pt x="-59" y="-99" on="1"/>
        <pt x="0" y="-77" on="0"/>
        <pt x="50" y="-26" on="0"/>
        <pt x="57" y="-4" on="1"/>
        <pt x="55" y="-2" on="1"/>
        <pt x="52" y="-3" on="0"/>
        <pt x="41" y="-6" on="0"/>
        <pt x="38" y="-6" on="1"/>
        <pt x="23" y="-6" on="0"/>
        <pt x="2" y="15" on="0"/>
        <pt x="2" y="34" on="1"/>
        <pt x="2" y="53" on="0"/>
        <pt x="28" y="89" on="0"/>
        <pt x="53" y="89" on="1"/>
        <pt x="77" y="89" on="0"/>
        <pt x="102" y="55" on="0"/>
        <pt x="102" y="30" on="1"/>
        <pt x="102" y="-8" on="0"/>
        <pt x="36" y="-98" on="0"/>
      </contour>
    </TTGlyph>
    <TTGlyph name="comma.tab" xMin="-25" yMin="-127" xMax="136" yMax="89">
      <component glyphName="comma" x="34" y="0" flags="0x4"/>
    </TTGlyph>
    <TTGlyph name="copyright" xMin="74" yMin="-32" xMax="789" yMax="690">
      <contour>
        <pt x="431" y="-32" on="1"/>
        <pt x="357" y="-32" on="0"/>
        <pt x="226" y="24" on="0"/>
        <pt x="130" y="121" on="0"/>
        <pt x="74" y="254" on="0"/>
        <pt x="74" y="330" on="1"/>
        <pt x="74" y="406" on="0"/>
        <pt x="130" y="538" on="0"/>
        <pt x="226" y="634" on="0"/>
        <pt x="357" y="690" on="0"/>
        <pt x="431" y="690" on="1"/>
        <pt x="506" y="690" on="0"/>
        <pt x="637" y="634" on="0"/>
        <pt x="733" y="538" on="0"/>
        <pt x="789" y="406" on="0"/>
        <pt x="789" y="330" on="1"/>
        <pt x="789" y="254" on="0"/>
        <pt x="733" y="121" on="0"/>
        <pt x="637" y="24" on="0"/>
        <pt x="506" y="-32" on="0"/>
      </contour>
      <contour>
        <pt x="431" y="-1" on="1"/>
        <pt x="499" y="-1" on="0"/>
        <pt x="617" y="50" on="0"/>
        <pt x="703" y="139" on="0"/>
        <pt x="753" y="261" on="0"/>
        <pt x="753" y="330" on="1"/>
        <pt x="753" y="399" on="0"/>
        <pt x="703" y="519" on="0"/>
        <pt x="617" y="608" on="0"/>
        <pt x="499" y="659" on="0"/>
        <pt x="431" y="659" on="1"/>
        <pt x="364" y="659" on="0"/>
        <pt x="247" y="608" on="0"/>
        <pt x="160" y="519" on="0"/>
        <pt x="110" y="399" on="0"/>
        <pt x="110" y="330" on="1"/>
        <pt x="110" y="261" on="0"/>
        <pt x="160" y="139" on="0"/>
        <pt x="247" y="50" on="0"/>
        <pt x="364" y="-1" on="0"/>
      </contour>
      <contour>
        <pt x="432" y="144" on="1"/>
        <pt x="360" y="144" on="0"/>
        <pt x="268" y="247" on="0"/>
        <pt x="268" y="332" on="1"/>
        <pt x="268" y="414" on="0"/>
        <pt x="364" y="521" on="0"/>
        <pt x="434" y="521" on="1"/>
        <pt x="471" y="521" on="0"/>
        <pt x="524" y="495" on="0"/>
        <pt x="540" y="476" on="1"/>
        <pt x="551" y="519" on="1"/>
        <pt x="580" y="519" on="1"/>
        <pt x="580" y="387" on="1"/>
        <pt x="556" y="387" on="1"/>
        <pt x="540" y="436" on="0"/>
        <pt x="483" y="491" on="0"/>
        <pt x="437" y="491" on="1"/>
        <pt x="380" y="491" on="0"/>
        <pt x="318" y="404" on="0"/>
        <pt x="318" y="336" on="1"/>
        <pt x="318" y="259" on="0"/>
        <pt x="385" y="175" on="0"/>
        <pt x="440" y="175" on="1"/>
        <pt x="487" y="175" on="0"/>
        <pt x="547" y="237" on="0"/>
        <pt x="555" y="291" on="1"/>
        <pt x="583" y="291" on="1"/>
        <pt x="574" y="221" on="0"/>
        <pt x="495" y="144" on="0"/>
      </contour>
    </TTGlyph>
    <TTGlyph name="d" xMin="33" yMin="-9" xMax="512" yMax="687">
      <contour>
        <pt x="148" y="-9" on="1"/>
        <pt x="99" y="-9" on="0"/>
        <pt x="33" y="68" on="0"/>
        <pt x="33" y="139" on="1"/>
        <pt x="33" y="211" on="0"/>
        <pt x="89" y="345" on="0"/>
        <pt x="134" y="390" on="1"/>
        <pt x="162" y="418" on="0"/>
        <pt x="228" y="452" on="0"/>
        <pt x="262" y="452" on="1"/>
        <pt x="296" y="452" on="0"/>
        <pt x="353" y="411" on="0"/>
        <pt x="363" y="365" on="1"/>
        <pt x="439" y="648" on="1"/>
        <pt x="344" y="648" on="1"/>
        <pt x="354" y="687" on="1"/>
        <pt x="512" y="687" on="1"/>
        <pt x="372" y="169" on="1"/>
        <pt x="362" y="131" on="0"/>
        <pt x="354" y="89" on="0"/>
        <pt x="354" y="73" on="1"/>
        <pt x="354" y="65" on="0"/>
        <pt x="362" y="39" on="0"/>
        <pt x="379" y="39" on="1"/>
        <pt x="401" y="39" on="0"/>
        <pt x="439" y="102" on="0"/>
        <pt x="459" y="157" on="1"/>
        <pt x="486" y="148" on="1"/>
        <pt x="452" y="55" on="0"/>
        <pt x="395" y="-9" on="0"/>
        <pt x="364" y="-9" on="1"/>
        <pt x="338" y="-9" on="0"/>
        <pt x="300" y="29" on="0"/>
        <pt x="300" y="71" on="1"/>
        <pt x="300" y="79" on="0"/>
        <pt x="302" y="96" on="0"/>
        <pt x="303" y="99" on="1"/>
        <pt x="296" y="102" on="1"/>
        <pt x="262" y="50" on="0"/>
        <pt x="189" y="-9" on="0"/>
      </contour>
      <contour>
        <pt x="168" y="38" on="1"/>
        <pt x="202" y="38" on="0"/>
        <pt x="266" y="95" on="0"/>
        <pt x="316" y="177" on="0"/>
        <pt x="346" y="272" on="0"/>
        <pt x="346" y="310" on="1"/>
        <pt x="346" y="352" on="0"/>
        <pt x="308" y="415" on="0"/>
        <pt x="264" y="415" on="1"/>
        <pt x="230" y="415" on="0"/>
        <pt x="169" y="363" on="0"/>
        <pt x="124" y="283" on="0"/>
        <pt x="98" y="184" on="0"/>
        <pt x="98" y="137" on="1"/>
        <pt x="98" y="87" on="0"/>
        <pt x="137" y="38" on="0"/>
      </contour>
    </TTGlyph>
    <TTGlyph name="dagger" xMin="108" yMin="-99" xMax="518" yMax="697">
      <contour>
        <pt x="180" y="-98" on="1"/>
        <pt x="174" y="-97" on="0"/>
        <pt x="164" y="-36" on="0"/>
        <pt x="173" y="-1" on="1"/>
        <pt x="209" y="145" on="1"/>
        <pt x="297" y="430" on="1"/>
        <pt x="270" y="445" on="0"/>
        <pt x="218" y="457" on="0"/>
        <pt x="202" y="457" on="1"/>
        <pt x="200" y="457" on="0"/>
        <pt x="193" y="457" on="0"/>
        <pt x="190" y="456" on="1"/>
        <pt x="200" y="431" on="0"/>
        <pt x="174" y="382" on="0"/>
        <pt x="148" y="382" on="1"/>
        <pt x="131" y="382" on="0"/>
        <pt x="108" y="405" on="0"/>
        <pt x="108" y="425" on="1"/>
        <pt x="108" y="443" on="0"/>
        <pt x="141" y="489" on="0"/>
        <pt x="188" y="489" on="1"/>
        <pt x="212" y="489" on="0"/>
        <pt x="270" y="476" on="0"/>
        <pt x="304" y="458" on="1"/>
        <pt x="325" y="649" on="1"/>
        <pt x="338" y="667" on="1"/>
        <pt x="346" y="677" on="0"/>
        <pt x="362" y="697" on="0"/>
        <pt x="372" y="697" on="1"/>
        <pt x="388" y="697" on="0"/>
        <pt x="396" y="668" on="0"/>
        <pt x="398" y="652" on="1"/>
        <pt x="401" y="630" on="1"/>
        <pt x="329" y="446" on="1"/>
        <pt x="356" y="431" on="0"/>
        <pt x="408" y="419" on="0"/>
        <pt x="424" y="419" on="1"/>
        <pt x="426" y="419" on="0"/>
        <pt x="433" y="419" on="0"/>
        <pt x="436" y="420" on="1"/>
        <pt x="426" y="445" on="0"/>
        <pt x="452" y="494" on="0"/>
        <pt x="478" y="494" on="1"/>
        <pt x="495" y="494" on="0"/>
        <pt x="518" y="471" on="0"/>
        <pt x="518" y="451" on="1"/>
        <pt x="518" y="433" on="0"/>
        <pt x="485" y="387" on="0"/>
        <pt x="438" y="387" on="1"/>
        <pt x="414" y="387" on="0"/>
        <pt x="356" y="400" on="0"/>
        <pt x="322" y="418" on="1"/>
        <pt x="266" y="131" on="1"/>
        <pt x="230" y="-15" on="1"/>
        <pt x="222" y="-51" on="0"/>
        <pt x="185" y="-99" on="0"/>
      </contour>
    </TTGlyph>
    <TTGlyph name="daggerdbl" xMin="40" yMin="-98" xMax="518" yMax="697">
      <contour>
        <pt x="186" y="-98" on="1"/>
        <pt x="170" y="-98" on="0"/>
        <pt x="162" y="-69" on="0"/>
        <pt x="160" y="-53" on="1"/>
        <pt x="157" y="-31" on="1"/>
        <pt x="229" y="153" on="1"/>
        <pt x="202" y="168" on="0"/>
        <pt x="150" y="180" on="0"/>
        <pt x="134" y="180" on="1"/>
        <pt x="132" y="180" on="0"/>
        <pt x="125" y="180" on="0"/>
        <pt x="122" y="179" on="1"/>
        <pt x="132" y="154" on="0"/>
        <pt x="106" y="105" on="0"/>
        <pt x="80" y="105" on="1"/>
        <pt x="63" y="105" on="0"/>
        <pt x="40" y="128" on="0"/>
        <pt x="40" y="148" on="1"/>
        <pt x="40" y="166" on="0"/>
        <pt x="73" y="212" on="0"/>
        <pt x="120" y="212" on="1"/>
        <pt x="144" y="212" on="0"/>
        <pt x="202" y="199" on="0"/>
        <pt x="236" y="181" on="1"/>
        <pt x="252" y="308" on="1"/>
        <pt x="297" y="430" on="1"/>
        <pt x="270" y="445" on="0"/>
        <pt x="218" y="457" on="0"/>
        <pt x="202" y="457" on="1"/>
        <pt x="200" y="457" on="0"/>
        <pt x="193" y="457" on="0"/>
        <pt x="190" y="456" on="1"/>
        <pt x="200" y="431" on="0"/>
        <pt x="174" y="382" on="0"/>
        <pt x="148" y="382" on="1"/>
        <pt x="131" y="382" on="0"/>
        <pt x="108" y="405" on="0"/>
        <pt x="108" y="425" on="1"/>
        <pt x="108" y="443" on="0"/>
        <pt x="141" y="489" on="0"/>
        <pt x="188" y="489" on="1"/>
        <pt x="212" y="489" on="0"/>
        <pt x="270" y="476" on="0"/>
        <pt x="304" y="458" on="1"/>
        <pt x="325" y="649" on="1"/>
        <pt x="338" y="667" on="1"/>
        <pt x="346" y="677" on="0"/>
        <pt x="362" y="697" on="0"/>
        <pt x="372" y="697" on="1"/>
        <pt x="388" y="697" on="0"/>
        <pt x="396" y="668" on="0"/>
        <pt x="398" y="652" on="1"/>
        <pt x="401" y="630" on="1"/>
        <pt x="329" y="446" on="1"/>
        <pt x="356" y="431" on="0"/>
        <pt x="408" y="419" on="0"/>
        <pt x="424" y="419" on="1"/>
        <pt x="426" y="419" on="0"/>
        <pt x="433" y="419" on="0"/>
        <pt x="436" y="420" on="1"/>
        <pt x="426" y="445" on="0"/>
        <pt x="452" y="494" on="0"/>
        <pt x="478" y="494" on="1"/>
        <pt x="495" y="494" on="0"/>
        <pt x="518" y="471" on="0"/>
        <pt x="518" y="451" on="1"/>
        <pt x="518" y="433" on="0"/>
        <pt x="485" y="387" on="0"/>
        <pt x="438" y="387" on="1"/>
        <pt x="414" y="387" on="0"/>
        <pt x="356" y="400" on="0"/>
        <pt x="322" y="418" on="1"/>
        <pt x="306" y="291" on="1"/>
        <pt x="261" y="169" on="1"/>
        <pt x="288" y="154" on="0"/>
        <pt x="340" y="142" on="0"/>
        <pt x="356" y="142" on="1"/>
        <pt x="358" y="142" on="0"/>
        <pt x="365" y="142" on="0"/>
        <pt x="368" y="143" on="1"/>
        <pt x="358" y="168" on="0"/>
        <pt x="384" y="217" on="0"/>
        <pt x="410" y="217" on="1"/>
        <pt x="427" y="217" on="0"/>
        <pt x="450" y="194" on="0"/>
        <pt x="450" y="174" on="1"/>
        <pt x="450" y="156" on="0"/>
        <pt x="417" y="110" on="0"/>
        <pt x="370" y="110" on="1"/>
        <pt x="346" y="110" on="0"/>
        <pt x="288" y="123" on="0"/>
        <pt x="254" y="141" on="1"/>
        <pt x="233" y="-50" on="1"/>
        <pt x="220" y="-68" on="1"/>
        <pt x="212" y="-78" on="0"/>
        <pt x="196" y="-98" on="0"/>
      </contour>
    </TTGlyph>
    <TTGlyph name="dcaron" xMin="33" yMin="-9" xMax="653" yMax="751">
      <component glyphName="d" x="0" y="0" flags="0x204"/>
      <component glyphName="caron.alt" x="389" y="0" flags="0x4"/>
    </TTGlyph>
    <TTGlyph name="dcroat" xMin="33" yMin="-9" xMax="551" yMax="687">
      <contour>
        <pt x="148" y="-9" on="1"/>
        <pt x="99" y="-9" on="0"/>
        <pt x="33" y="68" on="0"/>
        <pt x="33" y="139" on="1"/>
        <pt x="33" y="211" on="0"/>
        <pt x="89" y="345" on="0"/>
        <pt x="134" y="390" on="1"/>
        <pt x="162" y="418" on="0"/>
        <pt x="228" y="452" on="0"/>
        <pt x="262" y="452" on="1"/>
        <pt x="299" y="452" on="0"/>
        <pt x="356" y="407" on="0"/>
        <pt x="363" y="365" on="1"/>
        <pt x="403" y="515" on="1"/>
        <pt x="279" y="515" on="1"/>
        <pt x="288" y="549" on="1"/>
        <pt x="412" y="549" on="1"/>
        <pt x="439" y="648" on="1"/>
        <pt x="344" y="648" on="1"/>
        <pt x="354" y="687" on="1"/>
        <pt x="512" y="687" on="1"/>
        <pt x="475" y="549" on="1"/>
        <pt x="551" y="549" on="1"/>
        <pt x="542" y="515" on="1"/>
        <pt x="466" y="515" on="1"/>
        <pt x="372" y="169" on="1"/>
        <pt x="362" y="131" on="0"/>
        <pt x="354" y="89" on="0"/>
        <pt x="354" y="73" on="1"/>
        <pt x="354" y="65" on="0"/>
        <pt x="362" y="39" on="0"/>
        <pt x="379" y="39" on="1"/>
        <pt x="401" y="39" on="0"/>
        <pt x="439" y="102" on="0"/>
        <pt x="459" y="157" on="1"/>
        <pt x="486" y="148" on="1"/>
        <pt x="452" y="55" on="0"/>
        <pt x="395" y="-9" on="0"/>
        <pt x="364" y="-9" on="1"/>
        <pt x="338" y="-9" on="0"/>
        <pt x="300" y="29" on="0"/>
        <pt x="300" y="71" on="1"/>
        <pt x="300" y="79" on="0"/>
        <pt x="302" y="96" on="0"/>
        <pt x="303" y="99" on="1"/>
        <pt x="296" y="102" on="1"/>
        <pt x="262" y="50" on="0"/>
        <pt x="189" y="-9" on="0"/>
      </contour>
      <contour>
        <pt x="168" y="38" on="1"/>
        <pt x="202" y="38" on="0"/>
        <pt x="266" y="95" on="0"/>
        <pt x="316" y="177" on="0"/>
        <pt x="346" y="272" on="0"/>
        <pt x="346" y="310" on="1"/>
        <pt x="346" y="352" on="0"/>
        <pt x="308" y="415" on="0"/>
        <pt x="264" y="415" on="1"/>
        <pt x="230" y="415" on="0"/>
        <pt x="169" y="363" on="0"/>
        <pt x="124" y="283" on="0"/>
        <pt x="98" y="184" on="0"/>
        <pt x="98" y="137" on="1"/>
        <pt x="98" y="87" on="0"/>
        <pt x="137" y="38" on="0"/>
      </contour>
    </TTGlyph>
    <TTGlyph name="degree" xMin="109" yMin="345" xMax="415" yMax="662">
      <contour>
        <pt x="242" y="345" on="1"/>
        <pt x="177" y="345" on="0"/>
        <pt x="109" y="425" on="0"/>
        <pt x="109" y="478" on="1"/>
        <pt x="109" y="512" on="0"/>
        <pt x="134" y="579" on="0"/>
        <pt x="180" y="630" on="0"/>
        <pt x="244" y="662" on="0"/>
        <pt x="282" y="662" on="1"/>
        <pt x="347" y="662" on="0"/>
        <pt x="415" y="582" on="0"/>
        <pt x="415" y="529" on="1"/>
        <pt x="415" y="495" on="0"/>
        <pt x="390" y="429" on="0"/>
        <pt x="344" y="377" on="0"/>
        <pt x="280" y="345" on="0"/>
      </contour>
      <contour>
        <pt x="243" y="382" on="1"/>
        <pt x="292" y="382" on="0"/>
        <pt x="366" y="465" on="0"/>
        <pt x="366" y="534" on="1"/>
        <pt x="366" y="578" on="0"/>
        <pt x="318" y="625" on="0"/>
        <pt x="281" y="625" on="1"/>
        <pt x="232" y="625" on="0"/>
        <pt x="158" y="542" on="0"/>
        <pt x="158" y="473" on="1"/>
        <pt x="158" y="429" on="0"/>
        <pt x="206" y="382" on="0"/>
      </contour>
    </TTGlyph>
    <TTGlyph name="degree.tab" xMin="157" yMin="305" xMax="513" yMax="662">
      <contour>
        <pt x="311" y="305" on="1"/>
        <pt x="237" y="305" on="0"/>
        <pt x="157" y="395" on="0"/>
        <pt x="157" y="455" on="1"/>
        <pt x="157" y="493" on="0"/>
        <pt x="186" y="568" on="0"/>
        <pt x="238" y="626" on="0"/>
        <pt x="313" y="662" on="0"/>
        <pt x="359" y="662" on="1"/>
        <pt x="433" y="662" on="0"/>
        <pt x="513" y="572" on="0"/>
        <pt x="513" y="512" on="1"/>
        <pt x="513" y="474" on="0"/>
        <pt x="484" y="399" on="0"/>
        <pt x="432" y="341" on="0"/>
        <pt x="357" y="305" on="0"/>
      </contour>
      <contour>
        <pt x="315" y="343" on="1"/>
        <pt x="377" y="343" on="0"/>
        <pt x="463" y="437" on="0"/>
        <pt x="463" y="512" on="1"/>
        <pt x="463" y="566" on="0"/>
        <pt x="402" y="624" on="0"/>
        <pt x="355" y="624" on="1"/>
        <pt x="293" y="624" on="0"/>
        <pt x="207" y="530" on="0"/>
        <pt x="207" y="455" on="1"/>
        <pt x="207" y="401" on="0"/>
        <pt x="267" y="343" on="0"/>
      </contour>
    </TTGlyph>
    <TTGlyph name="dieresis" xMin="129" yMin="546" xMax="379" yMax="646">
      <contour>
        <pt x="167" y="546" on="1"/>
        <pt x="149" y="546" on="0"/>
        <pt x="129" y="571" on="0"/>
        <pt x="129" y="590" on="1"/>
        <pt x="129" y="613" on="0"/>
        <pt x="156" y="646" on="0"/>
        <pt x="175" y="646" on="1"/>
        <pt x="193" y="646" on="0"/>
        <pt x="213" y="621" on="0"/>
        <pt x="213" y="602" on="1"/>
        <pt x="213" y="579" on="0"/>
        <pt x="186" y="546" on="0"/>
      </contour>
      <contour>
        <pt x="333" y="546" on="1"/>
        <pt x="315" y="546" on="0"/>
        <pt x="295" y="571" on="0"/>
        <pt x="295" y="590" on="1"/>
        <pt x="295" y="613" on="0"/>
        <pt x="322" y="646" on="0"/>
        <pt x="341" y="646" on="1"/>
        <pt x="359" y="646" on="0"/>
        <pt x="379" y="621" on="0"/>
        <pt x="379" y="602" on="1"/>
        <pt x="379" y="579" on="0"/>
        <pt x="352" y="546" on="0"/>
      </contour>
    </TTGlyph>
    <TTGlyph name="divide" xMin="68" yMin="109" xMax="483" yMax="513">
      <contour>
        <pt x="310" y="413" on="1"/>
        <pt x="292" y="413" on="0"/>
        <pt x="269" y="440" on="0"/>
        <pt x="269" y="459" on="1"/>
        <pt x="269" y="481" on="0"/>
        <pt x="297" y="513" on="0"/>
        <pt x="316" y="513" on="1"/>
        <pt x="334" y="513" on="0"/>
        <pt x="357" y="486" on="0"/>
        <pt x="357" y="467" on="1"/>
        <pt x="357" y="445" on="0"/>
        <pt x="330" y="413" on="0"/>
      </contour>
      <contour>
        <pt x="68" y="292" on="1"/>
        <pt x="77" y="330" on="1"/>
        <pt x="483" y="330" on="1"/>
        <pt x="474" y="292" on="1"/>
      </contour>
      <contour>
        <pt x="235" y="109" on="1"/>
        <pt x="217" y="109" on="0"/>
        <pt x="194" y="136" on="0"/>
        <pt x="194" y="155" on="1"/>
        <pt x="194" y="177" on="0"/>
        <pt x="221" y="209" on="0"/>
        <pt x="241" y="209" on="1"/>
        <pt x="259" y="209" on="0"/>
        <pt x="282" y="182" on="0"/>
        <pt x="282" y="163" on="1"/>
        <pt x="282" y="141" on="0"/>
        <pt x="254" y="109" on="0"/>
      </contour>
    </TTGlyph>
    <TTGlyph name="divide.osf" xMin="59" yMin="73" xMax="474" yMax="477">
      <contour>
        <pt x="301" y="377" on="1"/>
        <pt x="283" y="377" on="0"/>
        <pt x="260" y="404" on="0"/>
        <pt x="260" y="423" on="1"/>
        <pt x="260" y="445" on="0"/>
        <pt x="288" y="477" on="0"/>
        <pt x="307" y="477" on="1"/>
        <pt x="325" y="477" on="0"/>
        <pt x="348" y="450" on="0"/>
        <pt x="348" y="431" on="1"/>
        <pt x="348" y="409" on="0"/>
        <pt x="321" y="377" on="0"/>
      </contour>
      <contour>
        <pt x="59" y="256" on="1"/>
        <pt x="68" y="294" on="1"/>
        <pt x="474" y="294" on="1"/>
        <pt x="465" y="256" on="1"/>
      </contour>
      <contour>
        <pt x="226" y="73" on="1"/>
        <pt x="208" y="73" on="0"/>
        <pt x="185" y="100" on="0"/>
        <pt x="185" y="119" on="1"/>
        <pt x="185" y="141" on="0"/>
        <pt x="212" y="173" on="0"/>
        <pt x="232" y="173" on="1"/>
        <pt x="250" y="173" on="0"/>
        <pt x="273" y="146" on="0"/>
        <pt x="273" y="127" on="1"/>
        <pt x="273" y="105" on="0"/>
        <pt x="245" y="73" on="0"/>
      </contour>
    </TTGlyph>
    <TTGlyph name="divide.tab" xMin="84" yMin="109" xMax="499" yMax="513">
      <contour>
        <pt x="326" y="413" on="1"/>
        <pt x="308" y="413" on="0"/>
        <pt x="285" y="440" on="0"/>
        <pt x="285" y="459" on="1"/>
        <pt x="285" y="481" on="0"/>
        <pt x="313" y="513" on="0"/>
        <pt x="332" y="513" on="1"/>
        <pt x="350" y="513" on="0"/>
        <pt x="373" y="486" on="0"/>
        <pt x="373" y="467" on="1"/>
        <pt x="373" y="445" on="0"/>
        <pt x="346" y="413" on="0"/>
      </contour>
      <contour>
        <pt x="84" y="292" on="1"/>
        <pt x="93" y="330" on="1"/>
        <pt x="499" y="330" on="1"/>
        <pt x="490" y="292" on="1"/>
      </contour>
      <contour>
        <pt x="251" y="109" on="1"/>
        <pt x="233" y="109" on="0"/>
        <pt x="210" y="136" on="0"/>
        <pt x="210" y="155" on="1"/>
        <pt x="210" y="177" on="0"/>
        <pt x="237" y="209" on="0"/>
        <pt x="257" y="209" on="1"/>
        <pt x="275" y="209" on="0"/>
        <pt x="298" y="182" on="0"/>
        <pt x="298" y="163" on="1"/>
        <pt x="298" y="141" on="0"/>
        <pt x="270" y="109" on="0"/>
      </contour>
    </TTGlyph>
    <TTGlyph name="dollar" xMin="20" yMin="-84" xMax="520" yMax="694">
      <contour>
        <pt x="204" y="-84" on="1"/>
        <pt x="166" y="-77" on="1"/>
        <pt x="186" y="4" on="1"/>
        <pt x="153" y="10" on="0"/>
        <pt x="92" y="35" on="0"/>
        <pt x="47" y="70" on="0"/>
        <pt x="20" y="113" on="0"/>
        <pt x="20" y="137" on="1"/>
        <pt x="20" y="163" on="0"/>
        <pt x="49" y="207" on="0"/>
        <pt x="78" y="207" on="1"/>
        <pt x="97" y="207" on="0"/>
        <pt x="123" y="181" on="0"/>
        <pt x="123" y="162" on="1"/>
        <pt x="123" y="140" on="0"/>
        <pt x="97" y="108" on="0"/>
        <pt x="80" y="101" on="1"/>
        <pt x="90" y="85" on="0"/>
        <pt x="149" y="48" on="0"/>
        <pt x="195" y="40" on="1"/>
        <pt x="258" y="289" on="1"/>
        <pt x="183" y="326" on="0"/>
        <pt x="115" y="391" on="0"/>
        <pt x="115" y="442" on="1"/>
        <pt x="115" y="474" on="0"/>
        <pt x="143" y="539" on="0"/>
        <pt x="197" y="591" on="0"/>
        <pt x="276" y="624" on="0"/>
        <pt x="327" y="624" on="1"/>
        <pt x="331" y="624" on="0"/>
        <pt x="337" y="624" on="0"/>
        <pt x="341" y="624" on="1"/>
        <pt x="358" y="694" on="1"/>
        <pt x="396" y="687" on="1"/>
        <pt x="379" y="619" on="1"/>
        <pt x="439" y="606" on="0"/>
        <pt x="520" y="536" on="0"/>
        <pt x="520" y="494" on="1"/>
        <pt x="520" y="466" on="0"/>
        <pt x="489" y="425" on="0"/>
        <pt x="466" y="425" on="1"/>
        <pt x="444" y="425" on="0"/>
        <pt x="423" y="451" on="0"/>
        <pt x="423" y="466" on="1"/>
        <pt x="423" y="488" on="0"/>
        <pt x="450" y="518" on="0"/>
        <pt x="467" y="522" on="1"/>
        <pt x="453" y="546" on="0"/>
        <pt x="400" y="576" on="0"/>
        <pt x="370" y="583" on="1"/>
        <pt x="310" y="339" on="1"/>
        <pt x="390" y="300" on="0"/>
        <pt x="450" y="231" on="0"/>
        <pt x="450" y="183" on="1"/>
        <pt x="450" y="148" on="0"/>
        <pt x="420" y="81" on="0"/>
        <pt x="365" y="31" on="0"/>
        <pt x="286" y="0" on="0"/>
        <pt x="237" y="0" on="1"/>
        <pt x="234" y="0" on="0"/>
        <pt x="228" y="0" on="0"/>
        <pt x="225" y="0" on="1"/>
      </contour>
      <contour>
        <pt x="177" y="463" on="1"/>
        <pt x="177" y="432" on="0"/>
        <pt x="224" y="381" on="0"/>
        <pt x="275" y="356" on="1"/>
        <pt x="332" y="588" on="1"/>
        <pt x="329" y="588" on="0"/>
        <pt x="324" y="588" on="0"/>
        <pt x="322" y="588" on="1"/>
        <pt x="285" y="588" on="0"/>
        <pt x="230" y="564" on="0"/>
        <pt x="195" y="527" on="0"/>
        <pt x="177" y="483" on="0"/>
      </contour>
      <contour>
        <pt x="388" y="163" on="1"/>
        <pt x="388" y="193" on="0"/>
        <pt x="346" y="244" on="0"/>
        <pt x="294" y="271" on="1"/>
        <pt x="234" y="36" on="1"/>
        <pt x="237" y="36" on="0"/>
        <pt x="242" y="36" on="0"/>
        <pt x="245" y="36" on="1"/>
        <pt x="305" y="36" on="0"/>
        <pt x="388" y="109" on="0"/>
      </contour>
    </TTGlyph>
    <TTGlyph name="dollar.osf" xMin="28" yMin="-82" xMax="496" yMax="619">
      <contour>
        <pt x="205" y="-82" on="1"/>
        <pt x="167" y="-75" on="1"/>
        <pt x="187" y="5" on="1"/>
        <pt x="155" y="11" on="0"/>
        <pt x="97" y="36" on="0"/>
        <pt x="54" y="71" on="0"/>
        <pt x="28" y="113" on="0"/>
        <pt x="28" y="137" on="1"/>
        <pt x="28" y="163" on="0"/>
        <pt x="57" y="207" on="0"/>
        <pt x="86" y="207" on="1"/>
        <pt x="105" y="207" on="0"/>
        <pt x="131" y="181" on="0"/>
        <pt x="131" y="162" on="1"/>
        <pt x="131" y="140" on="0"/>
        <pt x="105" y="108" on="0"/>
        <pt x="88" y="101" on="1"/>
        <pt x="98" y="85" on="0"/>
        <pt x="153" y="49" on="0"/>
        <pt x="196" y="41" on="1"/>
        <pt x="249" y="251" on="1"/>
        <pt x="178" y="281" on="0"/>
        <pt x="109" y="342" on="0"/>
        <pt x="109" y="387" on="1"/>
        <pt x="109" y="416" on="0"/>
        <pt x="136" y="475" on="0"/>
        <pt x="187" y="521" on="0"/>
        <pt x="261" y="550" on="0"/>
        <pt x="308" y="550" on="1"/>
        <pt x="312" y="550" on="0"/>
        <pt x="319" y="550" on="0"/>
        <pt x="323" y="550" on="1"/>
        <pt x="340" y="619" on="1"/>
        <pt x="378" y="612" on="1"/>
        <pt x="361" y="544" on="1"/>
        <pt x="418" y="531" on="0"/>
        <pt x="496" y="461" on="0"/>
        <pt x="496" y="420" on="1"/>
        <pt x="496" y="392" on="0"/>
        <pt x="465" y="351" on="0"/>
        <pt x="442" y="351" on="1"/>
        <pt x="420" y="351" on="0"/>
        <pt x="399" y="377" on="0"/>
        <pt x="399" y="392" on="1"/>
        <pt x="399" y="414" on="0"/>
        <pt x="426" y="444" on="0"/>
        <pt x="443" y="448" on="1"/>
        <pt x="429" y="471" on="0"/>
        <pt x="379" y="501" on="0"/>
        <pt x="352" y="508" on="1"/>
        <pt x="302" y="303" on="1"/>
        <pt x="377" y="272" on="0"/>
        <pt x="439" y="205" on="0"/>
        <pt x="439" y="161" on="1"/>
        <pt x="439" y="130" on="0"/>
        <pt x="410" y="71" on="0"/>
        <pt x="357" y="27" on="0"/>
        <pt x="283" y="0" on="0"/>
        <pt x="238" y="0" on="1"/>
        <pt x="235" y="0" on="0"/>
        <pt x="229" y="0" on="0"/>
        <pt x="226" y="0" on="1"/>
      </contour>
      <contour>
        <pt x="171" y="410" on="1"/>
        <pt x="171" y="384" on="0"/>
        <pt x="216" y="339" on="0"/>
        <pt x="265" y="318" on="1"/>
        <pt x="314" y="514" on="1"/>
        <pt x="312" y="514" on="0"/>
        <pt x="308" y="514" on="0"/>
        <pt x="306" y="514" on="1"/>
        <pt x="272" y="514" on="0"/>
        <pt x="222" y="494" on="0"/>
        <pt x="188" y="464" on="0"/>
        <pt x="171" y="427" on="0"/>
      </contour>
      <contour>
        <pt x="377" y="140" on="1"/>
        <pt x="377" y="167" on="0"/>
        <pt x="334" y="214" on="0"/>
        <pt x="285" y="236" on="1"/>
        <pt x="235" y="36" on="1"/>
        <pt x="237" y="36" on="0"/>
        <pt x="243" y="36" on="0"/>
        <pt x="245" y="36" on="1"/>
        <pt x="299" y="36" on="0"/>
        <pt x="377" y="94" on="0"/>
      </contour>
    </TTGlyph>
    <TTGlyph name="dollar.tab" xMin="38" yMin="-84" xMax="534" yMax="694">
      <contour>
        <pt x="220" y="-84" on="1"/>
        <pt x="182" y="-77" on="1"/>
        <pt x="202" y="4" on="1"/>
        <pt x="169" y="10" on="0"/>
        <pt x="109" y="35" on="0"/>
        <pt x="65" y="70" on="0"/>
        <pt x="38" y="113" on="0"/>
        <pt x="38" y="137" on="1"/>
        <pt x="38" y="163" on="0"/>
        <pt x="67" y="207" on="0"/>
        <pt x="96" y="207" on="1"/>
        <pt x="115" y="207" on="0"/>
        <pt x="141" y="181" on="0"/>
        <pt x="141" y="162" on="1"/>
        <pt x="141" y="140" on="0"/>
        <pt x="115" y="108" on="0"/>
        <pt x="98" y="101" on="1"/>
        <pt x="108" y="85" on="0"/>
        <pt x="167" y="48" on="0"/>
        <pt x="211" y="40" on="1"/>
        <pt x="274" y="289" on="1"/>
        <pt x="199" y="326" on="0"/>
        <pt x="133" y="391" on="0"/>
        <pt x="133" y="442" on="1"/>
        <pt x="133" y="474" on="0"/>
        <pt x="161" y="539" on="0"/>
        <pt x="214" y="591" on="0"/>
        <pt x="293" y="624" on="0"/>
        <pt x="343" y="624" on="1"/>
        <pt x="347" y="624" on="0"/>
        <pt x="353" y="624" on="0"/>
        <pt x="357" y="624" on="1"/>
        <pt x="374" y="694" on="1"/>
        <pt x="412" y="687" on="1"/>
        <pt x="395" y="619" on="1"/>
        <pt x="455" y="606" on="0"/>
        <pt x="534" y="535" on="0"/>
        <pt x="534" y="494" on="1"/>
        <pt x="534" y="466" on="0"/>
        <pt x="503" y="425" on="0"/>
        <pt x="480" y="425" on="1"/>
        <pt x="458" y="425" on="0"/>
        <pt x="437" y="451" on="0"/>
        <pt x="437" y="466" on="1"/>
        <pt x="437" y="488" on="0"/>
        <pt x="464" y="518" on="0"/>
        <pt x="481" y="522" on="1"/>
        <pt x="467" y="546" on="0"/>
        <pt x="415" y="576" on="0"/>
        <pt x="386" y="583" on="1"/>
        <pt x="326" y="339" on="1"/>
        <pt x="405" y="300" on="0"/>
        <pt x="464" y="231" on="0"/>
        <pt x="464" y="183" on="1"/>
        <pt x="464" y="148" on="0"/>
        <pt x="434" y="81" on="0"/>
        <pt x="380" y="31" on="0"/>
        <pt x="301" y="0" on="0"/>
        <pt x="253" y="0" on="1"/>
        <pt x="250" y="0" on="0"/>
        <pt x="244" y="0" on="0"/>
        <pt x="241" y="0" on="1"/>
      </contour>
      <contour>
        <pt x="195" y="463" on="1"/>
        <pt x="195" y="432" on="0"/>
        <pt x="241" y="381" on="0"/>
        <pt x="291" y="356" on="1"/>
        <pt x="348" y="588" on="1"/>
        <pt x="345" y="588" on="0"/>
        <pt x="340" y="588" on="0"/>
        <pt x="338" y="588" on="1"/>
        <pt x="301" y="588" on="0"/>
        <pt x="247" y="564" on="0"/>
        <pt x="212" y="527" on="0"/>
        <pt x="195" y="483" on="0"/>
      </contour>
      <contour>
        <pt x="402" y="163" on="1"/>
        <pt x="402" y="193" on="0"/>
        <pt x="361" y="244" on="0"/>
        <pt x="310" y="271" on="1"/>
        <pt x="250" y="36" on="1"/>
        <pt x="253" y="36" on="0"/>
        <pt x="258" y="36" on="0"/>
        <pt x="261" y="36" on="1"/>
        <pt x="320" y="36" on="0"/>
        <pt x="402" y="109" on="0"/>
      </contour>
    </TTGlyph>
    <TTGlyph name="dotaccent" xMin="140" yMin="526" xMax="227" yMax="623">
      <contour>
        <pt x="177" y="526" on="1"/>
        <pt x="163" y="526" on="0"/>
        <pt x="140" y="546" on="0"/>
        <pt x="140" y="566" on="1"/>
        <pt x="140" y="585" on="0"/>
        <pt x="165" y="623" on="0"/>
        <pt x="189" y="623" on="1"/>
        <pt x="205" y="623" on="0"/>
        <pt x="227" y="601" on="0"/>
        <pt x="227" y="582" on="1"/>
        <pt x="227" y="564" on="0"/>
        <pt x="201" y="526" on="0"/>
      </contour>
    </TTGlyph>
    <TTGlyph name="dotlessi" xMin="23" yMin="-9" xMax="271" yMax="452">
      <contour>
        <pt x="147" y="-9" on="1"/>
        <pt x="115" y="-9" on="0"/>
        <pt x="76" y="34" on="0"/>
        <pt x="77" y="74" on="1"/>
        <pt x="77" y="106" on="0"/>
        <pt x="106" y="184" on="0"/>
        <pt x="139" y="266" on="0"/>
        <pt x="167" y="346" on="0"/>
        <pt x="167" y="379" on="1"/>
        <pt x="167" y="386" on="0"/>
        <pt x="159" y="410" on="0"/>
        <pt x="145" y="410" on="1"/>
        <pt x="122" y="410" on="0"/>
        <pt x="74" y="340" on="0"/>
        <pt x="49" y="293" on="1"/>
        <pt x="23" y="305" on="1"/>
        <pt x="54" y="370" on="0"/>
        <pt x="117" y="452" on="0"/>
        <pt x="158" y="452" on="1"/>
        <pt x="190" y="452" on="0"/>
        <pt x="227" y="405" on="0"/>
        <pt x="227" y="364" on="1"/>
        <pt x="227" y="331" on="0"/>
        <pt x="199" y="248" on="0"/>
        <pt x="167" y="166" on="0"/>
        <pt x="139" y="92" on="0"/>
        <pt x="139" y="67" on="1"/>
        <pt x="139" y="59" on="0"/>
        <pt x="149" y="39" on="0"/>
        <pt x="163" y="39" on="1"/>
        <pt x="185" y="39" on="0"/>
        <pt x="224" y="102" on="0"/>
        <pt x="244" y="157" on="1"/>
        <pt x="271" y="148" on="1"/>
        <pt x="237" y="55" on="0"/>
        <pt x="177" y="-9" on="0"/>
      </contour>
    </TTGlyph>
    <TTGlyph name="dotmath" xMin="131" yMin="259" xMax="225" yMax="363">
      <component glyphName="period" x="124" y="273" flags="0x4"/>
    </TTGlyph>
    <TTGlyph name="dotmath.osf" xMin="124" yMin="229" xMax="218" yMax="333">
      <component glyphName="period" x="117" y="243" flags="0x4"/>
    </TTGlyph>
    <TTGlyph name="dotmath.tab" xMin="110" yMin="259" xMax="204" yMax="363">
      <component glyphName="period" x="103" y="273" flags="0x4"/>
    </TTGlyph>
    <TTGlyph name="e" xMin="31" yMin="-9" xMax="400" yMax="452">
      <contour>
        <pt x="178" y="-9" on="1"/>
        <pt x="112" y="-9" on="0"/>
        <pt x="31" y="75" on="0"/>
        <pt x="31" y="150" on="1"/>
        <pt x="31" y="208" on="0"/>
        <pt x="80" y="317" on="0"/>
        <pt x="156" y="401" on="0"/>
        <pt x="250" y="452" on="0"/>
        <pt x="295" y="452" on="1"/>
        <pt x="346" y="452" on="0"/>
        <pt x="400" y="399" on="0"/>
        <pt x="400" y="364" on="1"/>
        <pt x="400" y="297" on="0"/>
        <pt x="253" y="204" on="0"/>
        <pt x="99" y="185" on="1"/>
        <pt x="98" y="178" on="0"/>
        <pt x="97" y="165" on="0"/>
        <pt x="97" y="158" on="1"/>
        <pt x="97" y="95" on="0"/>
        <pt x="149" y="30" on="0"/>
        <pt x="192" y="30" on="1"/>
        <pt x="235" y="30" on="0"/>
        <pt x="309" y="83" on="0"/>
        <pt x="344" y="132" on="1"/>
        <pt x="368" y="115" on="1"/>
        <pt x="332" y="64" on="0"/>
        <pt x="241" y="-9" on="0"/>
      </contour>
      <contour>
        <pt x="281" y="419" on="1"/>
        <pt x="250" y="419" on="0"/>
        <pt x="192" y="383" on="0"/>
        <pt x="145" y="325" on="0"/>
        <pt x="111" y="251" on="0"/>
        <pt x="103" y="214" on="1"/>
        <pt x="174" y="224" on="0"/>
        <pt x="265" y="256" on="0"/>
        <pt x="318" y="296" on="0"/>
        <pt x="339" y="340" on="0"/>
        <pt x="339" y="362" on="1"/>
        <pt x="339" y="389" on="0"/>
        <pt x="306" y="419" on="0"/>
      </contour>
    </TTGlyph>
    <TTGlyph name="eacute" xMin="31" yMin="-9" xMax="457" yMax="717">
      <component glyphName="e" x="0" y="0" flags="0x204"/>
      <component glyphName="acute" x="139" y="0" flags="0x4"/>
    </TTGlyph>
    <TTGlyph name="ebreve" xMin="31" yMin="-9" xMax="453" yMax="673">
      <component glyphName="e" x="0" y="0" flags="0x204"/>
      <component glyphName="breve" x="55" y="0" flags="0x4"/>
    </TTGlyph>
    <TTGlyph name="ecaron" xMin="31" yMin="-9" xMax="462" yMax="712">
      <component glyphName="e" x="0" y="0" flags="0x204"/>
      <component glyphName="caron" x="66" y="0" flags="0x4"/>
    </TTGlyph>
    <TTGlyph name="ecircumflex" xMin="31" yMin="-9" xMax="411" yMax="703">
      <component glyphName="e" x="0" y="0" flags="0x204"/>
      <component glyphName="circumflex" x="62" y="0" flags="0x4"/>
    </TTGlyph>
    <TTGlyph name="edieresis" xMin="31" yMin="-9" xMax="432" yMax="646">
      <component glyphName="e" x="0" y="0" flags="0x204"/>
      <component glyphName="dieresis" x="53" y="0" flags="0x4"/>
    </TTGlyph>
    <TTGlyph name="edotaccent" xMin="31" yMin="-9" xMax="400" yMax="623">
      <component glyphName="e" x="0" y="0" flags="0x204"/>
      <component glyphName="dotaccent" x="130" y="0" flags="0x4"/>
    </TTGlyph>
    <TTGlyph name="egrave" xMin="31" yMin="-9" xMax="400" yMax="717">
      <component glyphName="e" x="0" y="0" flags="0x204"/>
      <component glyphName="grave" x="59" y="0" flags="0x4"/>
    </TTGlyph>
    <TTGlyph name="eight" xMin="40" yMin="-16" xMax="507" yMax="638">
      <contour>
        <pt x="240" y="-16" on="1"/>
        <pt x="193" y="-16" on="0"/>
        <pt x="118" y="10" on="0"/>
        <pt x="67" y="54" on="0"/>
        <pt x="40" y="114" on="0"/>
        <pt x="40" y="147" on="1"/>
        <pt x="40" y="198" on="0"/>
        <pt x="113" y="299" on="0"/>
        <pt x="208" y="324" on="1"/>
        <pt x="166" y="352" on="0"/>
        <pt x="122" y="424" on="0"/>
        <pt x="122" y="461" on="1"/>
        <pt x="122" y="497" on="0"/>
        <pt x="153" y="561" on="0"/>
        <pt x="208" y="610" on="0"/>
        <pt x="283" y="638" on="0"/>
        <pt x="326" y="638" on="1"/>
        <pt x="407" y="638" on="0"/>
        <pt x="507" y="551" on="0"/>
        <pt x="507" y="487" on="1"/>
        <pt x="507" y="426" on="0"/>
        <pt x="426" y="337" on="0"/>
        <pt x="359" y="315" on="1"/>
        <pt x="411" y="287" on="0"/>
        <pt x="464" y="218" on="0"/>
        <pt x="464" y="172" on="1"/>
        <pt x="464" y="131" on="0"/>
        <pt x="428" y="61" on="0"/>
        <pt x="366" y="12" on="0"/>
        <pt x="285" y="-16" on="0"/>
      </contour>
      <contour>
        <pt x="190" y="475" on="1"/>
        <pt x="190" y="436" on="0"/>
        <pt x="258" y="366" on="0"/>
        <pt x="320" y="335" on="1"/>
        <pt x="386" y="357" on="0"/>
        <pt x="450" y="438" on="0"/>
        <pt x="450" y="486" on="1"/>
        <pt x="450" y="535" on="0"/>
        <pt x="384" y="599" on="0"/>
        <pt x="326" y="599" on="1"/>
        <pt x="269" y="599" on="0"/>
        <pt x="190" y="527" on="0"/>
      </contour>
      <contour>
        <pt x="100" y="145" on="1"/>
        <pt x="100" y="96" on="0"/>
        <pt x="176" y="23" on="0"/>
        <pt x="243" y="23" on="1"/>
        <pt x="306" y="23" on="0"/>
        <pt x="396" y="98" on="0"/>
        <pt x="396" y="159" on="1"/>
        <pt x="396" y="202" on="0"/>
        <pt x="323" y="266" on="0"/>
        <pt x="245" y="303" on="1"/>
        <pt x="174" y="287" on="0"/>
        <pt x="100" y="204" on="0"/>
      </contour>
    </TTGlyph>
    <TTGlyph name="eight.den" xMin="34" yMin="-82" xMax="373" yMax="395">
      <component glyphName="eight.small" x="-17" y="-70" flags="0x4"/>
    </TTGlyph>
    <TTGlyph name="eight.inf" xMin="6" yMin="-193" xMax="345" yMax="284">
      <component glyphName="eight.small" x="-45" y="-181" flags="0x4"/>
    </TTGlyph>
    <TTGlyph name="eight.num" xMin="96" yMin="167" xMax="435" yMax="644">
      <component glyphName="eight.small" x="45" y="179" flags="0x4"/>
    </TTGlyph>
    <TTGlyph name="eight.osf" xMin="38" yMin="-16" xMax="497" yMax="626">
      <contour>
        <pt x="235" y="-16" on="1"/>
        <pt x="189" y="-16" on="0"/>
        <pt x="116" y="10" on="0"/>
        <pt x="65" y="53" on="0"/>
        <pt x="38" y="112" on="0"/>
        <pt x="38" y="144" on="1"/>
        <pt x="38" y="194" on="0"/>
        <pt x="110" y="294" on="0"/>
        <pt x="203" y="319" on="1"/>
        <pt x="162" y="346" on="0"/>
        <pt x="120" y="415" on="0"/>
        <pt x="120" y="452" on="1"/>
        <pt x="120" y="487" on="0"/>
        <pt x="151" y="551" on="0"/>
        <pt x="204" y="598" on="0"/>
        <pt x="277" y="626" on="0"/>
        <pt x="320" y="626" on="1"/>
        <pt x="400" y="626" on="0"/>
        <pt x="497" y="541" on="0"/>
        <pt x="497" y="478" on="1"/>
        <pt x="497" y="418" on="0"/>
        <pt x="418" y="332" on="0"/>
        <pt x="352" y="310" on="1"/>
        <pt x="403" y="282" on="0"/>
        <pt x="455" y="214" on="0"/>
        <pt x="455" y="169" on="1"/>
        <pt x="455" y="128" on="0"/>
        <pt x="419" y="60" on="0"/>
        <pt x="359" y="11" on="0"/>
        <pt x="279" y="-16" on="0"/>
      </contour>
      <contour>
        <pt x="188" y="466" on="1"/>
        <pt x="188" y="428" on="0"/>
        <pt x="252" y="360" on="0"/>
        <pt x="314" y="330" on="1"/>
        <pt x="379" y="352" on="0"/>
        <pt x="440" y="430" on="0"/>
        <pt x="440" y="477" on="1"/>
        <pt x="440" y="524" on="0"/>
        <pt x="377" y="587" on="0"/>
        <pt x="320" y="587" on="1"/>
        <pt x="263" y="587" on="0"/>
        <pt x="188" y="517" on="0"/>
      </contour>
      <contour>
        <pt x="98" y="142" on="1"/>
        <pt x="98" y="93" on="0"/>
        <pt x="172" y="23" on="0"/>
        <pt x="238" y="23" on="1"/>
        <pt x="301" y="23" on="0"/>
        <pt x="387" y="96" on="0"/>
        <pt x="387" y="156" on="1"/>
        <pt x="387" y="198" on="0"/>
        <pt x="315" y="261" on="0"/>
        <pt x="240" y="298" on="1"/>
        <pt x="170" y="282" on="0"/>
        <pt x="98" y="200" on="0"/>
      </contour>
    </TTGlyph>
    <TTGlyph name="eight.small" xMin="51" yMin="-12" xMax="390" yMax="465">
      <contour>
        <pt x="194" y="-12" on="1"/>
        <pt x="131" y="-12" on="0"/>
        <pt x="51" y="52" on="0"/>
        <pt x="51" y="102" on="1"/>
        <pt x="51" y="143" on="0"/>
        <pt x="107" y="214" on="0"/>
        <pt x="170" y="232" on="1"/>
        <pt x="146" y="247" on="0"/>
        <pt x="110" y="297" on="0"/>
        <pt x="110" y="331" on="1"/>
        <pt x="110" y="356" on="0"/>
        <pt x="131" y="404" on="0"/>
        <pt x="169" y="442" on="0"/>
        <pt x="225" y="465" on="0"/>
        <pt x="260" y="465" on="1"/>
        <pt x="319" y="465" on="0"/>
        <pt x="390" y="401" on="0"/>
        <pt x="390" y="355" on="1"/>
        <pt x="390" y="313" on="0"/>
        <pt x="334" y="249" on="0"/>
        <pt x="284" y="234" on="1"/>
        <pt x="313" y="217" on="0"/>
        <pt x="356" y="167" on="0"/>
        <pt x="356" y="128" on="1"/>
        <pt x="356" y="71" on="0"/>
        <pt x="265" y="-12" on="0"/>
      </contour>
      <contour>
        <pt x="167" y="347" on="1"/>
        <pt x="167" y="317" on="0"/>
        <pt x="209" y="274" on="0"/>
        <pt x="256" y="249" on="1"/>
        <pt x="299" y="265" on="0"/>
        <pt x="341" y="321" on="0"/>
        <pt x="341" y="353" on="1"/>
        <pt x="341" y="387" on="0"/>
        <pt x="299" y="431" on="0"/>
        <pt x="259" y="431" on="1"/>
        <pt x="218" y="431" on="0"/>
        <pt x="167" y="381" on="0"/>
      </contour>
      <contour>
        <pt x="104" y="105" on="1"/>
        <pt x="104" y="73" on="0"/>
        <pt x="153" y="23" on="0"/>
        <pt x="199" y="23" on="1"/>
        <pt x="244" y="23" on="0"/>
        <pt x="298" y="75" on="0"/>
        <pt x="298" y="114" on="1"/>
        <pt x="298" y="145" on="0"/>
        <pt x="251" y="188" on="0"/>
        <pt x="200" y="215" on="1"/>
        <pt x="154" y="202" on="0"/>
        <pt x="104" y="147" on="0"/>
      </contour>
    </TTGlyph>
    <TTGlyph name="eight.sup" xMin="114" yMin="242" xMax="453" yMax="719">
      <component glyphName="eight.small" x="63" y="254" flags="0x4"/>
    </TTGlyph>
    <TTGlyph name="eight.tab" xMin="59" yMin="-17" xMax="517" yMax="638">
      <contour>
        <pt x="254" y="-17" on="1"/>
        <pt x="208" y="-17" on="0"/>
        <pt x="135" y="9" on="0"/>
        <pt x="85" y="53" on="0"/>
        <pt x="59" y="113" on="0"/>
        <pt x="59" y="146" on="1"/>
        <pt x="59" y="197" on="0"/>
        <pt x="132" y="298" on="0"/>
        <pt x="227" y="323" on="1"/>
        <pt x="184" y="351" on="0"/>
        <pt x="140" y="424" on="0"/>
        <pt x="140" y="461" on="1"/>
        <pt x="140" y="497" on="0"/>
        <pt x="171" y="561" on="0"/>
        <pt x="224" y="610" on="0"/>
        <pt x="297" y="638" on="0"/>
        <pt x="340" y="638" on="1"/>
        <pt x="419" y="638" on="0"/>
        <pt x="517" y="551" on="0"/>
        <pt x="517" y="487" on="1"/>
        <pt x="517" y="426" on="0"/>
        <pt x="436" y="337" on="0"/>
        <pt x="369" y="315" on="1"/>
        <pt x="419" y="287" on="0"/>
        <pt x="473" y="218" on="0"/>
        <pt x="473" y="172" on="1"/>
        <pt x="473" y="130" on="0"/>
        <pt x="437" y="60" on="0"/>
        <pt x="377" y="11" on="0"/>
        <pt x="298" y="-17" on="0"/>
      </contour>
      <contour>
        <pt x="207" y="475" on="1"/>
        <pt x="207" y="435" on="0"/>
        <pt x="271" y="366" on="0"/>
        <pt x="330" y="335" on="1"/>
        <pt x="396" y="357" on="0"/>
        <pt x="461" y="437" on="0"/>
        <pt x="461" y="486" on="1"/>
        <pt x="461" y="535" on="0"/>
        <pt x="397" y="599" on="0"/>
        <pt x="340" y="599" on="1"/>
        <pt x="283" y="599" on="0"/>
        <pt x="207" y="527" on="0"/>
      </contour>
      <contour>
        <pt x="118" y="144" on="1"/>
        <pt x="118" y="95" on="0"/>
        <pt x="191" y="22" on="0"/>
        <pt x="257" y="22" on="1"/>
        <pt x="319" y="22" on="0"/>
        <pt x="406" y="97" on="0"/>
        <pt x="406" y="159" on="1"/>
        <pt x="406" y="202" on="0"/>
        <pt x="337" y="265" on="0"/>
        <pt x="264" y="302" on="1"/>
        <pt x="193" y="286" on="0"/>
        <pt x="118" y="204" on="0"/>
      </contour>
    </TTGlyph>
    <TTGlyph name="ellipsis" xMin="7" yMin="-14" xMax="501" yMax="90">
      <component glyphName="period" x="0" y="0" flags="0x4"/>
      <component glyphName="period" x="200" y="0" flags="0x4"/>
      <component glyphName="period" x="400" y="0" flags="0x4"/>
    </TTGlyph>
    <TTGlyph name="emacron" xMin="31" yMin="-9" xMax="443" yMax="595">
      <component glyphName="e" x="0" y="0" flags="0x204"/>
      <component glyphName="macron" x="64" y="0" flags="0x4"/>
    </TTGlyph>
    <TTGlyph name="emdash" xMin="52" yMin="211" xMax="744" yMax="258">
      <contour>
        <pt x="52" y="211" on="1"/>
        <pt x="64" y="258" on="1"/>
        <pt x="744" y="258" on="1"/>
        <pt x="732" y="211" on="1"/>
      </contour>
    </TTGlyph>
    <TTGlyph name="endash" xMin="52" yMin="211" xMax="494" yMax="258">
      <contour>
        <pt x="52" y="211" on="1"/>
        <pt x="64" y="258" on="1"/>
        <pt x="494" y="258" on="1"/>
        <pt x="482" y="211" on="1"/>
      </contour>
    </TTGlyph>
    <TTGlyph name="endash.tab" xMin="70" yMin="288" xMax="511" yMax="335">
      <contour>
        <pt x="70" y="288" on="1"/>
        <pt x="81" y="335" on="1"/>
        <pt x="511" y="335" on="1"/>
        <pt x="500" y="288" on="1"/>
      </contour>
    </TTGlyph>
    <TTGlyph name="eogonek" xMin="31" yMin="-233" xMax="400" yMax="452">
      <contour>
        <pt x="155" y="-233" on="1"/>
        <pt x="125" y="-233" on="0"/>
        <pt x="74" y="-196" on="0"/>
        <pt x="74" y="-157" on="1"/>
        <pt x="74" y="-119" on="0"/>
        <pt x="134" y="-49" on="0"/>
        <pt x="197" y="-8" on="1"/>
        <pt x="192" y="-9" on="0"/>
        <pt x="181" y="-9" on="0"/>
        <pt x="178" y="-9" on="1"/>
        <pt x="112" y="-9" on="0"/>
        <pt x="31" y="75" on="0"/>
        <pt x="31" y="150" on="1"/>
        <pt x="31" y="208" on="0"/>
        <pt x="80" y="317" on="0"/>
        <pt x="156" y="401" on="0"/>
        <pt x="250" y="452" on="0"/>
        <pt x="295" y="452" on="1"/>
        <pt x="346" y="452" on="0"/>
        <pt x="400" y="399" on="0"/>
        <pt x="400" y="364" on="1"/>
        <pt x="400" y="297" on="0"/>
        <pt x="253" y="204" on="0"/>
        <pt x="99" y="185" on="1"/>
        <pt x="98" y="178" on="0"/>
        <pt x="97" y="165" on="0"/>
        <pt x="97" y="158" on="1"/>
        <pt x="97" y="95" on="0"/>
        <pt x="149" y="30" on="0"/>
        <pt x="192" y="30" on="1"/>
        <pt x="235" y="30" on="0"/>
        <pt x="309" y="83" on="0"/>
        <pt x="344" y="132" on="1"/>
        <pt x="368" y="115" on="1"/>
        <pt x="346" y="84" on="0"/>
        <pt x="301" y="35" on="0"/>
        <pt x="274" y="16" on="1"/>
        <pt x="238" y="-10" on="1"/>
        <pt x="173" y="-57" on="0"/>
        <pt x="127" y="-122" on="0"/>
        <pt x="127" y="-150" on="1"/>
        <pt x="127" y="-170" on="0"/>
        <pt x="151" y="-195" on="0"/>
        <pt x="173" y="-195" on="1"/>
        <pt x="189" y="-195" on="0"/>
        <pt x="218" y="-184" on="0"/>
        <pt x="228" y="-178" on="1"/>
        <pt x="240" y="-201" on="1"/>
        <pt x="222" y="-216" on="0"/>
        <pt x="179" y="-233" on="0"/>
      </contour>
      <contour>
        <pt x="281" y="419" on="1"/>
        <pt x="250" y="419" on="0"/>
        <pt x="192" y="383" on="0"/>
        <pt x="145" y="325" on="0"/>
        <pt x="111" y="251" on="0"/>
        <pt x="103" y="214" on="1"/>
        <pt x="174" y="224" on="0"/>
        <pt x="265" y="256" on="0"/>
        <pt x="318" y="296" on="0"/>
        <pt x="339" y="340" on="0"/>
        <pt x="339" y="362" on="1"/>
        <pt x="339" y="389" on="0"/>
        <pt x="306" y="419" on="0"/>
      </contour>
    </TTGlyph>
    <TTGlyph name="equal" xMin="56" yMin="205" xMax="515" yMax="417">
      <contour>
        <pt x="100" y="379" on="1"/>
        <pt x="109" y="417" on="1"/>
        <pt x="515" y="417" on="1"/>
        <pt x="506" y="379" on="1"/>
      </contour>
      <contour>
        <pt x="56" y="205" on="1"/>
        <pt x="66" y="243" on="1"/>
        <pt x="472" y="243" on="1"/>
        <pt x="462" y="205" on="1"/>
      </contour>
    </TTGlyph>
    <TTGlyph name="equal.osf" xMin="47" yMin="169" xMax="506" yMax="381">
      <contour>
        <pt x="91" y="343" on="1"/>
        <pt x="100" y="381" on="1"/>
        <pt x="506" y="381" on="1"/>
        <pt x="497" y="343" on="1"/>
      </contour>
      <contour>
        <pt x="47" y="169" on="1"/>
        <pt x="57" y="207" on="1"/>
        <pt x="463" y="207" on="1"/>
        <pt x="453" y="169" on="1"/>
      </contour>
    </TTGlyph>
    <TTGlyph name="equal.tab" xMin="62" yMin="205" xMax="521" yMax="417">
      <contour>
        <pt x="106" y="379" on="1"/>
        <pt x="115" y="417" on="1"/>
        <pt x="521" y="417" on="1"/>
        <pt x="512" y="379" on="1"/>
      </contour>
      <contour>
        <pt x="62" y="205" on="1"/>
        <pt x="72" y="243" on="1"/>
        <pt x="478" y="243" on="1"/>
        <pt x="468" y="205" on="1"/>
      </contour>
    </TTGlyph>
    <TTGlyph name="eth" xMin="35" yMin="-9" xMax="489" yMax="667">
      <contour>
        <pt x="193" y="-9" on="1"/>
        <pt x="116" y="-9" on="0"/>
        <pt x="35" y="94" on="0"/>
        <pt x="35" y="171" on="1"/>
        <pt x="35" y="228" on="0"/>
        <pt x="73" y="329" on="0"/>
        <pt x="136" y="403" on="0"/>
        <pt x="218" y="447" on="0"/>
        <pt x="262" y="447" on="1"/>
        <pt x="315" y="447" on="0"/>
        <pt x="370" y="391" on="0"/>
        <pt x="380" y="361" on="1"/>
        <pt x="379" y="412" on="0"/>
        <pt x="360" y="508" on="0"/>
        <pt x="341" y="554" on="1"/>
        <pt x="215" y="510" on="1"/>
        <pt x="204" y="542" on="1"/>
        <pt x="327" y="585" on="1"/>
        <pt x="318" y="603" on="0"/>
        <pt x="298" y="639" on="0"/>
        <pt x="286" y="657" on="1"/>
        <pt x="328" y="667" on="1"/>
        <pt x="339" y="651" on="0"/>
        <pt x="361" y="618" on="0"/>
        <pt x="371" y="600" on="1"/>
        <pt x="478" y="637" on="1"/>
        <pt x="489" y="605" on="1"/>
        <pt x="387" y="570" on="1"/>
        <pt x="410" y="521" on="0"/>
        <pt x="439" y="406" on="0"/>
        <pt x="439" y="337" on="1"/>
        <pt x="439" y="265" on="0"/>
        <pt x="402" y="138" on="0"/>
        <pt x="337" y="45" on="0"/>
        <pt x="246" y="-9" on="0"/>
      </contour>
      <contour>
        <pt x="191" y="24" on="1"/>
        <pt x="232" y="24" on="0"/>
        <pt x="297" y="73" on="0"/>
        <pt x="341" y="148" on="0"/>
        <pt x="365" y="238" on="0"/>
        <pt x="365" y="279" on="1"/>
        <pt x="365" y="351" on="0"/>
        <pt x="306" y="412" on="0"/>
        <pt x="269" y="412" on="1"/>
        <pt x="231" y="412" on="0"/>
        <pt x="167" y="364" on="0"/>
        <pt x="123" y="287" on="0"/>
        <pt x="99" y="192" on="0"/>
        <pt x="99" y="146" on="1"/>
        <pt x="99" y="80" on="0"/>
        <pt x="155" y="24" on="0"/>
      </contour>
    </TTGlyph>
    <TTGlyph name="exclam" xMin="36" yMin="-14" xMax="272" yMax="674">
      <contour>
        <pt x="131" y="187" on="1"/>
        <pt x="109" y="193" on="1"/>
        <pt x="124" y="259" on="0"/>
        <pt x="147" y="395" on="0"/>
        <pt x="166" y="513" on="0"/>
        <pt x="182" y="608" on="0"/>
        <pt x="189" y="635" on="1"/>
        <pt x="194" y="655" on="0"/>
        <pt x="217" y="674" on="0"/>
        <pt x="233" y="674" on="1"/>
        <pt x="253" y="674" on="0"/>
        <pt x="272" y="651" on="0"/>
        <pt x="272" y="636" on="1"/>
        <pt x="272" y="614" on="0"/>
        <pt x="235" y="504" on="0"/>
        <pt x="205" y="417" on="1"/>
        <pt x="192" y="378" on="0"/>
        <pt x="153" y="261" on="0"/>
      </contour>
      <contour>
        <pt x="80" y="-14" on="1"/>
        <pt x="61" y="-14" on="0"/>
        <pt x="36" y="14" on="0"/>
        <pt x="36" y="34" on="1"/>
        <pt x="36" y="57" on="0"/>
        <pt x="65" y="90" on="0"/>
        <pt x="86" y="90" on="1"/>
        <pt x="105" y="90" on="0"/>
        <pt x="130" y="62" on="0"/>
        <pt x="130" y="42" on="1"/>
        <pt x="130" y="19" on="0"/>
        <pt x="101" y="-14" on="0"/>
      </contour>
    </TTGlyph>
    <TTGlyph name="exclamdown" xMin="40" yMin="-14" xMax="276" yMax="674">
      <contour>
        <pt x="232" y="674" on="1"/>
        <pt x="251" y="674" on="0"/>
        <pt x="276" y="646" on="0"/>
        <pt x="276" y="626" on="1"/>
        <pt x="276" y="603" on="0"/>
        <pt x="247" y="570" on="0"/>
        <pt x="226" y="570" on="1"/>
        <pt x="207" y="570" on="0"/>
        <pt x="182" y="598" on="0"/>
        <pt x="182" y="618" on="1"/>
        <pt x="182" y="641" on="0"/>
        <pt x="211" y="674" on="0"/>
      </contour>
      <contour>
        <pt x="181" y="473" on="1"/>
        <pt x="203" y="467" on="1"/>
        <pt x="188" y="401" on="0"/>
        <pt x="165" y="265" on="0"/>
        <pt x="146" y="147" on="0"/>
        <pt x="130" y="52" on="0"/>
        <pt x="123" y="25" on="1"/>
        <pt x="118" y="5" on="0"/>
        <pt x="95" y="-14" on="0"/>
        <pt x="79" y="-14" on="1"/>
        <pt x="59" y="-14" on="0"/>
        <pt x="40" y="9" on="0"/>
        <pt x="40" y="24" on="1"/>
        <pt x="40" y="46" on="0"/>
        <pt x="77" y="156" on="0"/>
        <pt x="107" y="243" on="1"/>
        <pt x="120" y="282" on="0"/>
        <pt x="159" y="399" on="0"/>
      </contour>
    </TTGlyph>
    <TTGlyph name="f" xMin="-79" yMin="-160" xMax="432" yMax="693">
      <contour>
        <pt x="-20" y="-160" on="1"/>
        <pt x="-51" y="-160" on="0"/>
        <pt x="-79" y="-130" on="0"/>
        <pt x="-79" y="-111" on="1"/>
        <pt x="-79" y="-92" on="0"/>
        <pt x="-56" y="-62" on="0"/>
        <pt x="-37" y="-62" on="1"/>
        <pt x="-21" y="-62" on="0"/>
        <pt x="-3" y="-83" on="0"/>
        <pt x="-3" y="-97" on="1"/>
        <pt x="-3" y="-106" on="0"/>
        <pt x="-10" y="-126" on="0"/>
        <pt x="-16" y="-133" on="1"/>
        <pt x="-3" y="-133" on="0"/>
        <pt x="18" y="-118" on="0"/>
        <pt x="37" y="-78" on="0"/>
        <pt x="56" y="-7" on="0"/>
        <pt x="68" y="49" on="1"/>
        <pt x="142" y="403" on="1"/>
        <pt x="43" y="403" on="1"/>
        <pt x="52" y="438" on="1"/>
        <pt x="149" y="438" on="1"/>
        <pt x="176" y="572" on="0"/>
        <pt x="275" y="691" on="0"/>
        <pt x="340" y="692" on="1"/>
        <pt x="383" y="693" on="0"/>
        <pt x="432" y="653" on="0"/>
        <pt x="432" y="625" on="1"/>
        <pt x="432" y="602" on="0"/>
        <pt x="407" y="566" on="0"/>
        <pt x="386" y="566" on="1"/>
        <pt x="370" y="566" on="0"/>
        <pt x="350" y="587" on="0"/>
        <pt x="350" y="604" on="1"/>
        <pt x="350" y="617" on="0"/>
        <pt x="361" y="642" on="0"/>
        <pt x="371" y="652" on="1"/>
        <pt x="367" y="656" on="0"/>
        <pt x="350" y="661" on="0"/>
        <pt x="340" y="661" on="1"/>
        <pt x="290" y="661" on="0"/>
        <pt x="240" y="559" on="0"/>
        <pt x="221" y="477" on="1"/>
        <pt x="212" y="438" on="1"/>
        <pt x="336" y="438" on="1"/>
        <pt x="327" y="403" on="1"/>
        <pt x="205" y="403" on="1"/>
        <pt x="137" y="77" on="1"/>
        <pt x="109" y="-58" on="0"/>
        <pt x="31" y="-160" on="0"/>
      </contour>
    </TTGlyph>
    <TTGlyph name="f_b" xMin="-79" yMin="-160" xMax="699" yMax="692">
      <contour>
        <pt x="-20" y="-160" on="1"/>
        <pt x="-51" y="-160" on="0"/>
        <pt x="-79" y="-130" on="0"/>
        <pt x="-79" y="-111" on="1"/>
        <pt x="-79" y="-92" on="0"/>
        <pt x="-56" y="-62" on="0"/>
        <pt x="-37" y="-62" on="1"/>
        <pt x="-21" y="-62" on="0"/>
        <pt x="-3" y="-83" on="0"/>
        <pt x="-3" y="-97" on="1"/>
        <pt x="-3" y="-106" on="0"/>
        <pt x="-10" y="-126" on="0"/>
        <pt x="-16" y="-133" on="1"/>
        <pt x="-3" y="-133" on="0"/>
        <pt x="18" y="-118" on="0"/>
        <pt x="37" y="-78" on="0"/>
        <pt x="56" y="-7" on="0"/>
        <pt x="68" y="49" on="1"/>
        <pt x="142" y="403" on="1"/>
        <pt x="43" y="403" on="1"/>
        <pt x="52" y="438" on="1"/>
        <pt x="149" y="438" on="1"/>
        <pt x="153" y="455" on="1"/>
        <pt x="179" y="581" on="0"/>
        <pt x="286" y="692" on="0"/>
        <pt x="354" y="692" on="1"/>
        <pt x="377" y="692" on="0"/>
        <pt x="415" y="682" on="0"/>
        <pt x="428" y="674" on="1"/>
        <pt x="524" y="692" on="1"/>
        <pt x="427" y="344" on="1"/>
        <pt x="434" y="341" on="1"/>
        <pt x="468" y="393" on="0"/>
        <pt x="541" y="452" on="0"/>
        <pt x="583" y="452" on="1"/>
        <pt x="633" y="452" on="0"/>
        <pt x="699" y="375" on="0"/>
        <pt x="699" y="304" on="1"/>
        <pt x="699" y="245" on="0"/>
        <pt x="657" y="131" on="0"/>
        <pt x="589" y="44" on="0"/>
        <pt x="503" y="-9" on="0"/>
        <pt x="459" y="-9" on="1"/>
        <pt x="405" y="-9" on="0"/>
        <pt x="322" y="64" on="0"/>
        <pt x="322" y="133" on="1"/>
        <pt x="322" y="169" on="0"/>
        <pt x="340" y="251" on="0"/>
        <pt x="350" y="288" on="1"/>
        <pt x="382" y="403" on="1"/>
        <pt x="205" y="403" on="1"/>
        <pt x="137" y="77" on="1"/>
        <pt x="109" y="-58" on="0"/>
        <pt x="31" y="-160" on="0"/>
      </contour>
      <contour>
        <pt x="213" y="443" on="1"/>
        <pt x="212" y="438" on="1"/>
        <pt x="392" y="438" on="1"/>
        <pt x="427" y="567" on="1"/>
        <pt x="426" y="566" on="0"/>
        <pt x="422" y="566" on="0"/>
        <pt x="420" y="566" on="1"/>
        <pt x="404" y="566" on="0"/>
        <pt x="384" y="587" on="0"/>
        <pt x="384" y="604" on="1"/>
        <pt x="384" y="617" on="0"/>
        <pt x="394" y="637" on="0"/>
        <pt x="401" y="644" on="1"/>
        <pt x="398" y="647" on="0"/>
        <pt x="374" y="661" on="0"/>
        <pt x="353" y="661" on="1"/>
        <pt x="302" y="661" on="0"/>
        <pt x="238" y="562" on="0"/>
      </contour>
      <contour>
        <pt x="464" y="29" on="1"/>
        <pt x="500" y="29" on="0"/>
        <pt x="562" y="83" on="0"/>
        <pt x="608" y="164" on="0"/>
        <pt x="634" y="262" on="0"/>
        <pt x="634" y="306" on="1"/>
        <pt x="634" y="356" on="0"/>
        <pt x="594" y="405" on="0"/>
        <pt x="563" y="405" on="1"/>
        <pt x="529" y="405" on="0"/>
        <pt x="464" y="349" on="0"/>
        <pt x="414" y="267" on="0"/>
        <pt x="384" y="172" on="0"/>
        <pt x="384" y="133" on="1"/>
        <pt x="384" y="94" on="0"/>
        <pt x="419" y="29" on="0"/>
      </contour>
    </TTGlyph>
</ttFont>
